<svg xmlns="http://www.w3.org/2000/svg" width="1349" height="300" version="1.0" viewBox="0 0 1011.75 225"><defs><clipPath id="j"><path d="M931 127h10v22h-10Zm0 0"/></clipPath><clipPath id="s"><path d="M737.879 26.273h98.805l-16.875 99.336h-98.805l16.875-99.336"/></clipPath><clipPath id="c"><path d="M703 .027h308.5v224.946H703Zm0 0"/></clipPath><clipPath id="r"><path d="M721.004 26.273H837V126H721.004Zm0 0"/></clipPath><clipPath id="f"><path d="M.535.027H308.5v224.946H.535Zm0 0"/></clipPath><clipPath id="g"><path d="M81.316 225.023H454.32v-225H.535l80.781 225"/></clipPath><clipPath id="e"><path d="M0 0h309v225H0z"/></clipPath><clipPath id="h"><path d="M879 115.563h65.633V161H879Zm0 0"/></clipPath><clipPath id="i"><path d="M944.633 127.04v33.75l-65.586-11.477v-33.75l65.586 11.476"/></clipPath><clipPath id="b"><path d="M0 .027h1011.5v224.946H0Zm0 0"/></clipPath><clipPath id="k"><path d="m934.176 127.488 5.87 1.239-5.417 25.683-5.871-1.238Zm0 0"/></clipPath><clipPath id="l"><path d="m934.176 127.488 5.87 1.239-5.417 25.683-5.871-1.238Zm0 0"/></clipPath><clipPath id="m"><path d="m934.176 127.488 5.87 1.239-5.417 25.683-5.871-1.238Zm0 0"/></clipPath><clipPath id="n"><path d="M929 148h7v6h-7Zm0 0"/></clipPath><clipPath id="o"><path d="m934.176 127.488 5.87 1.239-5.417 25.683-5.871-1.238Zm0 0"/></clipPath><clipPath id="p"><path d="m934.176 127.488 5.87 1.239-5.417 25.683-5.871-1.238Zm0 0"/></clipPath><clipPath id="q"><path d="m934.176 127.488 5.87 1.239-5.417 25.683-5.871-1.238Zm0 0"/></clipPath><filter id="a" width="100%" height="100%" x="0%" y="0%"><feColorMatrix color-interpolation-filters="sRGB" values="0 0 0 0 1 0 0 0 0 1 0 0 0 0 1 0 0 0 1 0"/></filter><mask id="d"><g filter="url(#a)"><path fill-opacity=".678" d="M-101.175-22.5h1214.1v270h-1214.1z"/></g></mask></defs><g clip-path="url(#b)"><path fill="#fff" d="M0 .027h1011.75v225H0Zm0 0"/><path d="M0 .027h1011.75v225H0Zm0 0"/></g><g clip-path="url(#c)" mask="url(#d)"><g clip-path="url(#e)" transform="translate(703)"><g clip-path="url(#f)"><g clip-path="url(#g)"><path fill="#23b98c" d="M.535 225.023V-.129h453.957v225.152Zm0 0"/></g></g></g></g><path fill="none" stroke="#fff" stroke-width="5" d="M-.003 2.499H1168.31" transform="matrix(.7498 0 0 .75 70.28 26.274)"/><path fill="none" stroke="#fff" stroke-width="5" d="M.003 2.498h75.323" transform="matrix(.74689 0 0 .75 68.404 201.11)"/><path fill="none" stroke="#fff" stroke-width="5" d="m0 2.501 925.984-.003" transform="matrix(.75001 .00025 -.00025 .75 252.024 199.007)"/><path fill="none" stroke="#fff" stroke-width="5" d="M.001 2.5h238.115" transform="matrix(0 .74965 -.75 0 70.277 26.277)"/><path fill="none" stroke="#fff" stroke-width="5" d="M-.001 2.5h233.463" transform="matrix(0 .74854 -.75 0 946.508 26.278)"/><path fill="#fff" d="M139.2 49.394c3.727 0 6.426.871 8.094 2.61 1.664 1.73 2.5 4.351 2.5 7.86v1.624c0 2.336-.371 4.262-1.11 5.781-.73 1.524-1.898 2.649-3.5 3.375 1.946.743 3.32 1.946 4.126 3.61.8 1.668 1.203 3.715 1.203 6.14v3.703c0 3.512-.914 6.188-2.735 8.032-1.824 1.843-4.53 2.765-8.125 2.765h-11.25v-45.5Zm-3.64 25.032v13.968h4.093c1.22 0 2.141-.32 2.766-.968.625-.657.937-1.829.937-3.516v-3.969c0-2.125-.359-3.57-1.078-4.344-.71-.78-1.886-1.171-3.53-1.171Zm0-18.532v12.032h2.796c1.344 0 2.391-.348 3.141-1.047.758-.696 1.14-1.953 1.14-3.766v-2.531c0-1.656-.292-2.848-.874-3.578-.586-.739-1.508-1.11-2.766-1.11ZM154.79 49.394h7.156v39h11.766v6.5H154.79ZM199.963 94.894h-7.203l-1.234-8.25h-8.782l-1.234 8.25h-6.562l7.28-45.5h10.454Zm-16.312-14.437h6.89l-3.437-23ZM224.009 77.926v6.046c0 3.688-.903 6.516-2.703 8.485-1.793 1.969-4.446 2.953-7.953 2.953-3.512 0-6.168-.984-7.97-2.953-1.792-1.969-2.687-4.797-2.687-8.485V60.316c0-3.687.895-6.515 2.688-8.484 1.8-1.969 4.457-2.953 7.969-2.953 3.507 0 6.16.984 7.953 2.953 1.8 1.969 2.703 4.797 2.703 8.484v4.422h-6.75v-4.875c0-1.644-.34-2.8-1.016-3.469-.668-.675-1.562-1.015-2.687-1.015-1.125 0-2.028.34-2.703 1.015-.668.668-1 1.825-1 3.47v24.562c0 1.648.332 2.796 1 3.453.675.648 1.578.968 2.703.968 1.125 0 2.02-.32 2.687-.968.676-.657 1.016-1.805 1.016-3.453v-6.5ZM237.72 76.754l-2.202 4.172v13.968h-7.157v-45.5h7.157v19.828l9.359-19.828h7.156l-9.953 20.282 9.953 25.218h-7.343Zm0 0"/><path fill="none" stroke="#fff" stroke-width="7" d="M.002 3.502h208.282" transform="matrix(.74899 0 0 .75 111.143 104.037)"/><path fill="#fff" d="M310.765 102.52v7.829h-1.093v-7.828Zm0-3.64v1.797h-1.093V98.88ZM322.202 107.396c0 .43-.09.82-.265 1.172a2.865 2.865 0 0 1-.688.921 3.017 3.017 0 0 1-1 .61 3.408 3.408 0 0 1-1.234.219h-5.36v-11.36h5.47c.394 0 .753.09 1.077.266.32.168.594.387.813.656.226.274.398.586.515.938a3 3 0 0 1 .188 1.03c0 .587-.149 1.118-.438 1.595-.28.468-.68.82-1.187 1.046.644.2 1.156.56 1.531 1.079.383.523.578 1.132.578 1.828Zm-1.125-.203c0-.27-.047-.536-.14-.797a2.135 2.135 0 0 0-.407-.688 2.296 2.296 0 0 0-.625-.484 1.671 1.671 0 0 0-.78-.188h-4.345v4.313h4.235c.289 0 .562-.055.812-.172.25-.125.469-.285.656-.484a2.21 2.21 0 0 0 .594-1.5Zm-6.297-7.266v4.203h3.907c.27 0 .523-.055.765-.172a2.105 2.105 0 0 0 1.016-1.14 2.05 2.05 0 0 0 .156-.782c0-.289-.047-.562-.14-.812a2.111 2.111 0 0 0-.391-.672 2.05 2.05 0 0 0-.594-.453 1.549 1.549 0 0 0-.719-.172ZM324.309 110.318v-11.36h1.125v10.375h6.562v.985ZM337.15 98.958h.953l4.72 11.36h-1.188l-1.47-3.547h-5.109l-1.453 3.547H332.4Zm2.766 6.922-2.297-5.61-2.313 5.61ZM343.698 104.552c0-.676.117-1.352.36-2.031a5.558 5.558 0 0 1 1.046-1.813 5.31 5.31 0 0 1 1.688-1.312c.675-.332 1.441-.5 2.297-.5 1.007 0 1.875.23 2.593.687.727.461 1.258 1.059 1.594 1.797l-.875.531a3.378 3.378 0 0 0-.672-.937 3.523 3.523 0 0 0-.844-.625 3.75 3.75 0 0 0-.921-.344 4.265 4.265 0 0 0-.938-.11c-.687 0-1.293.141-1.812.423-.524.28-.961.648-1.313 1.093-.355.45-.625.953-.812 1.516a5.44 5.44 0 0 0-.266 1.687c0 .637.11 1.243.328 1.813a5.27 5.27 0 0 0 .89 1.531c.376.438.821.793 1.344 1.063.52.261 1.082.39 1.688.39.32 0 .648-.039.984-.125.332-.082.657-.21.97-.39.32-.176.612-.395.874-.657a3.24 3.24 0 0 0 .672-.953l.937.485c-.187.43-.449.808-.78 1.14a4.95 4.95 0 0 1-1.095.828c-.406.22-.84.387-1.296.5-.45.114-.891.172-1.329.172a4.66 4.66 0 0 1-2.156-.5 5.589 5.589 0 0 1-1.672-1.343 6.16 6.16 0 0 1-1.093-1.875 6.033 6.033 0 0 1-.391-2.141ZM355.421 110.318V98.974h1.125v6.594l6.25-6.61h1.235l-4.64 4.985 4.874 6.375h-1.219l-4.36-5.72-2.14 2.235v3.485ZM369.786 110.318v-11.36h7.453v.985h-6.328v4.187h5.344v.922h-5.344v5.266ZM379.208 110.318v-11.36h4.796c.489 0 .938.106 1.344.313.414.21.774.48 1.078.812.301.336.532.715.688 1.14.164.43.25.86.25 1.298 0 .418-.063.82-.188 1.203a3.47 3.47 0 0 1-.5 1.015 3.032 3.032 0 0 1-.797.766 2.72 2.72 0 0 1-1.03.422l2.78 4.39h-1.265l-2.672-4.187h-3.36v4.188Zm1.125-5.188h3.703c.332 0 .633-.066.906-.203.27-.145.5-.344.687-.594.196-.25.348-.523.454-.828.113-.312.171-.64.171-.984a2.59 2.59 0 0 0-.187-.969 2.694 2.694 0 0 0-.5-.828 2.335 2.335 0 0 0-.734-.563 1.924 1.924 0 0 0-.891-.218h-3.61ZM389.653 110.318v-11.36h1.125v11.36ZM393.62 110.318v-11.36h3.86c.906 0 1.695.153 2.375.453.675.293 1.238.7 1.687 1.22.457.51.8 1.108 1.031 1.796.227.687.344 1.418.344 2.187 0 .868-.133 1.653-.39 2.36-.25.7-.618 1.297-1.094 1.797a4.823 4.823 0 0 1-1.703 1.14c-.668.274-1.418.407-2.25.407Zm8.172-5.704c0-.675-.094-1.3-.281-1.875a4.122 4.122 0 0 0-.844-1.484 3.772 3.772 0 0 0-1.36-.969c-.53-.226-1.14-.343-1.827-.343h-2.735v9.39h2.735c.707 0 1.328-.117 1.859-.36.539-.25.992-.581 1.36-1 .363-.413.632-.91.812-1.484.187-.57.281-1.195.281-1.875ZM408.573 98.958h.953l4.719 11.36h-1.188l-1.468-3.547h-5.11l-1.453 3.547h-1.203Zm2.766 6.922-2.297-5.61-2.313 5.61ZM415.933 98.958l3.719 6.11 3.734-6.11h1.22l-4.391 7.14v4.22h-1.125v-4.25l-4.391-7.11ZM438.004 109.333v.985h-7.64v-11.36h7.484v.985h-6.36v4.109h5.547v.937h-5.547v4.344ZM441.23 101.036v9.282h-1.125v-11.36h.86l7.53 9.453v-9.437h1.11v11.344h-.969ZM457.658 101.036v9.282h-1.125v-11.36h.86l7.53 9.453v-9.437h1.11v11.344h-.969ZM473.491 109.396c.72 0 1.313-.133 1.782-.407a3.36 3.36 0 0 0 1.14-1.078c.282-.445.477-.953.594-1.515a8.598 8.598 0 0 0 .172-1.703v-5.735h1.11v5.735c0 .761-.09 1.484-.266 2.171a5.325 5.325 0 0 1-.813 1.829 4.045 4.045 0 0 1-1.484 1.25c-.606.304-1.344.453-2.219.453-.898 0-1.652-.16-2.266-.485a4.09 4.09 0 0 1-1.484-1.28 5.513 5.513 0 0 1-.797-1.829 9.488 9.488 0 0 1-.234-2.11v-5.734h1.11v5.735c0 .593.054 1.171.171 1.734.113.562.313 1.062.594 1.5.281.437.656.793 1.125 1.062.469.274 1.054.407 1.765.407ZM488.6 109.333v.985h-7.64v-11.36h7.484v.985h-6.36v4.109h5.547v.937h-5.547v4.344ZM497.341 101.083c-.324-.363-.75-.656-1.28-.875-.532-.226-1.141-.344-1.829-.344-1 0-1.73.196-2.187.579-.461.375-.688.886-.688 1.53 0 .345.063.626.188.845.125.218.312.414.562.578.258.156.586.293.984.406.407.117.88.234 1.422.36.602.124 1.145.273 1.625.437.489.156.907.355 1.25.594.344.242.602.53.782.875.187.336.28.761.28 1.28 0 .524-.105.977-.312 1.36-.199.375-.48.696-.843.953a3.785 3.785 0 0 1-1.297.578c-.5.114-1.047.172-1.641.172-1.762 0-3.281-.547-4.562-1.64l.562-.922c.195.219.438.43.719.625.281.187.594.355.937.5.352.137.727.246 1.125.328.395.086.813.125 1.25.125.907 0 1.61-.16 2.11-.484.507-.332.765-.829.765-1.485 0-.351-.074-.648-.218-.89a1.985 1.985 0 0 0-.657-.625 4.297 4.297 0 0 0-1.062-.454c-.43-.132-.922-.265-1.485-.39a15.69 15.69 0 0 1-1.578-.422 4.634 4.634 0 0 1-1.14-.563 2.267 2.267 0 0 1-.688-.812c-.156-.313-.234-.695-.234-1.156 0-.52.097-.985.297-1.39.195-.415.476-.759.843-1.032.364-.281.79-.488 1.282-.625a5.718 5.718 0 0 1 1.625-.219c.757 0 1.437.117 2.03.344.595.23 1.13.555 1.61.969ZM508.473 99.943h-4.047v10.375h-1.125V99.943h-4.047v-.985h9.219ZM510.168 110.318v-11.36h4.797c.488 0 .937.106 1.344.313.414.21.773.48 1.078.812.3.336.531.715.687 1.14.164.43.25.86.25 1.298 0 .418-.062.82-.187 1.203a3.47 3.47 0 0 1-.5 1.015 3.032 3.032 0 0 1-.797.766 2.72 2.72 0 0 1-1.031.422l2.781 4.39h-1.266l-2.672-4.187h-3.359v4.188Zm1.125-5.188h3.703c.332 0 .633-.066.906-.203.27-.145.5-.344.688-.594.195-.25.348-.523.453-.828.113-.312.172-.64.172-.984a2.59 2.59 0 0 0-.188-.969 2.694 2.694 0 0 0-.5-.828 2.335 2.335 0 0 0-.734-.563 1.924 1.924 0 0 0-.89-.218h-3.61ZM524.13 98.958h.952l4.72 11.36h-1.188l-1.47-3.547h-5.109l-1.453 3.547h-1.203Zm2.765 6.922-2.297-5.61-2.313 5.61ZM543.569 99.943h-4.047v10.375h-1.125V99.943h-4.047v-.985h9.219ZM545.264 110.318v-11.36h1.125v11.36ZM556.871 109.333v.985h-7.64v-11.36h7.484v.985h-6.36v4.109h5.548v.937h-5.547v4.344ZM560.097 101.036v9.282h-1.125v-11.36h.86l7.531 9.453v-9.437h1.11v11.344h-.97ZM571.321 110.318v-11.36h3.86c.906 0 1.695.153 2.375.453.676.293 1.238.7 1.687 1.22.457.51.801 1.108 1.032 1.796.226.687.343 1.418.343 2.187 0 .868-.133 1.653-.39 2.36-.25.7-.618 1.297-1.094 1.797a4.823 4.823 0 0 1-1.703 1.14c-.668.274-1.418.407-2.25.407Zm8.172-5.704c0-.675-.093-1.3-.281-1.875a4.122 4.122 0 0 0-.844-1.484 3.772 3.772 0 0 0-1.36-.969c-.53-.226-1.14-.343-1.827-.343h-2.735v9.39h2.735c.707 0 1.328-.117 1.86-.36.538-.25.991-.581 1.359-1 .363-.413.632-.91.812-1.484.188-.57.281-1.195.281-1.875ZM586.274 98.958h.953l4.72 11.36h-1.188l-1.47-3.547h-5.108l-1.454 3.547h-1.203Zm2.766 6.922-2.297-5.61-2.312 5.61ZM597.651 110.318v-11.36h3.86c.906 0 1.695.153 2.374.453.676.293 1.239.7 1.688 1.22.457.51.8 1.108 1.031 1.796.227.687.344 1.418.344 2.187 0 .868-.133 1.653-.39 2.36-.25.7-.618 1.297-1.094 1.797a4.823 4.823 0 0 1-1.704 1.14c-.668.274-1.418.407-2.25.407Zm8.172-5.704c0-.675-.094-1.3-.281-1.875a4.122 4.122 0 0 0-.844-1.484 3.772 3.772 0 0 0-1.36-.969c-.53-.226-1.14-.343-1.828-.343h-2.734v9.39h2.734c.707 0 1.329-.117 1.86-.36.539-.25.992-.581 1.36-1 .362-.413.632-.91.812-1.484.187-.57.28-1.195.28-1.875ZM616.729 109.333v.985h-7.64v-11.36h7.484v.985h-6.36v4.109h5.547v.937h-5.547v4.344ZM622.909 110.318v-11.36h4.703c.488 0 .938.106 1.344.313.414.21.77.48 1.062.812.301.336.536.715.704 1.14.175.43.265.86.265 1.298 0 .468-.078.922-.234 1.36-.156.429-.383.808-.672 1.14a3.45 3.45 0 0 1-1.047.812c-.398.2-.84.297-1.328.297h-3.672v4.188Zm1.125-5.188h3.625c.332 0 .633-.066.906-.203.27-.145.5-.336.688-.578.195-.25.347-.531.453-.844.113-.312.172-.64.172-.984s-.063-.672-.188-.985a2.694 2.694 0 0 0-.5-.828 2.335 2.335 0 0 0-.734-.562 2.064 2.064 0 0 0-.89-.203h-3.532ZM632.859 110.318v-11.36h1.125v10.375h6.562v.985ZM645.7 98.958h.953l4.719 11.36h-1.188l-1.468-3.547h-5.11l-1.453 3.547h-1.203Zm2.766 6.922-2.297-5.61-2.313 5.61ZM654.123 101.036v9.282h-1.125v-11.36h.86l7.53 9.453v-9.437h1.11v11.344h-.969ZM673.41 99.943h-4.048v10.375h-1.125V99.943h-4.046v-.985h9.218ZM678.62 98.958h.953l4.719 11.36h-1.188l-1.468-3.547h-5.11l-1.453 3.547h-1.203Zm2.766 6.922-2.297-5.61-2.313 5.61ZM692.558 101.083c-.324-.363-.75-.656-1.28-.875-.532-.226-1.141-.344-1.829-.344-1 0-1.73.196-2.187.579-.461.375-.688.886-.688 1.53 0 .345.063.626.188.845.125.218.312.414.562.578.258.156.586.293.984.406.407.117.88.234 1.422.36.602.124 1.145.273 1.625.437.489.156.907.355 1.25.594.344.242.602.53.782.875.187.336.28.761.28 1.28 0 .524-.105.977-.312 1.36-.199.375-.48.696-.843.953a3.785 3.785 0 0 1-1.297.578c-.5.114-1.047.172-1.64.172-1.763 0-3.282-.547-4.563-1.64l.562-.922c.195.219.438.43.719.625.281.187.594.355.937.5.352.137.727.246 1.125.328.395.086.813.125 1.25.125.907 0 1.61-.16 2.11-.484.508-.332.765-.829.765-1.485 0-.351-.074-.648-.218-.89a1.985 1.985 0 0 0-.657-.625 4.297 4.297 0 0 0-1.062-.454c-.43-.132-.922-.265-1.485-.39a15.69 15.69 0 0 1-1.578-.422 4.634 4.634 0 0 1-1.14-.563 2.267 2.267 0 0 1-.688-.812c-.156-.313-.234-.695-.234-1.156 0-.52.097-.985.297-1.39.195-.415.476-.759.843-1.032.364-.281.79-.488 1.282-.625a5.718 5.718 0 0 1 1.625-.219c.758 0 1.437.117 2.031.344.594.23 1.129.555 1.61.969ZM309.703 120.708l3.719 6.11 3.734-6.11h1.219l-4.39 7.14v4.22h-1.126v-4.25l-4.39-7.11ZM334.195 132.068v-9.329l-4.14 7.22h-.657l-4.14-7.22v9.329h-1.125v-11.36h1.156l4.438 7.781 4.453-7.78h1.14v11.359ZM341.677 120.708h.953l4.719 11.36h-1.188l-1.468-3.547h-5.11l-1.453 3.547h-1.203Zm2.766 6.922-2.297-5.61-2.313 5.61Zm-2.188-8.469-.719-.28.954-1.485h1.14ZM355.615 122.833c-.324-.363-.75-.656-1.28-.875-.532-.226-1.141-.344-1.829-.344-1 0-1.73.196-2.187.579-.461.375-.688.886-.688 1.53 0 .345.063.626.188.845.125.218.312.414.562.578.258.156.586.293.984.406.407.117.88.234 1.422.36.602.124 1.145.273 1.625.437.489.156.907.355 1.25.594.344.242.602.53.782.875.187.336.28.761.28 1.28 0 .524-.105.977-.312 1.36-.199.375-.48.696-.843.953a3.785 3.785 0 0 1-1.297.578c-.5.114-1.047.172-1.64.172-1.763 0-3.282-.547-4.563-1.64l.562-.922c.195.219.438.43.719.625.281.187.594.355.937.5.352.137.727.246 1.125.328.395.086.813.125 1.25.125.907 0 1.61-.16 2.11-.484.508-.332.765-.829.765-1.485 0-.351-.074-.648-.218-.89a1.985 1.985 0 0 0-.657-.625 4.297 4.297 0 0 0-1.062-.454c-.43-.132-.922-.265-1.485-.39a15.69 15.69 0 0 1-1.578-.422 4.634 4.634 0 0 1-1.14-.563 2.267 2.267 0 0 1-.688-.812c-.156-.313-.234-.695-.234-1.156 0-.52.098-.985.297-1.39.195-.415.476-.759.843-1.032.364-.281.79-.488 1.282-.625a5.718 5.718 0 0 1 1.625-.219c.758 0 1.437.117 2.031.344.594.23 1.129.555 1.61.969ZM362.764 132.068v-11.36h3.859c.906 0 1.695.153 2.375.453.676.293 1.238.7 1.687 1.22.457.51.801 1.108 1.032 1.796.226.687.343 1.418.343 2.187 0 .868-.132 1.653-.39 2.36-.25.7-.617 1.297-1.094 1.797a4.823 4.823 0 0 1-1.703 1.14c-.668.274-1.418.407-2.25.407Zm8.171-5.704c0-.675-.093-1.3-.28-1.875a4.122 4.122 0 0 0-.845-1.484 3.772 3.772 0 0 0-1.359-.969c-.531-.226-1.14-.343-1.828-.343h-2.734v9.39h2.734c.707 0 1.328-.117 1.86-.36.538-.25.991-.581 1.359-1 .363-.413.632-.91.812-1.484.188-.57.281-1.195.281-1.875ZM381.841 131.083v.985h-7.64v-11.36h7.484v.985h-6.36v4.109h5.548v.937h-5.547v4.344ZM390.583 122.833c-.324-.363-.75-.656-1.281-.875-.531-.226-1.14-.344-1.828-.344-1 0-1.73.196-2.188.579-.46.375-.687.886-.687 1.53 0 .345.062.626.187.845.125.218.313.414.563.578.258.156.586.293.984.406.406.117.879.234 1.422.36.602.124 1.144.273 1.625.437.488.156.906.355 1.25.594.344.242.602.53.781.875.188.336.281.761.281 1.28 0 .524-.105.977-.312 1.36-.2.375-.48.696-.844.953a3.785 3.785 0 0 1-1.297.578c-.5.114-1.047.172-1.64.172-1.762 0-3.282-.547-4.563-1.64l.563-.922c.195.219.437.43.718.625.282.187.594.355.938.5.352.137.727.246 1.125.328.394.086.812.125 1.25.125.906 0 1.61-.16 2.11-.484.507-.332.765-.829.765-1.485 0-.351-.074-.648-.219-.89a1.985 1.985 0 0 0-.656-.625 4.297 4.297 0 0 0-1.063-.454c-.43-.132-.921-.265-1.484-.39a15.69 15.69 0 0 1-1.578-.422 4.634 4.634 0 0 1-1.14-.563 2.267 2.267 0 0 1-.688-.812c-.156-.313-.235-.695-.235-1.156 0-.52.098-.985.297-1.39.196-.415.477-.759.844-1.032.363-.281.79-.488 1.281-.625a5.718 5.718 0 0 1 1.625-.219c.758 0 1.438.117 2.032.344.593.23 1.128.555 1.609.969ZM392.902 126.302c0-.676.117-1.352.36-2.031a5.558 5.558 0 0 1 1.046-1.813 5.31 5.31 0 0 1 1.688-1.312c.676-.332 1.441-.5 2.297-.5 1.008 0 1.875.23 2.593.687.727.461 1.258 1.059 1.594 1.797l-.875.531a3.378 3.378 0 0 0-.672-.937 3.523 3.523 0 0 0-.843-.625 3.75 3.75 0 0 0-.922-.344 4.265 4.265 0 0 0-.938-.11c-.687 0-1.293.141-1.812.423-.524.28-.961.648-1.313 1.093-.355.45-.625.953-.812 1.516a5.44 5.44 0 0 0-.266 1.687c0 .637.11 1.243.328 1.813a5.27 5.27 0 0 0 .89 1.531c.376.438.821.793 1.345 1.063.52.261 1.082.39 1.687.39.32 0 .649-.039.984-.125.333-.082.657-.21.97-.39.32-.176.613-.395.874-.657a3.24 3.24 0 0 0 .672-.953l.938.485c-.188.43-.45.808-.782 1.14a4.95 4.95 0 0 1-1.093.828c-.407.22-.84.387-1.297.5-.45.114-.89.172-1.328.172a4.66 4.66 0 0 1-2.157-.5 5.589 5.589 0 0 1-1.672-1.343 6.16 6.16 0 0 1-1.093-1.875 6.033 6.033 0 0 1-.39-2.141ZM409.235 131.146c.719 0 1.312-.133 1.781-.407a3.36 3.36 0 0 0 1.14-1.078c.282-.445.477-.953.594-1.515a8.598 8.598 0 0 0 .172-1.703v-5.735h1.11v5.735c0 .761-.09 1.484-.266 2.171a5.325 5.325 0 0 1-.812 1.829 4.045 4.045 0 0 1-1.485 1.25c-.605.304-1.344.453-2.219.453-.898 0-1.652-.16-2.265-.485a4.09 4.09 0 0 1-1.485-1.28 5.513 5.513 0 0 1-.796-1.829 9.488 9.488 0 0 1-.235-2.11v-5.734h1.11v5.735c0 .593.054 1.171.171 1.734.114.562.313 1.062.594 1.5.281.437.656.793 1.125 1.062.469.274 1.055.407 1.766.407ZM424.343 131.083v.985h-7.64v-11.36h7.484v.985h-6.36v4.109h5.547v.937h-5.546v4.344ZM427.57 122.786v9.282h-1.126v-11.36h.86l7.53 9.453v-9.437h1.11v11.344h-.969ZM446.856 121.693h-4.047v10.375h-1.125v-10.375h-4.047v-.985h9.219ZM453.13 132.146c-.794 0-1.517-.16-2.173-.485a5.246 5.246 0 0 1-1.687-1.297 6.005 6.005 0 0 1-1.094-1.843 6.287 6.287 0 0 1-.375-2.14c0-.75.133-1.47.406-2.157a5.906 5.906 0 0 1 1.125-1.844 5.315 5.315 0 0 1 1.688-1.281 4.875 4.875 0 0 1 2.125-.469c.789 0 1.515.168 2.172.5a5.3 5.3 0 0 1 1.671 1.328 5.857 5.857 0 0 1 1.079 1.844 5.967 5.967 0 0 1-.016 4.281 6.073 6.073 0 0 1-1.125 1.828 5.212 5.212 0 0 1-1.688 1.266 4.795 4.795 0 0 1-2.109.469Zm-4.204-5.766c0 .625.098 1.227.297 1.797a5.17 5.17 0 0 0 .86 1.516c.374.437.816.793 1.327 1.062.52.262 1.094.39 1.719.39.633 0 1.211-.14 1.734-.421a4.132 4.132 0 0 0 1.329-1.094c.363-.445.644-.953.843-1.516.196-.562.297-1.14.297-1.734 0-.613-.105-1.203-.312-1.766-.211-.57-.5-1.078-.875-1.515a4.146 4.146 0 0 0-1.328-1.047 3.566 3.566 0 0 0-1.688-.406c-.637 0-1.219.14-1.75.422a4.205 4.205 0 0 0-1.328 1.078c-.356.449-.633.953-.828 1.515a5.117 5.117 0 0 0-.297 1.72ZM467.205 122.833c-.325-.363-.75-.656-1.282-.875-.53-.226-1.14-.344-1.828-.344-1 0-1.73.196-2.187.579-.461.375-.688.886-.688 1.53 0 .345.063.626.188.845.125.218.312.414.562.578.258.156.586.293.985.406.406.117.879.234 1.422.36.601.124 1.144.273 1.625.437.488.156.906.355 1.25.594.343.242.601.53.78.875.188.336.282.761.282 1.28 0 .524-.105.977-.312 1.36-.2.375-.48.696-.844.953a3.785 3.785 0 0 1-1.297.578c-.5.114-1.047.172-1.64.172-1.762 0-3.282-.547-4.563-1.64l.562-.922c.196.219.438.43.719.625.281.187.594.355.938.5.351.137.726.246 1.125.328.394.086.812.125 1.25.125.906 0 1.609-.16 2.109-.484.508-.332.766-.829.766-1.485 0-.351-.075-.648-.22-.89a1.985 1.985 0 0 0-.655-.625 4.297 4.297 0 0 0-1.063-.454c-.43-.132-.922-.265-1.484-.39a15.69 15.69 0 0 1-1.578-.422 4.634 4.634 0 0 1-1.141-.563 2.267 2.267 0 0 1-.688-.812c-.156-.313-.234-.695-.234-1.156 0-.52.098-.985.297-1.39.195-.415.476-.759.844-1.032.363-.281.789-.488 1.28-.625a5.718 5.718 0 0 1 1.626-.219c.758 0 1.437.117 2.031.344.594.23 1.13.555 1.61.969ZM474.353 132.068v-11.36h1.125v11.36ZM488.382 132.068v-9.329l-4.14 7.22h-.657l-4.14-7.22v9.329h-1.125v-11.36h1.156l4.438 7.781 4.453-7.78h1.14v11.359ZM492.348 132.068v-11.36h4.704c.488 0 .937.106 1.343.313.414.21.77.48 1.063.812.3.336.535.715.703 1.14.176.43.266.86.266 1.298 0 .468-.079.922-.235 1.36-.156.429-.383.808-.672 1.14a3.45 3.45 0 0 1-1.047.812c-.398.2-.84.297-1.328.297h-3.672v4.188Zm1.125-5.188h3.625c.332 0 .633-.066.907-.203.27-.145.5-.336.687-.578.195-.25.348-.531.453-.844.114-.312.172-.64.172-.984s-.062-.672-.187-.985a2.694 2.694 0 0 0-.5-.828 2.335 2.335 0 0 0-.735-.562 2.064 2.064 0 0 0-.89-.203h-3.532ZM509.939 131.083v.985h-7.641v-11.36h7.484v.985h-6.359v4.109h5.547v.937h-5.547v4.344ZM512.04 132.068v-11.36h4.797c.488 0 .937.106 1.343.313.414.21.774.48 1.078.812.301.336.532.715.688 1.14.164.43.25.86.25 1.298 0 .418-.063.82-.188 1.203a3.47 3.47 0 0 1-.5 1.015 3.032 3.032 0 0 1-.796.766 2.72 2.72 0 0 1-1.032.422l2.782 4.39h-1.266l-2.672-4.187h-3.36v4.188Zm1.125-5.188h3.703c.332 0 .633-.066.906-.203.27-.145.5-.344.688-.594.195-.25.347-.523.453-.828.113-.312.172-.64.172-.984a2.59 2.59 0 0 0-.188-.969 2.694 2.694 0 0 0-.5-.828 2.335 2.335 0 0 0-.734-.563 1.924 1.924 0 0 0-.89-.218h-3.61ZM522.485 132.068v-11.36h3.86c.906 0 1.695.153 2.375.453.675.293 1.238.7 1.687 1.22.457.51.8 1.108 1.031 1.796.227.687.344 1.418.344 2.187 0 .868-.133 1.653-.39 2.36-.25.7-.618 1.297-1.094 1.797a4.823 4.823 0 0 1-1.703 1.14c-.668.274-1.418.407-2.25.407Zm8.172-5.704c0-.675-.094-1.3-.281-1.875a4.122 4.122 0 0 0-.844-1.484 3.772 3.772 0 0 0-1.36-.969c-.53-.226-1.14-.343-1.827-.343h-2.735v9.39h2.735c.707 0 1.328-.117 1.859-.36.539-.25.992-.581 1.36-1 .363-.413.632-.91.812-1.484.187-.57.281-1.195.281-1.875ZM533.922 132.068v-11.36h1.125v11.36ZM546.436 129.146c0 .43-.09.82-.265 1.172a2.865 2.865 0 0 1-.688.921 3.017 3.017 0 0 1-1 .61 3.408 3.408 0 0 1-1.234.219h-5.36v-11.36h5.47c.394 0 .753.09 1.077.266.32.168.594.387.813.656.226.274.398.586.515.938a3 3 0 0 1 .188 1.03c0 .587-.148 1.118-.438 1.595-.28.468-.68.82-1.187 1.046.644.2 1.156.56 1.531 1.079.383.523.578 1.132.578 1.828Zm-1.125-.203c0-.27-.047-.536-.14-.797a2.135 2.135 0 0 0-.407-.688 2.296 2.296 0 0 0-.625-.484 1.671 1.671 0 0 0-.78-.188h-4.345v4.313h4.235c.289 0 .562-.055.812-.172.25-.125.47-.285.657-.484a2.21 2.21 0 0 0 .594-1.5Zm-6.297-7.266v4.203h3.907c.27 0 .523-.055.765-.172a2.105 2.105 0 0 0 1.016-1.14 2.05 2.05 0 0 0 .156-.782c0-.289-.047-.562-.14-.812a2.111 2.111 0 0 0-.391-.672 2.05 2.05 0 0 0-.594-.453 1.549 1.549 0 0 0-.719-.172ZM548.543 132.068v-11.36h1.125v10.375h6.562v.985ZM565.51 131.083v.985h-7.641v-11.36h7.484v.985h-6.36v4.109h5.548v.937h-5.547v4.344ZM574.25 122.833c-.323-.363-.75-.656-1.28-.875-.532-.226-1.14-.344-1.828-.344-1 0-1.73.196-2.188.579-.46.375-.687.886-.687 1.53 0 .345.062.626.187.845.125.218.313.414.563.578.257.156.585.293.984.406.406.117.879.234 1.422.36.601.124 1.144.273 1.625.437.488.156.906.355 1.25.594.344.242.601.53.781.875.188.336.281.761.281 1.28 0 .524-.105.977-.312 1.36-.2.375-.48.696-.844.953a3.785 3.785 0 0 1-1.297.578c-.5.114-1.047.172-1.64.172-1.762 0-3.282-.547-4.563-1.64l.563-.922c.195.219.437.43.718.625.282.187.594.355.938.5.351.137.726.246 1.125.328.394.086.812.125 1.25.125.906 0 1.61-.16 2.11-.484.507-.332.765-.829.765-1.485 0-.351-.074-.648-.219-.89a1.985 1.985 0 0 0-.656-.625 4.297 4.297 0 0 0-1.063-.454c-.43-.132-.922-.265-1.484-.39a15.69 15.69 0 0 1-1.578-.422 4.634 4.634 0 0 1-1.14-.563 2.267 2.267 0 0 1-.688-.812c-.157-.313-.235-.695-.235-1.156 0-.52.098-.985.297-1.39.195-.415.477-.759.844-1.032.363-.281.789-.488 1.281-.625a5.718 5.718 0 0 1 1.625-.219c.758 0 1.438.117 2.031.344.594.23 1.13.555 1.61.969ZM577.367 128.427v-7.828h1.094v7.828Zm0 3.64v-1.796h1.094v1.797Zm0 0"/><g clip-path="url(#h)"><g clip-path="url(#i)"><path fill="#fff" d="M944.633 115.563v45.18h-65.258v-45.18Zm0 0"/></g></g><path d="M895.972 133.873c-.992-.18-1.605-.54-1.844-1.094-.25-.55-.156-1.352.282-2.406l.422-1.032 2.156.36-.531 1.312c-.22.524-.157.813.187.875.195.031.36 0 .484-.094.125-.093.239-.273.344-.546.145-.344.219-.633.219-.875a1.56 1.56 0 0 0-.094-.625 7.663 7.663 0 0 0-.39-.829l-.579-1.078c-.449-.812-.5-1.64-.156-2.484.375-.895.875-1.54 1.5-1.938.633-.406 1.367-.539 2.203-.406.989.168 1.598.543 1.828 1.125.227.586.114 1.406-.343 2.469l-2.25-.375.297-.719c.05-.144.054-.265.015-.36-.043-.093-.133-.155-.265-.187a.651.651 0 0 0-.47.078.767.767 0 0 0-.28.36c-.149.344-.09.734.171 1.172l.797 1.406c.188.324.32.633.407.922.093.281.128.605.109.969-.023.355-.125.773-.313 1.25-.437 1.03-.968 1.789-1.593 2.265-.617.477-1.387.64-2.313.485ZM901.907 134.868c-.875-.156-1.446-.53-1.703-1.125-.25-.601-.176-1.379.218-2.328l2.11-5.062c.375-.895.89-1.535 1.547-1.922.656-.395 1.43-.516 2.328-.36.883.149 1.457.493 1.719 1.032.27.543.218 1.265-.157 2.172l-2.093 5.062c-.399.95-.934 1.649-1.61 2.094-.68.437-1.465.582-2.36.437Zm.812-1.953a.529.529 0 0 0 .5-.172 2.65 2.65 0 0 0 .39-.672l2.157-5.203c.094-.218.14-.406.14-.562 0-.164-.105-.266-.312-.297-.355-.063-.648.18-.875.719l-2.156 5.172c-.125.293-.184.527-.172.703.008.168.117.273.328.312ZM905.569 135.371l4.39-10.61 2.203.376-3.64 8.797 2.265.39-.734 1.797ZM913.244 136.776c-.875-.157-1.445-.532-1.703-1.125-.25-.602-.176-1.38.219-2.329l2.109-5.062c.375-.895.89-1.535 1.547-1.922.656-.395 1.43-.516 2.328-.36.883.15 1.457.493 1.719 1.032.27.543.218 1.266-.157 2.172l-2.093 5.062c-.399.95-.934 1.649-1.61 2.094-.68.438-1.464.582-2.359.438Zm.812-1.954a.529.529 0 0 0 .5-.171 2.65 2.65 0 0 0 .391-.672l2.156-5.203c.094-.22.141-.407.141-.563 0-.164-.105-.266-.313-.297-.355-.062-.648.18-.875.719l-2.156 5.172c-.125.293-.183.527-.172.703.008.168.118.273.328.312ZM887.477 134.25l2.922.484c.883.156 1.394.539 1.53 1.14.145.606.005 1.446-.42 2.516-.438 1.031-.938 1.793-1.5 2.281-.556.48-1.263.649-2.126.5l-.89-.14-1.735 4.187-2.172-.36Zm.422 4.89c.27.043.484.027.64-.047.164-.07.301-.191.407-.36.113-.175.25-.429.406-.765.187-.437.265-.765.234-.984-.023-.219-.183-.352-.484-.406l-.25-.047-1.078 2.594ZM891.725 146.425c-.875-.156-1.446-.531-1.704-1.125-.25-.601-.175-1.379.22-2.328l2.109-5.062c.375-.895.89-1.536 1.546-1.922.657-.395 1.43-.516 2.329-.36.882.149 1.457.493 1.718 1.032.27.543.219 1.265-.156 2.171l-2.094 5.063c-.398.95-.933 1.648-1.61 2.094-.679.437-1.464.582-2.358.437Zm.812-1.953a.529.529 0 0 0 .5-.172 2.65 2.65 0 0 0 .39-.672l2.157-5.203c.094-.219.14-.406.14-.562 0-.164-.105-.266-.312-.297-.355-.063-.648.18-.875.719l-2.156 5.171c-.125.293-.184.528-.172.704.008.168.117.273.328.312ZM899.777 136.319l3.39.578c.551.086.922.273 1.11.562.195.282.258.649.187 1.094-.074.438-.246.984-.515 1.64-.262.594-.543 1.048-.844 1.36-.293.305-.668.492-1.125.563.3.117.473.312.516.593.039.282-.028.649-.203 1.094l-1.688 4-2.156-.36 1.703-4.156c.133-.289.156-.488.062-.593-.085-.102-.28-.18-.593-.235l-2 4.844-2.235-.375Zm1.156 4.39c.301.055.586-.242.86-.89.113-.27.187-.473.218-.61.032-.144.02-.25-.03-.312-.044-.07-.134-.117-.267-.14l-.5-.095-.812 1.954ZM904.515 148.464l4.39-10.61 2.204.375-1.594 3.782 1.047.171 1.578-3.78 2.203.359-4.39 10.609-2.203-.36 2-4.812-1.032-.172-2 4.797ZM913.5 150.088c-.875-.156-1.445-.53-1.703-1.125-.25-.601-.176-1.378.219-2.328l2.11-5.062c.374-.895.89-1.535 1.546-1.922.656-.395 1.43-.516 2.328-.36.883.149 1.457.493 1.719 1.032.27.543.219 1.265-.156 2.172l-2.094 5.062c-.399.95-.934 1.649-1.61 2.094-.68.437-1.464.582-2.359.437Zm.813-1.953a.529.529 0 0 0 .5-.172 2.65 2.65 0 0 0 .39-.671l2.157-5.204c.093-.218.14-.406.14-.562 0-.164-.105-.266-.312-.297-.356-.062-.649.18-.875.719l-2.157 5.172c-.125.293-.183.527-.171.703.007.168.117.273.328.312ZM918.49 150.81l1.438-3.5 1.203-7.406 2.172.375-.891 3.703 2.125-3.5 2.187.375-4.718 6.797-1.438 3.5Zm0 0"/><g clip-path="url(#j)"><g clip-path="url(#k)"><g clip-path="url(#l)"><g clip-path="url(#m)"><path d="m932.328 147.543 1.313.277 1.183.25 5.203-19.246-2.28-.48-1.313-.278-2.278-.48-3.015 19.707Zm0 0"/></g></g></g></g><g clip-path="url(#n)"><g clip-path="url(#o)"><g clip-path="url(#p)"><g clip-path="url(#q)"><path d="M935.02 151.578a2.72 2.72 0 0 1-1.203 1.734 2.799 2.799 0 0 1-2.102.383 2.857 2.857 0 0 1-1.004-.425 2.762 2.762 0 0 1-.762-.774 2.72 2.72 0 0 1 .024-3.059c.21-.3.468-.55.777-.746.309-.199.648-.332 1.012-.398a2.843 2.843 0 0 1 2.093.441c.305.207.56.465.762.774a2.72 2.72 0 0 1 .403 2.07Zm0 0"/></g></g></g></g><path fill="#fff" d="M139.319 208.236h-1.125v-11.203h1.578l2.593 8.093v-8.093h1.11v11.203h-1.297l-2.86-9.063ZM145.94 205.595c0 .512.1.906.312 1.188.207.28.539.421 1 .421.445 0 .773-.14.984-.421.207-.282.313-.676.313-1.188v-8.562h1.156v8.5c0 .855-.203 1.543-.61 2.062-.398.512-1.027.766-1.89.766-.856 0-1.485-.254-1.89-.766-.407-.52-.61-1.207-.61-2.062v-8.5h1.234ZM154.927 202.001v1.11h-2.735v3.984h3.36v1.14h-4.61v-11.202h4.61v1.14h-3.36v3.828ZM157.638 197.033l1.828 9.75 1.813-9.75h1.156l-2.11 11.203h-1.827l-2.125-11.203ZM164.653 205.986l-.438 2.25h-1.156l2.156-11.203h1.797l2.156 11.203h-1.25l-.437-2.25Zm.156-1.078h2.5l-1.266-6.47ZM174.96 196.923c.852 0 1.485.258 1.891.766.407.5.61 1.18.61 2.031v.313h-1.188v-.375c0-.508-.101-.899-.297-1.172-.199-.282-.523-.422-.968-.422-.45 0-.778.14-.985.422-.199.273-.297.656-.297 1.156 0 .418.086.781.266 1.094.187.304.422.59.703.86.281.26.582.515.906.765.32.25.618.527.891.828.281.293.516.633.703 1.015.188.375.281.825.281 1.344 0 .856-.21 1.54-.625 2.047-.406.5-1.043.75-1.906.75-.855 0-1.484-.25-1.89-.75-.407-.508-.61-1.191-.61-2.047v-.64h1.156v.703c0 .511.102.906.313 1.187.219.274.55.406 1 .406.445 0 .773-.132.984-.406.219-.281.328-.676.328-1.187 0-.414-.093-.774-.28-1.078-.18-.301-.407-.582-.688-.844a15.05 15.05 0 0 0-.907-.766c-.312-.258-.609-.535-.89-.828-.274-.3-.5-.64-.688-1.016-.187-.382-.281-.835-.281-1.359 0-.863.203-1.547.61-2.047.406-.5 1.023-.75 1.859-.75ZM179.755 205.595c0 .512.102.906.313 1.188.207.28.539.421 1 .421.445 0 .773-.14.984-.421.207-.282.312-.676.312-1.188v-8.562h1.157v8.5c0 .855-.203 1.543-.61 2.062-.398.512-1.027.766-1.89.766-.856 0-1.485-.254-1.891-.766-.406-.52-.61-1.207-.61-2.062v-8.5h1.235ZM187.211 197.033c.883 0 1.52.246 1.906.734.395.48.594 1.148.594 2v1.344c0 .898-.21 1.574-.625 2.031-.418.45-1.078.672-1.984.672h-1.094v4.422h-1.25v-11.203Zm-.11 5.671c.477 0 .829-.113 1.048-.343.226-.227.343-.617.343-1.172v-1.485c0-.507-.101-.89-.296-1.14-.2-.258-.528-.39-.985-.39h-1.203v4.53ZM194.725 202.001v1.11h-2.734v3.984h3.359v1.14h-4.61v-11.202h4.61v1.14h-3.36v3.828ZM199 197.033c.882 0 1.519.218 1.905.656.383.437.579 1.074.579 1.906v.906c0 .625-.118 1.133-.344 1.516-.219.387-.57.652-1.047.797.52.148.883.422 1.094.828.207.398.312.898.312 1.5v1.75c0 .25.008.492.031.719.032.23.098.437.204.625h-1.266a1.936 1.936 0 0 1-.156-.516 5.575 5.575 0 0 1-.047-.844v-1.765c0-.625-.149-1.055-.438-1.297-.28-.238-.683-.36-1.203-.36h-.875v4.782h-1.25v-11.203Zm-.329 5.28c.5 0 .89-.1 1.172-.312.281-.207.422-.613.422-1.218v-1.079c0-.507-.102-.89-.297-1.14-.2-.258-.531-.39-1-.39h-1.219v4.14ZM205.187 199.736c0-.864.207-1.547.625-2.047.426-.508 1.07-.766 1.938-.766.863 0 1.508.258 1.937.766.426.5.641 1.183.641 2.047v5.797c0 .855-.215 1.539-.64 2.046-.43.512-1.075.766-1.938.766-.867 0-1.512-.254-1.938-.766-.418-.507-.625-1.19-.625-2.046Zm1.235 5.86c0 .51.11.905.328 1.187.219.28.55.421 1 .421.457 0 .789-.14 1-.421.219-.282.328-.676.328-1.188v-5.922c0-.508-.11-.906-.328-1.187-.211-.282-.543-.422-1-.422-.45 0-.781.14-1 .422-.219.281-.328.68-.328 1.187ZM215.332 202.251v1.141h-2.578v4.844h-1.25v-11.203h4.453v1.14h-3.203v4.078ZM220.927 202.001v1.11h-2.735v3.984h3.36v1.14h-4.61v-11.202h4.61v1.14h-3.36v3.828ZM225.2 197.033c.884 0 1.52.218 1.907.656.383.437.578 1.074.578 1.906v.906c0 .625-.117 1.133-.343 1.516-.22.387-.57.652-1.047.797.52.148.882.422 1.093.828.207.398.313.898.313 1.5v1.75c0 .25.008.492.031.719.031.23.098.437.203.625h-1.265a1.936 1.936 0 0 1-.157-.516 5.575 5.575 0 0 1-.046-.844v-1.765c0-.625-.149-1.055-.438-1.297-.281-.238-.684-.36-1.203-.36h-.875v4.782h-1.25v-11.203Zm-.327 5.28c.5 0 .89-.1 1.172-.312.28-.207.422-.613.422-1.218v-1.079c0-.507-.102-.89-.297-1.14-.2-.258-.532-.39-1-.39h-1.22v4.14ZM230.628 208.236v-10.063h-2.062v-1.14h5.375v1.14h-2.063v10.063ZM236.076 205.986l-.438 2.25h-1.156l2.156-11.203h1.797l2.156 11.203h-1.25l-.437-2.25Zm.156-1.078h2.5l-1.266-6.47Zm0 0"/><path fill="none" stroke="#fff" stroke-width="2.031" d="M138.613 138.102v4.617h-10.472v19.691h-5.063v-45.492h18.074v4.617h-13.011v16.567Zm16.703-21.184c3.598 0 6.184.887 7.762 2.664 1.586 1.777 2.379 4.356 2.379 7.73v3.711c0 2.508-.457 4.543-1.363 6.11-.91 1.555-2.344 2.637-4.301 3.238 2.082.613 3.559 1.734 4.426 3.363.867 1.618 1.3 3.66 1.3 6.125v7.094c0 .992.044 1.957.13 2.887.081.933.343 1.789.777 2.57H161.3a8.225 8.225 0 0 1-.668-2.11c-.13-.76-.192-1.898-.192-3.41v-7.156c0-2.55-.574-4.312-1.73-5.285-1.14-.984-2.77-1.476-4.887-1.476h-3.586v19.437h-5.062v-45.492Zm-1.3 21.437c2.03 0 3.605-.417 4.73-1.253 1.129-.848 1.695-2.508 1.695-4.98v-4.349c0-2.085-.402-3.644-1.207-4.683-.793-1.035-2.14-1.555-4.043-1.555h-4.953v16.82Zm21.832-21.437v45.492h-5.063v-45.492Zm15.867 0c3.547 0 6.152 1.012 7.824 3.031 1.672 2.008 2.508 4.77 2.508 8.281v22.93c0 3.512-.836 6.27-2.508 8.27-1.672 1.988-4.277 2.98-7.824 2.98h-10.66v-45.492Zm-.078 40.875c1.832 0 3.183-.55 4.062-1.648.887-1.114 1.332-2.704 1.332-4.778v-23.406c0-2.074-.445-3.66-1.332-4.758-.879-1.113-2.254-1.668-4.125-1.668h-5.46v36.258Zm20.277-4.555-1.746 9.172h-4.68l8.711-45.492h7.348l8.695 45.492h-5.062l-1.762-9.172Zm.652-4.347h10.141l-5.125-26.262Zm29.711-2.793-9.617-29.18h5.254l7.094 22.36 7.14-22.36h4.809l-9.68 29.18v16.312h-5Zm0 0"/><g clip-path="url(#r)"><g clip-path="url(#s)"><path fill="#fff" d="M721.004 26.273H837.02v99.141H721.004Zm0 0"/></g></g><path d="m753.885 49.726 4.046-17.531h3.485l-1.438 6.265h1.641l1.453-6.265h3.484l-4.03 17.531h-3.5l1.843-7.953h-1.656l-1.828 7.953ZM763.595 49.726l5.735-17.531h5.937l-2.36 17.531h-3.327l.406-2.844h-2.125l-.86 2.844Zm5.188-5.625h1.594l1.265-8.922h-.172ZM778.083 49.882c-1.594 0-2.652-.39-3.172-1.172-.52-.789-.578-2.066-.172-3.828l.39-1.703h3.438l-.5 2.188c-.21.867-.031 1.297.532 1.297.312 0 .55-.086.718-.266.164-.188.301-.5.407-.938.132-.57.171-1.046.109-1.421-.055-.375-.152-.688-.297-.938-.148-.25-.434-.64-.86-1.172l-1.156-1.515c-.906-1.133-1.203-2.395-.89-3.782.344-1.5.945-2.64 1.812-3.422.875-.78 1.973-1.171 3.297-1.171 1.57 0 2.61.417 3.11 1.25.507.835.554 2.14.14 3.921h-3.578l.266-1.203c.05-.226.03-.41-.063-.547-.094-.132-.258-.203-.484-.203-.274 0-.496.078-.672.235-.18.148-.297.351-.36.609-.136.563.055 1.152.579 1.766l1.593 1.968c.364.461.657.899.875 1.313.22.418.36.906.422 1.469.063.562.004 1.234-.172 2.015-.406 1.719-1.03 3.028-1.875 3.922-.836.887-1.98 1.328-3.437 1.328ZM784.862 49.726l3.266-14.156h-2.078l.765-3.375h7.672l-.765 3.375h-2.079l-3.265 14.156ZM790.972 49.726l5.734-17.531h5.938l-2.36 17.531h-3.328l.406-2.844h-2.125l-.86 2.844Zm5.187-5.625h1.594l1.266-8.922h-.172ZM748.25 90.587c-2.75 0-4.586-.719-5.5-2.156-.926-1.445-1.051-3.656-.375-6.625l.765-3.281h6.422l-.765 3.28c-.22.95-.274 1.684-.157 2.204.125.523.551.781 1.282.781.507 0 .921-.18 1.234-.547.32-.363.566-.789.734-1.28.176-.5.375-1.224.594-2.173l.14-.765c.634-2.696.063-4.047-1.718-4.047a3.76 3.76 0 0 0-.61.031l1.266-5.61c1.125 0 2.024-.25 2.703-.75.676-.5 1.141-1.296 1.391-2.39.406-1.77.098-2.656-.922-2.656-.625 0-1.07.164-1.328.484-.25.313-.465.715-.64 1.203-.169.48-.29.828-.36 1.047l-.219.953h-6.484l.219-1.094c.675-2.875 1.836-4.984 3.484-6.328 1.656-1.351 3.867-2.03 6.64-2.03 5.32 0 7.337 2.788 6.047 8.358-.386 1.625-.906 2.918-1.562 3.875-.656.961-1.57 1.633-2.734 2.016.78.438 1.312.98 1.593 1.625.282.649.375 1.434.282 2.36-.086.917-.293 2.156-.625 3.718-.762 3.23-2.012 5.672-3.75 7.328-1.73 1.649-4.079 2.47-7.047 2.47ZM766.662 90.665c-2.512 0-4.36-.613-5.547-1.844-1.187-1.226-1.504-3.046-.953-5.453l1.063-4.625h6.53l-.624 2.657c-.242 1.074-.324 1.918-.25 2.53.07.606.445.907 1.125.907.633 0 1.113-.207 1.437-.625.332-.414.594-1.023.782-1.828l1.422-6.156c.218-1 .296-1.797.234-2.39-.055-.595-.406-.892-1.063-.892-1.199 0-2 .868-2.406 2.594h-5.734l3.875-16.656h14.906l-1.39 5.86h-8.97l-.984 4.421c.395-.414.895-.754 1.5-1.015a4.694 4.694 0 0 1 1.938-.407c2.625 0 4.195.922 4.719 2.766.52 1.844.39 4.453-.391 7.828-.625 2.805-1.34 5.074-2.14 6.813-.805 1.73-1.93 3.086-3.376 4.062-1.449.969-3.351 1.453-5.703 1.453ZM787.434 90.228l16.922-31.453h5.75L793.2 90.228Zm-1.86-9.407c-2.187 0-3.742-.664-4.656-2-.906-1.343-1.09-3.164-.547-5.468l1.485-6.453c.562-2.407 1.566-4.243 3.015-5.516 1.446-1.281 3.32-1.922 5.625-1.922 2.333 0 3.938.64 4.813 1.922.875 1.273 1.035 3.11.484 5.516l-1.5 6.453c-.53 2.304-1.562 4.125-3.093 5.468-1.532 1.336-3.407 2-5.625 2Zm1.094-4.671c.47 0 .899-.164 1.297-.5.406-.344.664-.758.781-1.25l1.97-8.625c.195-.782.222-1.352.077-1.72-.148-.362-.547-.546-1.203-.546s-1.136.184-1.437.547c-.305.367-.555.937-.75 1.719l-1.969 8.625c-.125.492-.07.906.172 1.25.25.336.601.5 1.062.5Zm19.766 14.406c-2.188 0-3.742-.672-4.656-2.016-.907-1.351-1.094-3.172-.563-5.453l1.5-6.5c.551-2.426 1.551-4.27 3-5.531 1.446-1.258 3.336-1.89 5.672-1.89 2.313 0 3.906.636 4.781 1.905.875 1.274 1.032 3.11.47 5.516l-1.5 6.5c-.532 2.281-1.571 4.102-3.11 5.453-1.543 1.344-3.407 2.016-5.594 2.016Zm1.094-4.672c.457 0 .879-.164 1.265-.5a2.34 2.34 0 0 0 .766-1.25l2.016-8.672c.164-.781.18-1.351.046-1.719-.136-.363-.53-.547-1.187-.547-.656 0-1.14.196-1.453.579-.313.375-.559.937-.735 1.687l-2 8.672c-.125.492-.062.906.188 1.25.258.336.625.5 1.094.5ZM757.205 119.691c-1.813 0-3.06-.547-3.735-1.64-.687-1.102-.797-2.657-.328-4.657l2.438-10.656c.457-1.926 1.265-3.379 2.421-4.36 1.164-.976 2.649-1.468 4.454-1.468 1.812 0 3.07.492 3.78 1.469.72.98.848 2.433.391 4.36l-2.453 10.655c-.468 2.012-1.297 3.563-2.484 4.657-1.188 1.093-2.684 1.64-4.484 1.64Zm.937-4.11c.395 0 .703-.17.922-.515.226-.351.414-.843.562-1.468l2.516-10.938c.102-.488.129-.883.078-1.187-.055-.301-.277-.454-.672-.454-.75 0-1.258.563-1.515 1.688l-2.516 10.922c-.156.648-.2 1.137-.125 1.469.082.324.332.484.75.484ZM764.564 119.488l5.156-22.375h8.969l-1 4.344h-4.453l-.828 3.578h4.218l-.984 4.297h-4.219l-2.343 10.156ZM774.954 119.488l5.157-22.375h8.968l-1 4.344h-4.453l-.828 3.578h4.219l-.984 4.297h-4.22l-2.343 10.156Zm0 0"/></svg>