<svg xmlns="http://www.w3.org/2000/svg" xmlns:xlink="http://www.w3.org/1999/xlink" width="1349" zoomAndPan="magnify" viewBox="0 0 1011.75 225" height="300" preserveAspectRatio="xMidYMid meet" version="1.0"><defs><filter x="0%" y="0%" width="100%" height="100%" id="f302a5f45c"><feColorMatrix values="0 0 0 0 1 0 0 0 0 1 0 0 0 0 1 0 0 0 1 0" color-interpolation-filters="sRGB"/></filter><g/><clipPath id="372b6c4571"><path d="M 0 0.0273438 L 1011.5 0.0273438 L 1011.5 224.972656 L 0 224.972656 Z M 0 0.0273438 " clip-rule="nonzero"/></clipPath><clipPath id="a39b165889"><path d="M 703 0.0273438 L 1011.5 0.0273438 L 1011.5 224.972656 L 703 224.972656 Z M 703 0.0273438 " clip-rule="nonzero"/></clipPath><mask id="68c1c5827d"><g filter="url(#f302a5f45c)"><rect x="-101.175" width="1214.1" fill="#000000" y="-22.5" height="270" fill-opacity="0.6784"/></g></mask><clipPath id="3a20c66901"><path d="M 0.535156 0.0273438 L 308.5 0.0273438 L 308.5 224.972656 L 0.535156 224.972656 Z M 0.535156 0.0273438 " clip-rule="nonzero"/></clipPath><clipPath id="07af501ac3"><path d="M 81.316406 225.023438 L 454.320312 225.023438 L 454.320312 0.0234375 L 0.535156 0.0234375 L 81.316406 225.023438 " clip-rule="nonzero"/></clipPath><clipPath id="600f3bf8ec"><rect x="0" width="309" y="0" height="225"/></clipPath><clipPath id="d4e6a254e1"><path d="M 879 115.5625 L 944.632812 115.5625 L 944.632812 161 L 879 161 Z M 879 115.5625 " clip-rule="nonzero"/></clipPath><clipPath id="79ef523d29"><path d="M 944.632812 127.039062 L 944.632812 160.789062 L 879.046875 149.3125 L 879.046875 115.5625 L 944.632812 127.039062 " clip-rule="nonzero"/></clipPath><clipPath id="efbc08cee0"><path d="M 931 127 L 941 127 L 941 149 L 931 149 Z M 931 127 " clip-rule="nonzero"/></clipPath><clipPath id="0cc122eb5f"><path d="M 934.175781 127.488281 L 940.046875 128.726562 L 934.628906 154.410156 L 928.757812 153.171875 Z M 934.175781 127.488281 " clip-rule="nonzero"/></clipPath><clipPath id="83b5b73db9"><path d="M 934.175781 127.488281 L 940.046875 128.726562 L 934.628906 154.410156 L 928.757812 153.171875 Z M 934.175781 127.488281 " clip-rule="nonzero"/></clipPath><clipPath id="cc60b091a9"><path d="M 934.175781 127.488281 L 940.046875 128.726562 L 934.628906 154.410156 L 928.757812 153.171875 Z M 934.175781 127.488281 " clip-rule="nonzero"/></clipPath><clipPath id="f7f4618b7b"><path d="M 929 148 L 936 148 L 936 154 L 929 154 Z M 929 148 " clip-rule="nonzero"/></clipPath><clipPath id="f163bde2bc"><path d="M 934.175781 127.488281 L 940.046875 128.726562 L 934.628906 154.410156 L 928.757812 153.171875 Z M 934.175781 127.488281 " clip-rule="nonzero"/></clipPath><clipPath id="27bb5a8757"><path d="M 934.175781 127.488281 L 940.046875 128.726562 L 934.628906 154.410156 L 928.757812 153.171875 Z M 934.175781 127.488281 " clip-rule="nonzero"/></clipPath><clipPath id="8da528cdcf"><path d="M 934.175781 127.488281 L 940.046875 128.726562 L 934.628906 154.410156 L 928.757812 153.171875 Z M 934.175781 127.488281 " clip-rule="nonzero"/></clipPath><clipPath id="7f574c5943"><path d="M 721.003906 26.273438 L 837 26.273438 L 837 126 L 721.003906 126 Z M 721.003906 26.273438 " clip-rule="nonzero"/></clipPath><clipPath id="2b87c1cdfd"><path d="M 737.878906 26.273438 L 836.683594 26.273438 L 819.808594 125.609375 L 721.003906 125.609375 L 737.878906 26.273438 " clip-rule="nonzero"/></clipPath></defs><g clip-path="url(#372b6c4571)"><path fill="#ffffff" d="M 0 0.0273438 L 1011.75 0.0273438 L 1011.75 225.027344 L 0 225.027344 Z M 0 0.0273438 " fill-opacity="1" fill-rule="nonzero"/><path fill="#000000" d="M 0 0.0273438 L 1011.75 0.0273438 L 1011.75 225.027344 L 0 225.027344 Z M 0 0.0273438 " fill-opacity="1" fill-rule="nonzero"/></g><g clip-path="url(#a39b165889)"><g mask="url(#68c1c5827d)"><g transform="matrix(1, 0, 0, 1, 703, -0.000000000000031856)"><g clip-path="url(#600f3bf8ec)"><g clip-path="url(#3a20c66901)"><g clip-path="url(#07af501ac3)"><path fill="#23b98c" d="M 0.535156 225.023438 L 0.535156 -0.128906 L 454.492188 -0.128906 L 454.492188 225.023438 Z M 0.535156 225.023438 " fill-opacity="1" fill-rule="nonzero"/></g></g></g></g></g></g><path stroke-linecap="butt" transform="matrix(0.749809, -0.000000000000000005, 0.000000000000000005, 0.75, 70.279296, 26.274494)" fill="none" stroke-linejoin="miter" d="M -0.00260379 2.498592 L 1168.309982 2.498592 " stroke="#ffffff" stroke-width="5" stroke-opacity="1" stroke-miterlimit="4"/><path stroke-linecap="butt" transform="matrix(0.746888, 0.000000000000000564, -0.000000000000000566, 0.75, 68.404299, 201.110689)" fill="none" stroke-linejoin="miter" d="M 0.0026126 2.498248 L 75.32558 2.498248 " stroke="#ffffff" stroke-width="5" stroke-opacity="1" stroke-miterlimit="4"/><path stroke-linecap="butt" transform="matrix(0.750013, 0.000247259, -0.000247255, 0.75, 252.024463, 199.006755)" fill="none" stroke-linejoin="miter" d="M -0.000542815 2.501411 L 925.983876 2.498216 " stroke="#ffffff" stroke-width="5" stroke-opacity="1" stroke-miterlimit="4"/><path stroke-linecap="butt" transform="matrix(0.000000000000000046, 0.749655, -0.75, 0.000000000000000046, 70.277209, 26.276573)" fill="none" stroke-linejoin="miter" d="M 0.00102774 2.49982 L 238.115651 2.49982 " stroke="#ffffff" stroke-width="5" stroke-opacity="1" stroke-miterlimit="4"/><path stroke-linecap="butt" transform="matrix(0.000000000000000046, 0.748544, -0.75, 0.000000000000000046, 946.508242, 26.278243)" fill="none" stroke-linejoin="miter" d="M -0.00120108 2.500572 L 233.462382 2.500572 " stroke="#ffffff" stroke-width="5" stroke-opacity="1" stroke-miterlimit="4"/><g fill="#ffffff" fill-opacity="1"><g transform="translate(125.809591, 94.894359)"><g><path d="M 13.390625 -45.5 C 17.117188 -45.5 19.816406 -44.628906 21.484375 -42.890625 C 23.148438 -41.160156 23.984375 -38.539062 23.984375 -35.03125 L 23.984375 -33.40625 C 23.984375 -31.070312 23.613281 -29.144531 22.875 -27.625 C 22.144531 -26.101562 20.976562 -24.976562 19.375 -24.25 C 21.320312 -23.507812 22.695312 -22.304688 23.5 -20.640625 C 24.300781 -18.972656 24.703125 -16.925781 24.703125 -14.5 L 24.703125 -10.796875 C 24.703125 -7.285156 23.789062 -4.609375 21.96875 -2.765625 C 20.144531 -0.921875 17.4375 0 13.84375 0 L 2.59375 0 L 2.59375 -45.5 Z M 9.75 -20.46875 L 9.75 -6.5 L 13.84375 -6.5 C 15.0625 -6.5 15.984375 -6.820312 16.609375 -7.46875 C 17.234375 -8.125 17.546875 -9.296875 17.546875 -10.984375 L 17.546875 -14.953125 C 17.546875 -17.078125 17.1875 -18.523438 16.46875 -19.296875 C 15.757812 -20.078125 14.582031 -20.46875 12.9375 -20.46875 Z M 9.75 -39 L 9.75 -26.96875 L 12.546875 -26.96875 C 13.890625 -26.96875 14.9375 -27.316406 15.6875 -28.015625 C 16.445312 -28.710938 16.828125 -29.96875 16.828125 -31.78125 L 16.828125 -34.3125 C 16.828125 -35.96875 16.535156 -37.160156 15.953125 -37.890625 C 15.367188 -38.628906 14.445312 -39 13.1875 -39 Z M 9.75 -39 "/></g></g></g><g fill="#ffffff" fill-opacity="1"><g transform="translate(152.196438, 94.894359)"><g><path d="M 2.59375 -45.5 L 9.75 -45.5 L 9.75 -6.5 L 21.515625 -6.5 L 21.515625 0 L 2.59375 0 Z M 2.59375 -45.5 "/></g></g></g><g fill="#ffffff" fill-opacity="1"><g transform="translate(174.228807, 94.894359)"><g><path d="M 25.734375 0 L 18.53125 0 L 17.296875 -8.25 L 8.515625 -8.25 L 7.28125 0 L 0.71875 0 L 8 -45.5 L 18.453125 -45.5 Z M 9.421875 -14.4375 L 16.3125 -14.4375 L 12.875 -37.4375 Z M 9.421875 -14.4375 "/></g></g></g><g fill="#ffffff" fill-opacity="1"><g transform="translate(200.680655, 94.894359)"><g><path d="M 23.328125 -16.96875 L 23.328125 -10.921875 C 23.328125 -7.234375 22.425781 -4.40625 20.625 -2.4375 C 18.832031 -0.46875 16.179688 0.515625 12.671875 0.515625 C 9.160156 0.515625 6.503906 -0.46875 4.703125 -2.4375 C 2.910156 -4.40625 2.015625 -7.234375 2.015625 -10.921875 L 2.015625 -34.578125 C 2.015625 -38.265625 2.910156 -41.09375 4.703125 -43.0625 C 6.503906 -45.03125 9.160156 -46.015625 12.671875 -46.015625 C 16.179688 -46.015625 18.832031 -45.03125 20.625 -43.0625 C 22.425781 -41.09375 23.328125 -38.265625 23.328125 -34.578125 L 23.328125 -30.15625 L 16.578125 -30.15625 L 16.578125 -35.03125 C 16.578125 -36.675781 16.238281 -37.832031 15.5625 -38.5 C 14.894531 -39.175781 14 -39.515625 12.875 -39.515625 C 11.75 -39.515625 10.847656 -39.175781 10.171875 -38.5 C 9.503906 -37.832031 9.171875 -36.675781 9.171875 -35.03125 L 9.171875 -10.46875 C 9.171875 -8.820312 9.503906 -7.671875 10.171875 -7.015625 C 10.847656 -6.367188 11.75 -6.046875 12.875 -6.046875 C 14 -6.046875 14.894531 -6.367188 15.5625 -7.015625 C 16.238281 -7.671875 16.578125 -8.820312 16.578125 -10.46875 L 16.578125 -16.96875 Z M 23.328125 -16.96875 "/></g></g></g><g fill="#ffffff" fill-opacity="1"><g transform="translate(225.767659, 94.894359)"><g><path d="M 11.953125 -18.140625 L 9.75 -13.96875 L 9.75 0 L 2.59375 0 L 2.59375 -45.5 L 9.75 -45.5 L 9.75 -25.671875 L 19.109375 -45.5 L 26.265625 -45.5 L 16.3125 -25.21875 L 26.265625 0 L 18.921875 0 Z M 11.953125 -18.140625 "/></g></g></g><path stroke-linecap="butt" transform="matrix(0.748987, 0, 0, 0.75, 111.142812, 104.037395)" fill="none" stroke-linejoin="miter" d="M 0.00229496 3.502223 L 208.283576 3.502223 " stroke="#ffffff" stroke-width="7" stroke-opacity="1" stroke-miterlimit="4"/><g fill="#ffffff" fill-opacity="1"><g transform="translate(308.218446, 110.317594)"><g><path d="M 2.546875 -7.796875 L 2.546875 0.03125 L 1.453125 0.03125 L 1.453125 -7.796875 Z M 2.546875 -11.4375 L 2.546875 -9.640625 L 1.453125 -9.640625 L 1.453125 -11.4375 Z M 2.546875 -11.4375 "/></g></g></g><g fill="#ffffff" fill-opacity="1"><g transform="translate(312.233479, 110.317594)"><g><path d="M 9.96875 -2.921875 C 9.96875 -2.492188 9.878906 -2.101562 9.703125 -1.75 C 9.535156 -1.394531 9.304688 -1.085938 9.015625 -0.828125 C 8.734375 -0.566406 8.398438 -0.363281 8.015625 -0.21875 C 7.628906 -0.0703125 7.21875 0 6.78125 0 L 1.421875 0 L 1.421875 -11.359375 L 6.890625 -11.359375 C 7.285156 -11.359375 7.644531 -11.269531 7.96875 -11.09375 C 8.289062 -10.925781 8.5625 -10.707031 8.78125 -10.4375 C 9.007812 -10.164062 9.179688 -9.851562 9.296875 -9.5 C 9.421875 -9.15625 9.484375 -8.8125 9.484375 -8.46875 C 9.484375 -7.882812 9.335938 -7.351562 9.046875 -6.875 C 8.765625 -6.40625 8.367188 -6.054688 7.859375 -5.828125 C 8.503906 -5.628906 9.015625 -5.269531 9.390625 -4.75 C 9.773438 -4.226562 9.96875 -3.617188 9.96875 -2.921875 Z M 8.84375 -3.125 C 8.84375 -3.394531 8.796875 -3.660156 8.703125 -3.921875 C 8.609375 -4.179688 8.472656 -4.410156 8.296875 -4.609375 C 8.117188 -4.804688 7.910156 -4.96875 7.671875 -5.09375 C 7.429688 -5.21875 7.171875 -5.28125 6.890625 -5.28125 L 2.546875 -5.28125 L 2.546875 -0.96875 L 6.78125 -0.96875 C 7.070312 -0.96875 7.34375 -1.023438 7.59375 -1.140625 C 7.84375 -1.265625 8.0625 -1.425781 8.25 -1.625 C 8.4375 -1.820312 8.582031 -2.050781 8.6875 -2.3125 C 8.789062 -2.570312 8.84375 -2.84375 8.84375 -3.125 Z M 2.546875 -10.390625 L 2.546875 -6.1875 L 6.453125 -6.1875 C 6.722656 -6.1875 6.976562 -6.242188 7.21875 -6.359375 C 7.457031 -6.484375 7.660156 -6.640625 7.828125 -6.828125 C 8.003906 -7.023438 8.140625 -7.25 8.234375 -7.5 C 8.335938 -7.75 8.390625 -8.007812 8.390625 -8.28125 C 8.390625 -8.570312 8.34375 -8.84375 8.25 -9.09375 C 8.15625 -9.351562 8.023438 -9.578125 7.859375 -9.765625 C 7.691406 -9.953125 7.492188 -10.101562 7.265625 -10.21875 C 7.046875 -10.332031 6.804688 -10.390625 6.546875 -10.390625 Z M 2.546875 -10.390625 "/></g></g></g><g fill="#ffffff" fill-opacity="1"><g transform="translate(322.88692, 110.317594)"><g><path d="M 1.421875 0 L 1.421875 -11.359375 L 2.546875 -11.359375 L 2.546875 -0.984375 L 9.109375 -0.984375 L 9.109375 0 Z M 1.421875 0 "/></g></g></g><g fill="#ffffff" fill-opacity="1"><g transform="translate(332.212676, 110.317594)"><g><path d="M 4.9375 -11.359375 L 5.890625 -11.359375 L 10.609375 0 L 9.421875 0 L 7.953125 -3.546875 L 2.84375 -3.546875 L 1.390625 0 L 0.1875 0 Z M 7.703125 -4.4375 L 5.40625 -10.046875 L 3.09375 -4.4375 Z M 7.703125 -4.4375 "/></g></g></g><g fill="#ffffff" fill-opacity="1"><g transform="translate(343.026082, 110.317594)"><g><path d="M 0.671875 -5.765625 C 0.671875 -6.441406 0.789062 -7.117188 1.03125 -7.796875 C 1.269531 -8.472656 1.617188 -9.078125 2.078125 -9.609375 C 2.535156 -10.148438 3.097656 -10.585938 3.765625 -10.921875 C 4.441406 -11.253906 5.207031 -11.421875 6.0625 -11.421875 C 7.070312 -11.421875 7.9375 -11.191406 8.65625 -10.734375 C 9.382812 -10.273438 9.914062 -9.675781 10.25 -8.9375 L 9.375 -8.40625 C 9.195312 -8.769531 8.972656 -9.082031 8.703125 -9.34375 C 8.441406 -9.601562 8.160156 -9.8125 7.859375 -9.96875 C 7.566406 -10.125 7.257812 -10.238281 6.9375 -10.3125 C 6.625 -10.382812 6.3125 -10.421875 6 -10.421875 C 5.3125 -10.421875 4.707031 -10.28125 4.1875 -10 C 3.664062 -9.71875 3.226562 -9.351562 2.875 -8.90625 C 2.519531 -8.457031 2.25 -7.953125 2.0625 -7.390625 C 1.882812 -6.835938 1.796875 -6.273438 1.796875 -5.703125 C 1.796875 -5.066406 1.90625 -4.460938 2.125 -3.890625 C 2.34375 -3.316406 2.640625 -2.804688 3.015625 -2.359375 C 3.390625 -1.921875 3.835938 -1.566406 4.359375 -1.296875 C 4.878906 -1.035156 5.441406 -0.90625 6.046875 -0.90625 C 6.367188 -0.90625 6.695312 -0.945312 7.03125 -1.03125 C 7.363281 -1.113281 7.6875 -1.242188 8 -1.421875 C 8.320312 -1.597656 8.613281 -1.816406 8.875 -2.078125 C 9.144531 -2.335938 9.367188 -2.65625 9.546875 -3.03125 L 10.484375 -2.546875 C 10.296875 -2.117188 10.035156 -1.738281 9.703125 -1.40625 C 9.378906 -1.082031 9.015625 -0.804688 8.609375 -0.578125 C 8.203125 -0.359375 7.769531 -0.191406 7.3125 -0.078125 C 6.863281 0.0351562 6.421875 0.09375 5.984375 0.09375 C 5.203125 0.09375 4.484375 -0.0703125 3.828125 -0.40625 C 3.179688 -0.75 2.625 -1.195312 2.15625 -1.75 C 1.6875 -2.300781 1.320312 -2.925781 1.0625 -3.625 C 0.800781 -4.320312 0.671875 -5.035156 0.671875 -5.765625 Z M 0.671875 -5.765625 "/></g></g></g><g fill="#ffffff" fill-opacity="1"><g transform="translate(353.999443, 110.317594)"><g><path d="M 1.421875 0 L 1.421875 -11.34375 L 2.546875 -11.34375 L 2.546875 -4.75 L 8.796875 -11.359375 L 10.03125 -11.359375 L 5.390625 -6.375 L 10.265625 0 L 9.046875 0 L 4.6875 -5.71875 L 2.546875 -3.484375 L 2.546875 0 Z M 1.421875 0 "/></g></g></g><g fill="#ffffff" fill-opacity="1"><g transform="translate(364.284969, 110.317594)"><g/></g></g><g fill="#ffffff" fill-opacity="1"><g transform="translate(368.363986, 110.317594)"><g><path d="M 1.421875 0 L 1.421875 -11.359375 L 8.875 -11.359375 L 8.875 -10.375 L 2.546875 -10.375 L 2.546875 -6.1875 L 7.890625 -6.1875 L 7.890625 -5.265625 L 2.546875 -5.265625 L 2.546875 0 Z M 1.421875 0 "/></g></g></g><g fill="#ffffff" fill-opacity="1"><g transform="translate(377.785723, 110.317594)"><g><path d="M 1.421875 0 L 1.421875 -11.359375 L 6.21875 -11.359375 C 6.707031 -11.359375 7.15625 -11.253906 7.5625 -11.046875 C 7.976562 -10.835938 8.335938 -10.566406 8.640625 -10.234375 C 8.941406 -9.898438 9.171875 -9.519531 9.328125 -9.09375 C 9.492188 -8.664062 9.578125 -8.234375 9.578125 -7.796875 C 9.578125 -7.378906 9.515625 -6.976562 9.390625 -6.59375 C 9.273438 -6.21875 9.109375 -5.878906 8.890625 -5.578125 C 8.671875 -5.273438 8.40625 -5.019531 8.09375 -4.8125 C 7.78125 -4.601562 7.4375 -4.460938 7.0625 -4.390625 L 9.84375 0 L 8.578125 0 L 5.90625 -4.1875 L 2.546875 -4.1875 L 2.546875 0 Z M 2.546875 -5.1875 L 6.25 -5.1875 C 6.582031 -5.1875 6.882812 -5.253906 7.15625 -5.390625 C 7.425781 -5.535156 7.65625 -5.734375 7.84375 -5.984375 C 8.039062 -6.234375 8.191406 -6.507812 8.296875 -6.8125 C 8.410156 -7.125 8.46875 -7.453125 8.46875 -7.796875 C 8.46875 -8.128906 8.40625 -8.453125 8.28125 -8.765625 C 8.15625 -9.085938 7.988281 -9.363281 7.78125 -9.59375 C 7.570312 -9.832031 7.328125 -10.019531 7.046875 -10.15625 C 6.765625 -10.300781 6.46875 -10.375 6.15625 -10.375 L 2.546875 -10.375 Z M 2.546875 -5.1875 "/></g></g></g><g fill="#ffffff" fill-opacity="1"><g transform="translate(388.231213, 110.317594)"><g><path d="M 1.421875 0 L 1.421875 -11.359375 L 2.546875 -11.359375 L 2.546875 0 Z M 1.421875 0 "/></g></g></g><g fill="#ffffff" fill-opacity="1"><g transform="translate(392.198262, 110.317594)"><g><path d="M 1.421875 0 L 1.421875 -11.359375 L 5.28125 -11.359375 C 6.1875 -11.359375 6.976562 -11.207031 7.65625 -10.90625 C 8.332031 -10.613281 8.894531 -10.207031 9.34375 -9.6875 C 9.800781 -9.175781 10.144531 -8.578125 10.375 -7.890625 C 10.601562 -7.203125 10.71875 -6.472656 10.71875 -5.703125 C 10.71875 -4.835938 10.585938 -4.050781 10.328125 -3.34375 C 10.078125 -2.644531 9.710938 -2.046875 9.234375 -1.546875 C 8.765625 -1.054688 8.195312 -0.675781 7.53125 -0.40625 C 6.863281 -0.132812 6.113281 0 5.28125 0 Z M 9.59375 -5.703125 C 9.59375 -6.378906 9.5 -7.003906 9.3125 -7.578125 C 9.125 -8.148438 8.84375 -8.644531 8.46875 -9.0625 C 8.101562 -9.476562 7.648438 -9.800781 7.109375 -10.03125 C 6.578125 -10.257812 5.96875 -10.375 5.28125 -10.375 L 2.546875 -10.375 L 2.546875 -0.984375 L 5.28125 -0.984375 C 5.988281 -0.984375 6.609375 -1.101562 7.140625 -1.34375 C 7.679688 -1.59375 8.132812 -1.925781 8.5 -2.34375 C 8.863281 -2.757812 9.132812 -3.253906 9.3125 -3.828125 C 9.5 -4.398438 9.59375 -5.023438 9.59375 -5.703125 Z M 9.59375 -5.703125 "/></g></g></g><g fill="#ffffff" fill-opacity="1"><g transform="translate(403.635509, 110.317594)"><g><path d="M 4.9375 -11.359375 L 5.890625 -11.359375 L 10.609375 0 L 9.421875 0 L 7.953125 -3.546875 L 2.84375 -3.546875 L 1.390625 0 L 0.1875 0 Z M 7.703125 -4.4375 L 5.40625 -10.046875 L 3.09375 -4.4375 Z M 7.703125 -4.4375 "/></g></g></g><g fill="#ffffff" fill-opacity="1"><g transform="translate(414.448916, 110.317594)"><g><path d="M 1.484375 -11.359375 L 5.203125 -5.25 L 8.9375 -11.359375 L 10.15625 -11.359375 L 5.765625 -4.21875 L 5.765625 0 L 4.640625 0 L 4.640625 -4.25 L 0.25 -11.359375 Z M 1.484375 -11.359375 "/></g></g></g><g fill="#ffffff" fill-opacity="1"><g transform="translate(424.862409, 110.317594)"><g/></g></g><g fill="#ffffff" fill-opacity="1"><g transform="translate(428.941426, 110.317594)"><g><path d="M 9.0625 -0.984375 L 9.0625 0 L 1.421875 0 L 1.421875 -11.359375 L 8.90625 -11.359375 L 8.90625 -10.375 L 2.546875 -10.375 L 2.546875 -6.265625 L 8.09375 -6.265625 L 8.09375 -5.328125 L 2.546875 -5.328125 L 2.546875 -0.984375 Z M 9.0625 -0.984375 "/></g></g></g><g fill="#ffffff" fill-opacity="1"><g transform="translate(438.683082, 110.317594)"><g><path d="M 2.546875 -9.28125 L 2.546875 0 L 1.421875 0 L 1.421875 -11.359375 L 2.28125 -11.359375 L 9.8125 -1.90625 L 9.8125 -11.34375 L 10.921875 -11.34375 L 10.921875 0 L 9.953125 0 Z M 2.546875 -9.28125 "/></g></g></g><g fill="#ffffff" fill-opacity="1"><g transform="translate(451.032114, 110.317594)"><g/></g></g><g fill="#ffffff" fill-opacity="1"><g transform="translate(455.111132, 110.317594)"><g><path d="M 2.546875 -9.28125 L 2.546875 0 L 1.421875 0 L 1.421875 -11.359375 L 2.28125 -11.359375 L 9.8125 -1.90625 L 9.8125 -11.34375 L 10.921875 -11.34375 L 10.921875 0 L 9.953125 0 Z M 2.546875 -9.28125 "/></g></g></g><g fill="#ffffff" fill-opacity="1"><g transform="translate(467.460164, 110.317594)"><g><path d="M 6.03125 -0.921875 C 6.75 -0.921875 7.34375 -1.054688 7.8125 -1.328125 C 8.289062 -1.609375 8.671875 -1.96875 8.953125 -2.40625 C 9.234375 -2.851562 9.429688 -3.359375 9.546875 -3.921875 C 9.660156 -4.484375 9.71875 -5.050781 9.71875 -5.625 L 9.71875 -11.359375 L 10.828125 -11.359375 L 10.828125 -5.625 C 10.828125 -4.863281 10.738281 -4.140625 10.5625 -3.453125 C 10.394531 -2.765625 10.125 -2.15625 9.75 -1.625 C 9.375 -1.101562 8.878906 -0.6875 8.265625 -0.375 C 7.660156 -0.0703125 6.921875 0.078125 6.046875 0.078125 C 5.148438 0.078125 4.394531 -0.0820312 3.78125 -0.40625 C 3.164062 -0.726562 2.671875 -1.15625 2.296875 -1.6875 C 1.929688 -2.226562 1.664062 -2.835938 1.5 -3.515625 C 1.34375 -4.203125 1.265625 -4.90625 1.265625 -5.625 L 1.265625 -11.359375 L 2.375 -11.359375 L 2.375 -5.625 C 2.375 -5.03125 2.429688 -4.453125 2.546875 -3.890625 C 2.660156 -3.328125 2.859375 -2.828125 3.140625 -2.390625 C 3.421875 -1.953125 3.796875 -1.597656 4.265625 -1.328125 C 4.734375 -1.054688 5.320312 -0.921875 6.03125 -0.921875 Z M 6.03125 -0.921875 "/></g></g></g><g fill="#ffffff" fill-opacity="1"><g transform="translate(479.537261, 110.317594)"><g><path d="M 9.0625 -0.984375 L 9.0625 0 L 1.421875 0 L 1.421875 -11.359375 L 8.90625 -11.359375 L 8.90625 -10.375 L 2.546875 -10.375 L 2.546875 -6.265625 L 8.09375 -6.265625 L 8.09375 -5.328125 L 2.546875 -5.328125 L 2.546875 -0.984375 Z M 9.0625 -0.984375 "/></g></g></g><g fill="#ffffff" fill-opacity="1"><g transform="translate(489.278918, 110.317594)"><g><path d="M 8.0625 -9.234375 C 7.738281 -9.597656 7.3125 -9.890625 6.78125 -10.109375 C 6.25 -10.335938 5.640625 -10.453125 4.953125 -10.453125 C 3.953125 -10.453125 3.222656 -10.257812 2.765625 -9.875 C 2.304688 -9.5 2.078125 -8.988281 2.078125 -8.34375 C 2.078125 -8 2.140625 -7.71875 2.265625 -7.5 C 2.390625 -7.28125 2.578125 -7.085938 2.828125 -6.921875 C 3.085938 -6.765625 3.414062 -6.628906 3.8125 -6.515625 C 4.21875 -6.398438 4.691406 -6.28125 5.234375 -6.15625 C 5.835938 -6.03125 6.378906 -5.882812 6.859375 -5.71875 C 7.347656 -5.5625 7.765625 -5.363281 8.109375 -5.125 C 8.453125 -4.882812 8.710938 -4.59375 8.890625 -4.25 C 9.078125 -3.914062 9.171875 -3.488281 9.171875 -2.96875 C 9.171875 -2.445312 9.066406 -1.992188 8.859375 -1.609375 C 8.660156 -1.234375 8.378906 -0.914062 8.015625 -0.65625 C 7.648438 -0.394531 7.21875 -0.203125 6.71875 -0.078125 C 6.21875 0.0351562 5.671875 0.09375 5.078125 0.09375 C 3.316406 0.09375 1.796875 -0.453125 0.515625 -1.546875 L 1.078125 -2.46875 C 1.273438 -2.25 1.515625 -2.039062 1.796875 -1.84375 C 2.078125 -1.65625 2.390625 -1.488281 2.734375 -1.34375 C 3.085938 -1.207031 3.460938 -1.097656 3.859375 -1.015625 C 4.253906 -0.929688 4.671875 -0.890625 5.109375 -0.890625 C 6.015625 -0.890625 6.71875 -1.050781 7.21875 -1.375 C 7.726562 -1.707031 7.984375 -2.203125 7.984375 -2.859375 C 7.984375 -3.210938 7.910156 -3.507812 7.765625 -3.75 C 7.617188 -3.988281 7.398438 -4.195312 7.109375 -4.375 C 6.828125 -4.550781 6.472656 -4.703125 6.046875 -4.828125 C 5.617188 -4.960938 5.125 -5.09375 4.5625 -5.21875 C 3.957031 -5.351562 3.429688 -5.492188 2.984375 -5.640625 C 2.535156 -5.796875 2.15625 -5.984375 1.84375 -6.203125 C 1.539062 -6.429688 1.3125 -6.703125 1.15625 -7.015625 C 1 -7.328125 0.921875 -7.710938 0.921875 -8.171875 C 0.921875 -8.691406 1.019531 -9.15625 1.21875 -9.5625 C 1.414062 -9.976562 1.695312 -10.320312 2.0625 -10.59375 C 2.425781 -10.875 2.851562 -11.082031 3.34375 -11.21875 C 3.832031 -11.363281 4.375 -11.4375 4.96875 -11.4375 C 5.726562 -11.4375 6.40625 -11.320312 7 -11.09375 C 7.59375 -10.863281 8.128906 -10.539062 8.609375 -10.125 Z M 8.0625 -9.234375 "/></g></g></g><g fill="#ffffff" fill-opacity="1"><g transform="translate(498.988588, 110.317594)"><g><path d="M 9.484375 -10.375 L 5.4375 -10.375 L 5.4375 0 L 4.3125 0 L 4.3125 -10.375 L 0.265625 -10.375 L 0.265625 -11.359375 L 9.484375 -11.359375 Z M 9.484375 -10.375 "/></g></g></g><g fill="#ffffff" fill-opacity="1"><g transform="translate(508.746243, 110.317594)"><g><path d="M 1.421875 0 L 1.421875 -11.359375 L 6.21875 -11.359375 C 6.707031 -11.359375 7.15625 -11.253906 7.5625 -11.046875 C 7.976562 -10.835938 8.335938 -10.566406 8.640625 -10.234375 C 8.941406 -9.898438 9.171875 -9.519531 9.328125 -9.09375 C 9.492188 -8.664062 9.578125 -8.234375 9.578125 -7.796875 C 9.578125 -7.378906 9.515625 -6.976562 9.390625 -6.59375 C 9.273438 -6.21875 9.109375 -5.878906 8.890625 -5.578125 C 8.671875 -5.273438 8.40625 -5.019531 8.09375 -4.8125 C 7.78125 -4.601562 7.4375 -4.460938 7.0625 -4.390625 L 9.84375 0 L 8.578125 0 L 5.90625 -4.1875 L 2.546875 -4.1875 L 2.546875 0 Z M 2.546875 -5.1875 L 6.25 -5.1875 C 6.582031 -5.1875 6.882812 -5.253906 7.15625 -5.390625 C 7.425781 -5.535156 7.65625 -5.734375 7.84375 -5.984375 C 8.039062 -6.234375 8.191406 -6.507812 8.296875 -6.8125 C 8.410156 -7.125 8.46875 -7.453125 8.46875 -7.796875 C 8.46875 -8.128906 8.40625 -8.453125 8.28125 -8.765625 C 8.15625 -9.085938 7.988281 -9.363281 7.78125 -9.59375 C 7.570312 -9.832031 7.328125 -10.019531 7.046875 -10.15625 C 6.765625 -10.300781 6.46875 -10.375 6.15625 -10.375 L 2.546875 -10.375 Z M 2.546875 -5.1875 "/></g></g></g><g fill="#ffffff" fill-opacity="1"><g transform="translate(519.191722, 110.317594)"><g><path d="M 4.9375 -11.359375 L 5.890625 -11.359375 L 10.609375 0 L 9.421875 0 L 7.953125 -3.546875 L 2.84375 -3.546875 L 1.390625 0 L 0.1875 0 Z M 7.703125 -4.4375 L 5.40625 -10.046875 L 3.09375 -4.4375 Z M 7.703125 -4.4375 "/></g></g></g><g fill="#ffffff" fill-opacity="1"><g transform="translate(530.005129, 110.317594)"><g/></g></g><g fill="#ffffff" fill-opacity="1"><g transform="translate(534.084146, 110.317594)"><g><path d="M 9.484375 -10.375 L 5.4375 -10.375 L 5.4375 0 L 4.3125 0 L 4.3125 -10.375 L 0.265625 -10.375 L 0.265625 -11.359375 L 9.484375 -11.359375 Z M 9.484375 -10.375 "/></g></g></g><g fill="#ffffff" fill-opacity="1"><g transform="translate(543.84179, 110.317594)"><g><path d="M 1.421875 0 L 1.421875 -11.359375 L 2.546875 -11.359375 L 2.546875 0 Z M 1.421875 0 "/></g></g></g><g fill="#ffffff" fill-opacity="1"><g transform="translate(547.808838, 110.317594)"><g><path d="M 9.0625 -0.984375 L 9.0625 0 L 1.421875 0 L 1.421875 -11.359375 L 8.90625 -11.359375 L 8.90625 -10.375 L 2.546875 -10.375 L 2.546875 -6.265625 L 8.09375 -6.265625 L 8.09375 -5.328125 L 2.546875 -5.328125 L 2.546875 -0.984375 Z M 9.0625 -0.984375 "/></g></g></g><g fill="#ffffff" fill-opacity="1"><g transform="translate(557.550483, 110.317594)"><g><path d="M 2.546875 -9.28125 L 2.546875 0 L 1.421875 0 L 1.421875 -11.359375 L 2.28125 -11.359375 L 9.8125 -1.90625 L 9.8125 -11.34375 L 10.921875 -11.34375 L 10.921875 0 L 9.953125 0 Z M 2.546875 -9.28125 "/></g></g></g><g fill="#ffffff" fill-opacity="1"><g transform="translate(569.899527, 110.317594)"><g><path d="M 1.421875 0 L 1.421875 -11.359375 L 5.28125 -11.359375 C 6.1875 -11.359375 6.976562 -11.207031 7.65625 -10.90625 C 8.332031 -10.613281 8.894531 -10.207031 9.34375 -9.6875 C 9.800781 -9.175781 10.144531 -8.578125 10.375 -7.890625 C 10.601562 -7.203125 10.71875 -6.472656 10.71875 -5.703125 C 10.71875 -4.835938 10.585938 -4.050781 10.328125 -3.34375 C 10.078125 -2.644531 9.710938 -2.046875 9.234375 -1.546875 C 8.765625 -1.054688 8.195312 -0.675781 7.53125 -0.40625 C 6.863281 -0.132812 6.113281 0 5.28125 0 Z M 9.59375 -5.703125 C 9.59375 -6.378906 9.5 -7.003906 9.3125 -7.578125 C 9.125 -8.148438 8.84375 -8.644531 8.46875 -9.0625 C 8.101562 -9.476562 7.648438 -9.800781 7.109375 -10.03125 C 6.578125 -10.257812 5.96875 -10.375 5.28125 -10.375 L 2.546875 -10.375 L 2.546875 -0.984375 L 5.28125 -0.984375 C 5.988281 -0.984375 6.609375 -1.101562 7.140625 -1.34375 C 7.679688 -1.59375 8.132812 -1.925781 8.5 -2.34375 C 8.863281 -2.757812 9.132812 -3.253906 9.3125 -3.828125 C 9.5 -4.398438 9.59375 -5.023438 9.59375 -5.703125 Z M 9.59375 -5.703125 "/></g></g></g><g fill="#ffffff" fill-opacity="1"><g transform="translate(581.336774, 110.317594)"><g><path d="M 4.9375 -11.359375 L 5.890625 -11.359375 L 10.609375 0 L 9.421875 0 L 7.953125 -3.546875 L 2.84375 -3.546875 L 1.390625 0 L 0.1875 0 Z M 7.703125 -4.4375 L 5.40625 -10.046875 L 3.09375 -4.4375 Z M 7.703125 -4.4375 "/></g></g></g><g fill="#ffffff" fill-opacity="1"><g transform="translate(592.150181, 110.317594)"><g/></g></g><g fill="#ffffff" fill-opacity="1"><g transform="translate(596.229198, 110.317594)"><g><path d="M 1.421875 0 L 1.421875 -11.359375 L 5.28125 -11.359375 C 6.1875 -11.359375 6.976562 -11.207031 7.65625 -10.90625 C 8.332031 -10.613281 8.894531 -10.207031 9.34375 -9.6875 C 9.800781 -9.175781 10.144531 -8.578125 10.375 -7.890625 C 10.601562 -7.203125 10.71875 -6.472656 10.71875 -5.703125 C 10.71875 -4.835938 10.585938 -4.050781 10.328125 -3.34375 C 10.078125 -2.644531 9.710938 -2.046875 9.234375 -1.546875 C 8.765625 -1.054688 8.195312 -0.675781 7.53125 -0.40625 C 6.863281 -0.132812 6.113281 0 5.28125 0 Z M 9.59375 -5.703125 C 9.59375 -6.378906 9.5 -7.003906 9.3125 -7.578125 C 9.125 -8.148438 8.84375 -8.644531 8.46875 -9.0625 C 8.101562 -9.476562 7.648438 -9.800781 7.109375 -10.03125 C 6.578125 -10.257812 5.96875 -10.375 5.28125 -10.375 L 2.546875 -10.375 L 2.546875 -0.984375 L 5.28125 -0.984375 C 5.988281 -0.984375 6.609375 -1.101562 7.140625 -1.34375 C 7.679688 -1.59375 8.132812 -1.925781 8.5 -2.34375 C 8.863281 -2.757812 9.132812 -3.253906 9.3125 -3.828125 C 9.5 -4.398438 9.59375 -5.023438 9.59375 -5.703125 Z M 9.59375 -5.703125 "/></g></g></g><g fill="#ffffff" fill-opacity="1"><g transform="translate(607.666445, 110.317594)"><g><path d="M 9.0625 -0.984375 L 9.0625 0 L 1.421875 0 L 1.421875 -11.359375 L 8.90625 -11.359375 L 8.90625 -10.375 L 2.546875 -10.375 L 2.546875 -6.265625 L 8.09375 -6.265625 L 8.09375 -5.328125 L 2.546875 -5.328125 L 2.546875 -0.984375 Z M 9.0625 -0.984375 "/></g></g></g><g fill="#ffffff" fill-opacity="1"><g transform="translate(617.408113, 110.317594)"><g/></g></g><g fill="#ffffff" fill-opacity="1"><g transform="translate(621.48713, 110.317594)"><g><path d="M 1.421875 0 L 1.421875 -11.359375 L 6.125 -11.359375 C 6.613281 -11.359375 7.0625 -11.253906 7.46875 -11.046875 C 7.882812 -10.835938 8.238281 -10.566406 8.53125 -10.234375 C 8.832031 -9.898438 9.066406 -9.519531 9.234375 -9.09375 C 9.410156 -8.664062 9.5 -8.234375 9.5 -7.796875 C 9.5 -7.328125 9.421875 -6.875 9.265625 -6.4375 C 9.109375 -6.007812 8.882812 -5.628906 8.59375 -5.296875 C 8.300781 -4.960938 7.953125 -4.691406 7.546875 -4.484375 C 7.148438 -4.285156 6.707031 -4.1875 6.21875 -4.1875 L 2.546875 -4.1875 L 2.546875 0 Z M 2.546875 -5.1875 L 6.171875 -5.1875 C 6.503906 -5.1875 6.804688 -5.253906 7.078125 -5.390625 C 7.347656 -5.535156 7.578125 -5.726562 7.765625 -5.96875 C 7.960938 -6.21875 8.113281 -6.5 8.21875 -6.8125 C 8.332031 -7.125 8.390625 -7.453125 8.390625 -7.796875 C 8.390625 -8.140625 8.328125 -8.46875 8.203125 -8.78125 C 8.078125 -9.101562 7.910156 -9.378906 7.703125 -9.609375 C 7.492188 -9.847656 7.25 -10.035156 6.96875 -10.171875 C 6.6875 -10.304688 6.390625 -10.375 6.078125 -10.375 L 2.546875 -10.375 Z M 2.546875 -5.1875 "/></g></g></g><g fill="#ffffff" fill-opacity="1"><g transform="translate(631.436737, 110.317594)"><g><path d="M 1.421875 0 L 1.421875 -11.359375 L 2.546875 -11.359375 L 2.546875 -0.984375 L 9.109375 -0.984375 L 9.109375 0 Z M 1.421875 0 "/></g></g></g><g fill="#ffffff" fill-opacity="1"><g transform="translate(640.76248, 110.317594)"><g><path d="M 4.9375 -11.359375 L 5.890625 -11.359375 L 10.609375 0 L 9.421875 0 L 7.953125 -3.546875 L 2.84375 -3.546875 L 1.390625 0 L 0.1875 0 Z M 7.703125 -4.4375 L 5.40625 -10.046875 L 3.09375 -4.4375 Z M 7.703125 -4.4375 "/></g></g></g><g fill="#ffffff" fill-opacity="1"><g transform="translate(651.575887, 110.317594)"><g><path d="M 2.546875 -9.28125 L 2.546875 0 L 1.421875 0 L 1.421875 -11.359375 L 2.28125 -11.359375 L 9.8125 -1.90625 L 9.8125 -11.34375 L 10.921875 -11.34375 L 10.921875 0 L 9.953125 0 Z M 2.546875 -9.28125 "/></g></g></g><g fill="#ffffff" fill-opacity="1"><g transform="translate(663.924908, 110.317594)"><g><path d="M 9.484375 -10.375 L 5.4375 -10.375 L 5.4375 0 L 4.3125 0 L 4.3125 -10.375 L 0.265625 -10.375 L 0.265625 -11.359375 L 9.484375 -11.359375 Z M 9.484375 -10.375 "/></g></g></g><g fill="#ffffff" fill-opacity="1"><g transform="translate(673.682552, 110.317594)"><g><path d="M 4.9375 -11.359375 L 5.890625 -11.359375 L 10.609375 0 L 9.421875 0 L 7.953125 -3.546875 L 2.84375 -3.546875 L 1.390625 0 L 0.1875 0 Z M 7.703125 -4.4375 L 5.40625 -10.046875 L 3.09375 -4.4375 Z M 7.703125 -4.4375 "/></g></g></g><g fill="#ffffff" fill-opacity="1"><g transform="translate(684.495959, 110.317594)"><g><path d="M 8.0625 -9.234375 C 7.738281 -9.597656 7.3125 -9.890625 6.78125 -10.109375 C 6.25 -10.335938 5.640625 -10.453125 4.953125 -10.453125 C 3.953125 -10.453125 3.222656 -10.257812 2.765625 -9.875 C 2.304688 -9.5 2.078125 -8.988281 2.078125 -8.34375 C 2.078125 -8 2.140625 -7.71875 2.265625 -7.5 C 2.390625 -7.28125 2.578125 -7.085938 2.828125 -6.921875 C 3.085938 -6.765625 3.414062 -6.628906 3.8125 -6.515625 C 4.21875 -6.398438 4.691406 -6.28125 5.234375 -6.15625 C 5.835938 -6.03125 6.378906 -5.882812 6.859375 -5.71875 C 7.347656 -5.5625 7.765625 -5.363281 8.109375 -5.125 C 8.453125 -4.882812 8.710938 -4.59375 8.890625 -4.25 C 9.078125 -3.914062 9.171875 -3.488281 9.171875 -2.96875 C 9.171875 -2.445312 9.066406 -1.992188 8.859375 -1.609375 C 8.660156 -1.234375 8.378906 -0.914062 8.015625 -0.65625 C 7.648438 -0.394531 7.21875 -0.203125 6.71875 -0.078125 C 6.21875 0.0351562 5.671875 0.09375 5.078125 0.09375 C 3.316406 0.09375 1.796875 -0.453125 0.515625 -1.546875 L 1.078125 -2.46875 C 1.273438 -2.25 1.515625 -2.039062 1.796875 -1.84375 C 2.078125 -1.65625 2.390625 -1.488281 2.734375 -1.34375 C 3.085938 -1.207031 3.460938 -1.097656 3.859375 -1.015625 C 4.253906 -0.929688 4.671875 -0.890625 5.109375 -0.890625 C 6.015625 -0.890625 6.71875 -1.050781 7.21875 -1.375 C 7.726562 -1.707031 7.984375 -2.203125 7.984375 -2.859375 C 7.984375 -3.210938 7.910156 -3.507812 7.765625 -3.75 C 7.617188 -3.988281 7.398438 -4.195312 7.109375 -4.375 C 6.828125 -4.550781 6.472656 -4.703125 6.046875 -4.828125 C 5.617188 -4.960938 5.125 -5.09375 4.5625 -5.21875 C 3.957031 -5.351562 3.429688 -5.492188 2.984375 -5.640625 C 2.535156 -5.796875 2.15625 -5.984375 1.84375 -6.203125 C 1.539062 -6.429688 1.3125 -6.703125 1.15625 -7.015625 C 1 -7.328125 0.921875 -7.710938 0.921875 -8.171875 C 0.921875 -8.691406 1.019531 -9.15625 1.21875 -9.5625 C 1.414062 -9.976562 1.695312 -10.320312 2.0625 -10.59375 C 2.425781 -10.875 2.851562 -11.082031 3.34375 -11.21875 C 3.832031 -11.363281 4.375 -11.4375 4.96875 -11.4375 C 5.726562 -11.4375 6.40625 -11.320312 7 -11.09375 C 7.59375 -10.863281 8.128906 -10.539062 8.609375 -10.125 Z M 8.0625 -9.234375 "/></g></g></g><g fill="#ffffff" fill-opacity="1"><g transform="translate(308.218446, 132.067592)"><g><path d="M 1.484375 -11.359375 L 5.203125 -5.25 L 8.9375 -11.359375 L 10.15625 -11.359375 L 5.765625 -4.21875 L 5.765625 0 L 4.640625 0 L 4.640625 -4.25 L 0.25 -11.359375 Z M 1.484375 -11.359375 "/></g></g></g><g fill="#ffffff" fill-opacity="1"><g transform="translate(318.631939, 132.067592)"><g/></g></g><g fill="#ffffff" fill-opacity="1"><g transform="translate(322.710956, 132.067592)"><g><path d="M 11.484375 0 L 11.484375 -9.328125 L 7.34375 -2.109375 L 6.6875 -2.109375 L 2.546875 -9.328125 L 2.546875 0 L 1.421875 0 L 1.421875 -11.359375 L 2.578125 -11.359375 L 7.015625 -3.578125 L 11.46875 -11.359375 L 12.609375 -11.359375 L 12.609375 0 Z M 11.484375 0 "/></g></g></g><g fill="#ffffff" fill-opacity="1"><g transform="translate(336.73958, 132.067592)"><g><path d="M 4.9375 -11.359375 L 5.890625 -11.359375 L 10.609375 0 L 9.421875 0 L 7.953125 -3.546875 L 2.84375 -3.546875 L 1.390625 0 L 0.1875 0 Z M 7.703125 -4.4375 L 5.40625 -10.046875 L 3.09375 -4.4375 Z M 5.515625 -12.90625 L 4.796875 -13.1875 L 5.75 -14.671875 L 6.890625 -14.671875 Z M 5.515625 -12.90625 "/></g></g></g><g fill="#ffffff" fill-opacity="1"><g transform="translate(347.552987, 132.067592)"><g><path d="M 8.0625 -9.234375 C 7.738281 -9.597656 7.3125 -9.890625 6.78125 -10.109375 C 6.25 -10.335938 5.640625 -10.453125 4.953125 -10.453125 C 3.953125 -10.453125 3.222656 -10.257812 2.765625 -9.875 C 2.304688 -9.5 2.078125 -8.988281 2.078125 -8.34375 C 2.078125 -8 2.140625 -7.71875 2.265625 -7.5 C 2.390625 -7.28125 2.578125 -7.085938 2.828125 -6.921875 C 3.085938 -6.765625 3.414062 -6.628906 3.8125 -6.515625 C 4.21875 -6.398438 4.691406 -6.28125 5.234375 -6.15625 C 5.835938 -6.03125 6.378906 -5.882812 6.859375 -5.71875 C 7.347656 -5.5625 7.765625 -5.363281 8.109375 -5.125 C 8.453125 -4.882812 8.710938 -4.59375 8.890625 -4.25 C 9.078125 -3.914062 9.171875 -3.488281 9.171875 -2.96875 C 9.171875 -2.445312 9.066406 -1.992188 8.859375 -1.609375 C 8.660156 -1.234375 8.378906 -0.914062 8.015625 -0.65625 C 7.648438 -0.394531 7.21875 -0.203125 6.71875 -0.078125 C 6.21875 0.0351562 5.671875 0.09375 5.078125 0.09375 C 3.316406 0.09375 1.796875 -0.453125 0.515625 -1.546875 L 1.078125 -2.46875 C 1.273438 -2.25 1.515625 -2.039062 1.796875 -1.84375 C 2.078125 -1.65625 2.390625 -1.488281 2.734375 -1.34375 C 3.085938 -1.207031 3.460938 -1.097656 3.859375 -1.015625 C 4.253906 -0.929688 4.671875 -0.890625 5.109375 -0.890625 C 6.015625 -0.890625 6.71875 -1.050781 7.21875 -1.375 C 7.726562 -1.707031 7.984375 -2.203125 7.984375 -2.859375 C 7.984375 -3.210938 7.910156 -3.507812 7.765625 -3.75 C 7.617188 -3.988281 7.398438 -4.195312 7.109375 -4.375 C 6.828125 -4.550781 6.472656 -4.703125 6.046875 -4.828125 C 5.617188 -4.960938 5.125 -5.09375 4.5625 -5.21875 C 3.957031 -5.351562 3.429688 -5.492188 2.984375 -5.640625 C 2.535156 -5.796875 2.15625 -5.984375 1.84375 -6.203125 C 1.539062 -6.429688 1.3125 -6.703125 1.15625 -7.015625 C 1 -7.328125 0.921875 -7.710938 0.921875 -8.171875 C 0.921875 -8.691406 1.019531 -9.15625 1.21875 -9.5625 C 1.414062 -9.976562 1.695312 -10.320312 2.0625 -10.59375 C 2.425781 -10.875 2.851562 -11.082031 3.34375 -11.21875 C 3.832031 -11.363281 4.375 -11.4375 4.96875 -11.4375 C 5.726562 -11.4375 6.40625 -11.320312 7 -11.09375 C 7.59375 -10.863281 8.128906 -10.539062 8.609375 -10.125 Z M 8.0625 -9.234375 "/></g></g></g><g fill="#ffffff" fill-opacity="1"><g transform="translate(357.262657, 132.067592)"><g/></g></g><g fill="#ffffff" fill-opacity="1"><g transform="translate(361.341674, 132.067592)"><g><path d="M 1.421875 0 L 1.421875 -11.359375 L 5.28125 -11.359375 C 6.1875 -11.359375 6.976562 -11.207031 7.65625 -10.90625 C 8.332031 -10.613281 8.894531 -10.207031 9.34375 -9.6875 C 9.800781 -9.175781 10.144531 -8.578125 10.375 -7.890625 C 10.601562 -7.203125 10.71875 -6.472656 10.71875 -5.703125 C 10.71875 -4.835938 10.585938 -4.050781 10.328125 -3.34375 C 10.078125 -2.644531 9.710938 -2.046875 9.234375 -1.546875 C 8.765625 -1.054688 8.195312 -0.675781 7.53125 -0.40625 C 6.863281 -0.132812 6.113281 0 5.28125 0 Z M 9.59375 -5.703125 C 9.59375 -6.378906 9.5 -7.003906 9.3125 -7.578125 C 9.125 -8.148438 8.84375 -8.644531 8.46875 -9.0625 C 8.101562 -9.476562 7.648438 -9.800781 7.109375 -10.03125 C 6.578125 -10.257812 5.96875 -10.375 5.28125 -10.375 L 2.546875 -10.375 L 2.546875 -0.984375 L 5.28125 -0.984375 C 5.988281 -0.984375 6.609375 -1.101562 7.140625 -1.34375 C 7.679688 -1.59375 8.132812 -1.925781 8.5 -2.34375 C 8.863281 -2.757812 9.132812 -3.253906 9.3125 -3.828125 C 9.5 -4.398438 9.59375 -5.023438 9.59375 -5.703125 Z M 9.59375 -5.703125 "/></g></g></g><g fill="#ffffff" fill-opacity="1"><g transform="translate(372.778922, 132.067592)"><g><path d="M 9.0625 -0.984375 L 9.0625 0 L 1.421875 0 L 1.421875 -11.359375 L 8.90625 -11.359375 L 8.90625 -10.375 L 2.546875 -10.375 L 2.546875 -6.265625 L 8.09375 -6.265625 L 8.09375 -5.328125 L 2.546875 -5.328125 L 2.546875 -0.984375 Z M 9.0625 -0.984375 "/></g></g></g><g fill="#ffffff" fill-opacity="1"><g transform="translate(382.520578, 132.067592)"><g><path d="M 8.0625 -9.234375 C 7.738281 -9.597656 7.3125 -9.890625 6.78125 -10.109375 C 6.25 -10.335938 5.640625 -10.453125 4.953125 -10.453125 C 3.953125 -10.453125 3.222656 -10.257812 2.765625 -9.875 C 2.304688 -9.5 2.078125 -8.988281 2.078125 -8.34375 C 2.078125 -8 2.140625 -7.71875 2.265625 -7.5 C 2.390625 -7.28125 2.578125 -7.085938 2.828125 -6.921875 C 3.085938 -6.765625 3.414062 -6.628906 3.8125 -6.515625 C 4.21875 -6.398438 4.691406 -6.28125 5.234375 -6.15625 C 5.835938 -6.03125 6.378906 -5.882812 6.859375 -5.71875 C 7.347656 -5.5625 7.765625 -5.363281 8.109375 -5.125 C 8.453125 -4.882812 8.710938 -4.59375 8.890625 -4.25 C 9.078125 -3.914062 9.171875 -3.488281 9.171875 -2.96875 C 9.171875 -2.445312 9.066406 -1.992188 8.859375 -1.609375 C 8.660156 -1.234375 8.378906 -0.914062 8.015625 -0.65625 C 7.648438 -0.394531 7.21875 -0.203125 6.71875 -0.078125 C 6.21875 0.0351562 5.671875 0.09375 5.078125 0.09375 C 3.316406 0.09375 1.796875 -0.453125 0.515625 -1.546875 L 1.078125 -2.46875 C 1.273438 -2.25 1.515625 -2.039062 1.796875 -1.84375 C 2.078125 -1.65625 2.390625 -1.488281 2.734375 -1.34375 C 3.085938 -1.207031 3.460938 -1.097656 3.859375 -1.015625 C 4.253906 -0.929688 4.671875 -0.890625 5.109375 -0.890625 C 6.015625 -0.890625 6.71875 -1.050781 7.21875 -1.375 C 7.726562 -1.707031 7.984375 -2.203125 7.984375 -2.859375 C 7.984375 -3.210938 7.910156 -3.507812 7.765625 -3.75 C 7.617188 -3.988281 7.398438 -4.195312 7.109375 -4.375 C 6.828125 -4.550781 6.472656 -4.703125 6.046875 -4.828125 C 5.617188 -4.960938 5.125 -5.09375 4.5625 -5.21875 C 3.957031 -5.351562 3.429688 -5.492188 2.984375 -5.640625 C 2.535156 -5.796875 2.15625 -5.984375 1.84375 -6.203125 C 1.539062 -6.429688 1.3125 -6.703125 1.15625 -7.015625 C 1 -7.328125 0.921875 -7.710938 0.921875 -8.171875 C 0.921875 -8.691406 1.019531 -9.15625 1.21875 -9.5625 C 1.414062 -9.976562 1.695312 -10.320312 2.0625 -10.59375 C 2.425781 -10.875 2.851562 -11.082031 3.34375 -11.21875 C 3.832031 -11.363281 4.375 -11.4375 4.96875 -11.4375 C 5.726562 -11.4375 6.40625 -11.320312 7 -11.09375 C 7.59375 -10.863281 8.128906 -10.539062 8.609375 -10.125 Z M 8.0625 -9.234375 "/></g></g></g><g fill="#ffffff" fill-opacity="1"><g transform="translate(392.230248, 132.067592)"><g><path d="M 0.671875 -5.765625 C 0.671875 -6.441406 0.789062 -7.117188 1.03125 -7.796875 C 1.269531 -8.472656 1.617188 -9.078125 2.078125 -9.609375 C 2.535156 -10.148438 3.097656 -10.585938 3.765625 -10.921875 C 4.441406 -11.253906 5.207031 -11.421875 6.0625 -11.421875 C 7.070312 -11.421875 7.9375 -11.191406 8.65625 -10.734375 C 9.382812 -10.273438 9.914062 -9.675781 10.25 -8.9375 L 9.375 -8.40625 C 9.195312 -8.769531 8.972656 -9.082031 8.703125 -9.34375 C 8.441406 -9.601562 8.160156 -9.8125 7.859375 -9.96875 C 7.566406 -10.125 7.257812 -10.238281 6.9375 -10.3125 C 6.625 -10.382812 6.3125 -10.421875 6 -10.421875 C 5.3125 -10.421875 4.707031 -10.28125 4.1875 -10 C 3.664062 -9.71875 3.226562 -9.351562 2.875 -8.90625 C 2.519531 -8.457031 2.25 -7.953125 2.0625 -7.390625 C 1.882812 -6.835938 1.796875 -6.273438 1.796875 -5.703125 C 1.796875 -5.066406 1.90625 -4.460938 2.125 -3.890625 C 2.34375 -3.316406 2.640625 -2.804688 3.015625 -2.359375 C 3.390625 -1.921875 3.835938 -1.566406 4.359375 -1.296875 C 4.878906 -1.035156 5.441406 -0.90625 6.046875 -0.90625 C 6.367188 -0.90625 6.695312 -0.945312 7.03125 -1.03125 C 7.363281 -1.113281 7.6875 -1.242188 8 -1.421875 C 8.320312 -1.597656 8.613281 -1.816406 8.875 -2.078125 C 9.144531 -2.335938 9.367188 -2.65625 9.546875 -3.03125 L 10.484375 -2.546875 C 10.296875 -2.117188 10.035156 -1.738281 9.703125 -1.40625 C 9.378906 -1.082031 9.015625 -0.804688 8.609375 -0.578125 C 8.203125 -0.359375 7.769531 -0.191406 7.3125 -0.078125 C 6.863281 0.0351562 6.421875 0.09375 5.984375 0.09375 C 5.203125 0.09375 4.484375 -0.0703125 3.828125 -0.40625 C 3.179688 -0.75 2.625 -1.195312 2.15625 -1.75 C 1.6875 -2.300781 1.320312 -2.925781 1.0625 -3.625 C 0.800781 -4.320312 0.671875 -5.035156 0.671875 -5.765625 Z M 0.671875 -5.765625 "/></g></g></g><g fill="#ffffff" fill-opacity="1"><g transform="translate(403.203609, 132.067592)"><g><path d="M 6.03125 -0.921875 C 6.75 -0.921875 7.34375 -1.054688 7.8125 -1.328125 C 8.289062 -1.609375 8.671875 -1.96875 8.953125 -2.40625 C 9.234375 -2.851562 9.429688 -3.359375 9.546875 -3.921875 C 9.660156 -4.484375 9.71875 -5.050781 9.71875 -5.625 L 9.71875 -11.359375 L 10.828125 -11.359375 L 10.828125 -5.625 C 10.828125 -4.863281 10.738281 -4.140625 10.5625 -3.453125 C 10.394531 -2.765625 10.125 -2.15625 9.75 -1.625 C 9.375 -1.101562 8.878906 -0.6875 8.265625 -0.375 C 7.660156 -0.0703125 6.921875 0.078125 6.046875 0.078125 C 5.148438 0.078125 4.394531 -0.0820312 3.78125 -0.40625 C 3.164062 -0.726562 2.671875 -1.15625 2.296875 -1.6875 C 1.929688 -2.226562 1.664062 -2.835938 1.5 -3.515625 C 1.34375 -4.203125 1.265625 -4.90625 1.265625 -5.625 L 1.265625 -11.359375 L 2.375 -11.359375 L 2.375 -5.625 C 2.375 -5.03125 2.429688 -4.453125 2.546875 -3.890625 C 2.660156 -3.328125 2.859375 -2.828125 3.140625 -2.390625 C 3.421875 -1.953125 3.796875 -1.597656 4.265625 -1.328125 C 4.734375 -1.054688 5.320312 -0.921875 6.03125 -0.921875 Z M 6.03125 -0.921875 "/></g></g></g><g fill="#ffffff" fill-opacity="1"><g transform="translate(415.280706, 132.067592)"><g><path d="M 9.0625 -0.984375 L 9.0625 0 L 1.421875 0 L 1.421875 -11.359375 L 8.90625 -11.359375 L 8.90625 -10.375 L 2.546875 -10.375 L 2.546875 -6.265625 L 8.09375 -6.265625 L 8.09375 -5.328125 L 2.546875 -5.328125 L 2.546875 -0.984375 Z M 9.0625 -0.984375 "/></g></g></g><g fill="#ffffff" fill-opacity="1"><g transform="translate(425.022363, 132.067592)"><g><path d="M 2.546875 -9.28125 L 2.546875 0 L 1.421875 0 L 1.421875 -11.359375 L 2.28125 -11.359375 L 9.8125 -1.90625 L 9.8125 -11.34375 L 10.921875 -11.34375 L 10.921875 0 L 9.953125 0 Z M 2.546875 -9.28125 "/></g></g></g><g fill="#ffffff" fill-opacity="1"><g transform="translate(437.371395, 132.067592)"><g><path d="M 9.484375 -10.375 L 5.4375 -10.375 L 5.4375 0 L 4.3125 0 L 4.3125 -10.375 L 0.265625 -10.375 L 0.265625 -11.359375 L 9.484375 -11.359375 Z M 9.484375 -10.375 "/></g></g></g><g fill="#ffffff" fill-opacity="1"><g transform="translate(447.12905, 132.067592)"><g><path d="M 6 0.078125 C 5.207031 0.078125 4.484375 -0.0820312 3.828125 -0.40625 C 3.171875 -0.726562 2.609375 -1.160156 2.140625 -1.703125 C 1.671875 -2.242188 1.304688 -2.859375 1.046875 -3.546875 C 0.796875 -4.242188 0.671875 -4.957031 0.671875 -5.6875 C 0.671875 -6.4375 0.804688 -7.15625 1.078125 -7.84375 C 1.347656 -8.539062 1.722656 -9.15625 2.203125 -9.6875 C 2.679688 -10.226562 3.242188 -10.65625 3.890625 -10.96875 C 4.546875 -11.28125 5.253906 -11.4375 6.015625 -11.4375 C 6.804688 -11.4375 7.53125 -11.269531 8.1875 -10.9375 C 8.84375 -10.601562 9.398438 -10.160156 9.859375 -9.609375 C 10.328125 -9.066406 10.6875 -8.453125 10.9375 -7.765625 C 11.195312 -7.078125 11.328125 -6.375 11.328125 -5.65625 C 11.328125 -4.90625 11.191406 -4.179688 10.921875 -3.484375 C 10.648438 -2.796875 10.273438 -2.1875 9.796875 -1.65625 C 9.328125 -1.125 8.765625 -0.703125 8.109375 -0.390625 C 7.460938 -0.078125 6.757812 0.078125 6 0.078125 Z M 1.796875 -5.6875 C 1.796875 -5.0625 1.894531 -4.460938 2.09375 -3.890625 C 2.300781 -3.328125 2.585938 -2.820312 2.953125 -2.375 C 3.328125 -1.9375 3.769531 -1.582031 4.28125 -1.3125 C 4.800781 -1.050781 5.375 -0.921875 6 -0.921875 C 6.632812 -0.921875 7.210938 -1.0625 7.734375 -1.34375 C 8.265625 -1.625 8.707031 -1.988281 9.0625 -2.4375 C 9.425781 -2.882812 9.707031 -3.390625 9.90625 -3.953125 C 10.101562 -4.515625 10.203125 -5.09375 10.203125 -5.6875 C 10.203125 -6.300781 10.097656 -6.890625 9.890625 -7.453125 C 9.679688 -8.023438 9.390625 -8.53125 9.015625 -8.96875 C 8.648438 -9.40625 8.207031 -9.753906 7.6875 -10.015625 C 7.175781 -10.285156 6.613281 -10.421875 6 -10.421875 C 5.363281 -10.421875 4.78125 -10.28125 4.25 -10 C 3.726562 -9.726562 3.285156 -9.367188 2.921875 -8.921875 C 2.566406 -8.472656 2.289062 -7.96875 2.09375 -7.40625 C 1.894531 -6.84375 1.796875 -6.269531 1.796875 -5.6875 Z M 1.796875 -5.6875 "/></g></g></g><g fill="#ffffff" fill-opacity="1"><g transform="translate(459.142164, 132.067592)"><g><path d="M 8.0625 -9.234375 C 7.738281 -9.597656 7.3125 -9.890625 6.78125 -10.109375 C 6.25 -10.335938 5.640625 -10.453125 4.953125 -10.453125 C 3.953125 -10.453125 3.222656 -10.257812 2.765625 -9.875 C 2.304688 -9.5 2.078125 -8.988281 2.078125 -8.34375 C 2.078125 -8 2.140625 -7.71875 2.265625 -7.5 C 2.390625 -7.28125 2.578125 -7.085938 2.828125 -6.921875 C 3.085938 -6.765625 3.414062 -6.628906 3.8125 -6.515625 C 4.21875 -6.398438 4.691406 -6.28125 5.234375 -6.15625 C 5.835938 -6.03125 6.378906 -5.882812 6.859375 -5.71875 C 7.347656 -5.5625 7.765625 -5.363281 8.109375 -5.125 C 8.453125 -4.882812 8.710938 -4.59375 8.890625 -4.25 C 9.078125 -3.914062 9.171875 -3.488281 9.171875 -2.96875 C 9.171875 -2.445312 9.066406 -1.992188 8.859375 -1.609375 C 8.660156 -1.234375 8.378906 -0.914062 8.015625 -0.65625 C 7.648438 -0.394531 7.21875 -0.203125 6.71875 -0.078125 C 6.21875 0.0351562 5.671875 0.09375 5.078125 0.09375 C 3.316406 0.09375 1.796875 -0.453125 0.515625 -1.546875 L 1.078125 -2.46875 C 1.273438 -2.25 1.515625 -2.039062 1.796875 -1.84375 C 2.078125 -1.65625 2.390625 -1.488281 2.734375 -1.34375 C 3.085938 -1.207031 3.460938 -1.097656 3.859375 -1.015625 C 4.253906 -0.929688 4.671875 -0.890625 5.109375 -0.890625 C 6.015625 -0.890625 6.71875 -1.050781 7.21875 -1.375 C 7.726562 -1.707031 7.984375 -2.203125 7.984375 -2.859375 C 7.984375 -3.210938 7.910156 -3.507812 7.765625 -3.75 C 7.617188 -3.988281 7.398438 -4.195312 7.109375 -4.375 C 6.828125 -4.550781 6.472656 -4.703125 6.046875 -4.828125 C 5.617188 -4.960938 5.125 -5.09375 4.5625 -5.21875 C 3.957031 -5.351562 3.429688 -5.492188 2.984375 -5.640625 C 2.535156 -5.796875 2.15625 -5.984375 1.84375 -6.203125 C 1.539062 -6.429688 1.3125 -6.703125 1.15625 -7.015625 C 1 -7.328125 0.921875 -7.710938 0.921875 -8.171875 C 0.921875 -8.691406 1.019531 -9.15625 1.21875 -9.5625 C 1.414062 -9.976562 1.695312 -10.320312 2.0625 -10.59375 C 2.425781 -10.875 2.851562 -11.082031 3.34375 -11.21875 C 3.832031 -11.363281 4.375 -11.4375 4.96875 -11.4375 C 5.726562 -11.4375 6.40625 -11.320312 7 -11.09375 C 7.59375 -10.863281 8.128906 -10.539062 8.609375 -10.125 Z M 8.0625 -9.234375 "/></g></g></g><g fill="#ffffff" fill-opacity="1"><g transform="translate(468.851834, 132.067592)"><g/></g></g><g fill="#ffffff" fill-opacity="1"><g transform="translate(472.930851, 132.067592)"><g><path d="M 1.421875 0 L 1.421875 -11.359375 L 2.546875 -11.359375 L 2.546875 0 Z M 1.421875 0 "/></g></g></g><g fill="#ffffff" fill-opacity="1"><g transform="translate(476.897899, 132.067592)"><g><path d="M 11.484375 0 L 11.484375 -9.328125 L 7.34375 -2.109375 L 6.6875 -2.109375 L 2.546875 -9.328125 L 2.546875 0 L 1.421875 0 L 1.421875 -11.359375 L 2.578125 -11.359375 L 7.015625 -3.578125 L 11.46875 -11.359375 L 12.609375 -11.359375 L 12.609375 0 Z M 11.484375 0 "/></g></g></g><g fill="#ffffff" fill-opacity="1"><g transform="translate(490.926523, 132.067592)"><g><path d="M 1.421875 0 L 1.421875 -11.359375 L 6.125 -11.359375 C 6.613281 -11.359375 7.0625 -11.253906 7.46875 -11.046875 C 7.882812 -10.835938 8.238281 -10.566406 8.53125 -10.234375 C 8.832031 -9.898438 9.066406 -9.519531 9.234375 -9.09375 C 9.410156 -8.664062 9.5 -8.234375 9.5 -7.796875 C 9.5 -7.328125 9.421875 -6.875 9.265625 -6.4375 C 9.109375 -6.007812 8.882812 -5.628906 8.59375 -5.296875 C 8.300781 -4.960938 7.953125 -4.691406 7.546875 -4.484375 C 7.148438 -4.285156 6.707031 -4.1875 6.21875 -4.1875 L 2.546875 -4.1875 L 2.546875 0 Z M 2.546875 -5.1875 L 6.171875 -5.1875 C 6.503906 -5.1875 6.804688 -5.253906 7.078125 -5.390625 C 7.347656 -5.535156 7.578125 -5.726562 7.765625 -5.96875 C 7.960938 -6.21875 8.113281 -6.5 8.21875 -6.8125 C 8.332031 -7.125 8.390625 -7.453125 8.390625 -7.796875 C 8.390625 -8.140625 8.328125 -8.46875 8.203125 -8.78125 C 8.078125 -9.101562 7.910156 -9.378906 7.703125 -9.609375 C 7.492188 -9.847656 7.25 -10.035156 6.96875 -10.171875 C 6.6875 -10.304688 6.390625 -10.375 6.078125 -10.375 L 2.546875 -10.375 Z M 2.546875 -5.1875 "/></g></g></g><g fill="#ffffff" fill-opacity="1"><g transform="translate(500.876142, 132.067592)"><g><path d="M 9.0625 -0.984375 L 9.0625 0 L 1.421875 0 L 1.421875 -11.359375 L 8.90625 -11.359375 L 8.90625 -10.375 L 2.546875 -10.375 L 2.546875 -6.265625 L 8.09375 -6.265625 L 8.09375 -5.328125 L 2.546875 -5.328125 L 2.546875 -0.984375 Z M 9.0625 -0.984375 "/></g></g></g><g fill="#ffffff" fill-opacity="1"><g transform="translate(510.617809, 132.067592)"><g><path d="M 1.421875 0 L 1.421875 -11.359375 L 6.21875 -11.359375 C 6.707031 -11.359375 7.15625 -11.253906 7.5625 -11.046875 C 7.976562 -10.835938 8.335938 -10.566406 8.640625 -10.234375 C 8.941406 -9.898438 9.171875 -9.519531 9.328125 -9.09375 C 9.492188 -8.664062 9.578125 -8.234375 9.578125 -7.796875 C 9.578125 -7.378906 9.515625 -6.976562 9.390625 -6.59375 C 9.273438 -6.21875 9.109375 -5.878906 8.890625 -5.578125 C 8.671875 -5.273438 8.40625 -5.019531 8.09375 -4.8125 C 7.78125 -4.601562 7.4375 -4.460938 7.0625 -4.390625 L 9.84375 0 L 8.578125 0 L 5.90625 -4.1875 L 2.546875 -4.1875 L 2.546875 0 Z M 2.546875 -5.1875 L 6.25 -5.1875 C 6.582031 -5.1875 6.882812 -5.253906 7.15625 -5.390625 C 7.425781 -5.535156 7.65625 -5.734375 7.84375 -5.984375 C 8.039062 -6.234375 8.191406 -6.507812 8.296875 -6.8125 C 8.410156 -7.125 8.46875 -7.453125 8.46875 -7.796875 C 8.46875 -8.128906 8.40625 -8.453125 8.28125 -8.765625 C 8.15625 -9.085938 7.988281 -9.363281 7.78125 -9.59375 C 7.570312 -9.832031 7.328125 -10.019531 7.046875 -10.15625 C 6.765625 -10.300781 6.46875 -10.375 6.15625 -10.375 L 2.546875 -10.375 Z M 2.546875 -5.1875 "/></g></g></g><g fill="#ffffff" fill-opacity="1"><g transform="translate(521.063289, 132.067592)"><g><path d="M 1.421875 0 L 1.421875 -11.359375 L 5.28125 -11.359375 C 6.1875 -11.359375 6.976562 -11.207031 7.65625 -10.90625 C 8.332031 -10.613281 8.894531 -10.207031 9.34375 -9.6875 C 9.800781 -9.175781 10.144531 -8.578125 10.375 -7.890625 C 10.601562 -7.203125 10.71875 -6.472656 10.71875 -5.703125 C 10.71875 -4.835938 10.585938 -4.050781 10.328125 -3.34375 C 10.078125 -2.644531 9.710938 -2.046875 9.234375 -1.546875 C 8.765625 -1.054688 8.195312 -0.675781 7.53125 -0.40625 C 6.863281 -0.132812 6.113281 0 5.28125 0 Z M 9.59375 -5.703125 C 9.59375 -6.378906 9.5 -7.003906 9.3125 -7.578125 C 9.125 -8.148438 8.84375 -8.644531 8.46875 -9.0625 C 8.101562 -9.476562 7.648438 -9.800781 7.109375 -10.03125 C 6.578125 -10.257812 5.96875 -10.375 5.28125 -10.375 L 2.546875 -10.375 L 2.546875 -0.984375 L 5.28125 -0.984375 C 5.988281 -0.984375 6.609375 -1.101562 7.140625 -1.34375 C 7.679688 -1.59375 8.132812 -1.925781 8.5 -2.34375 C 8.863281 -2.757812 9.132812 -3.253906 9.3125 -3.828125 C 9.5 -4.398438 9.59375 -5.023438 9.59375 -5.703125 Z M 9.59375 -5.703125 "/></g></g></g><g fill="#ffffff" fill-opacity="1"><g transform="translate(532.500536, 132.067592)"><g><path d="M 1.421875 0 L 1.421875 -11.359375 L 2.546875 -11.359375 L 2.546875 0 Z M 1.421875 0 "/></g></g></g><g fill="#ffffff" fill-opacity="1"><g transform="translate(536.467584, 132.067592)"><g><path d="M 9.96875 -2.921875 C 9.96875 -2.492188 9.878906 -2.101562 9.703125 -1.75 C 9.535156 -1.394531 9.304688 -1.085938 9.015625 -0.828125 C 8.734375 -0.566406 8.398438 -0.363281 8.015625 -0.21875 C 7.628906 -0.0703125 7.21875 0 6.78125 0 L 1.421875 0 L 1.421875 -11.359375 L 6.890625 -11.359375 C 7.285156 -11.359375 7.644531 -11.269531 7.96875 -11.09375 C 8.289062 -10.925781 8.5625 -10.707031 8.78125 -10.4375 C 9.007812 -10.164062 9.179688 -9.851562 9.296875 -9.5 C 9.421875 -9.15625 9.484375 -8.8125 9.484375 -8.46875 C 9.484375 -7.882812 9.335938 -7.351562 9.046875 -6.875 C 8.765625 -6.40625 8.367188 -6.054688 7.859375 -5.828125 C 8.503906 -5.628906 9.015625 -5.269531 9.390625 -4.75 C 9.773438 -4.226562 9.96875 -3.617188 9.96875 -2.921875 Z M 8.84375 -3.125 C 8.84375 -3.394531 8.796875 -3.660156 8.703125 -3.921875 C 8.609375 -4.179688 8.472656 -4.410156 8.296875 -4.609375 C 8.117188 -4.804688 7.910156 -4.96875 7.671875 -5.09375 C 7.429688 -5.21875 7.171875 -5.28125 6.890625 -5.28125 L 2.546875 -5.28125 L 2.546875 -0.96875 L 6.78125 -0.96875 C 7.070312 -0.96875 7.34375 -1.023438 7.59375 -1.140625 C 7.84375 -1.265625 8.0625 -1.425781 8.25 -1.625 C 8.4375 -1.820312 8.582031 -2.050781 8.6875 -2.3125 C 8.789062 -2.570312 8.84375 -2.84375 8.84375 -3.125 Z M 2.546875 -10.390625 L 2.546875 -6.1875 L 6.453125 -6.1875 C 6.722656 -6.1875 6.976562 -6.242188 7.21875 -6.359375 C 7.457031 -6.484375 7.660156 -6.640625 7.828125 -6.828125 C 8.003906 -7.023438 8.140625 -7.25 8.234375 -7.5 C 8.335938 -7.75 8.390625 -8.007812 8.390625 -8.28125 C 8.390625 -8.570312 8.34375 -8.84375 8.25 -9.09375 C 8.15625 -9.351562 8.023438 -9.578125 7.859375 -9.765625 C 7.691406 -9.953125 7.492188 -10.101562 7.265625 -10.21875 C 7.046875 -10.332031 6.804688 -10.390625 6.546875 -10.390625 Z M 2.546875 -10.390625 "/></g></g></g><g fill="#ffffff" fill-opacity="1"><g transform="translate(547.121025, 132.067592)"><g><path d="M 1.421875 0 L 1.421875 -11.359375 L 2.546875 -11.359375 L 2.546875 -0.984375 L 9.109375 -0.984375 L 9.109375 0 Z M 1.421875 0 "/></g></g></g><g fill="#ffffff" fill-opacity="1"><g transform="translate(556.446769, 132.067592)"><g><path d="M 9.0625 -0.984375 L 9.0625 0 L 1.421875 0 L 1.421875 -11.359375 L 8.90625 -11.359375 L 8.90625 -10.375 L 2.546875 -10.375 L 2.546875 -6.265625 L 8.09375 -6.265625 L 8.09375 -5.328125 L 2.546875 -5.328125 L 2.546875 -0.984375 Z M 9.0625 -0.984375 "/></g></g></g><g fill="#ffffff" fill-opacity="1"><g transform="translate(566.188437, 132.067592)"><g><path d="M 8.0625 -9.234375 C 7.738281 -9.597656 7.3125 -9.890625 6.78125 -10.109375 C 6.25 -10.335938 5.640625 -10.453125 4.953125 -10.453125 C 3.953125 -10.453125 3.222656 -10.257812 2.765625 -9.875 C 2.304688 -9.5 2.078125 -8.988281 2.078125 -8.34375 C 2.078125 -8 2.140625 -7.71875 2.265625 -7.5 C 2.390625 -7.28125 2.578125 -7.085938 2.828125 -6.921875 C 3.085938 -6.765625 3.414062 -6.628906 3.8125 -6.515625 C 4.21875 -6.398438 4.691406 -6.28125 5.234375 -6.15625 C 5.835938 -6.03125 6.378906 -5.882812 6.859375 -5.71875 C 7.347656 -5.5625 7.765625 -5.363281 8.109375 -5.125 C 8.453125 -4.882812 8.710938 -4.59375 8.890625 -4.25 C 9.078125 -3.914062 9.171875 -3.488281 9.171875 -2.96875 C 9.171875 -2.445312 9.066406 -1.992188 8.859375 -1.609375 C 8.660156 -1.234375 8.378906 -0.914062 8.015625 -0.65625 C 7.648438 -0.394531 7.21875 -0.203125 6.71875 -0.078125 C 6.21875 0.0351562 5.671875 0.09375 5.078125 0.09375 C 3.316406 0.09375 1.796875 -0.453125 0.515625 -1.546875 L 1.078125 -2.46875 C 1.273438 -2.25 1.515625 -2.039062 1.796875 -1.84375 C 2.078125 -1.65625 2.390625 -1.488281 2.734375 -1.34375 C 3.085938 -1.207031 3.460938 -1.097656 3.859375 -1.015625 C 4.253906 -0.929688 4.671875 -0.890625 5.109375 -0.890625 C 6.015625 -0.890625 6.71875 -1.050781 7.21875 -1.375 C 7.726562 -1.707031 7.984375 -2.203125 7.984375 -2.859375 C 7.984375 -3.210938 7.910156 -3.507812 7.765625 -3.75 C 7.617188 -3.988281 7.398438 -4.195312 7.109375 -4.375 C 6.828125 -4.550781 6.472656 -4.703125 6.046875 -4.828125 C 5.617188 -4.960938 5.125 -5.09375 4.5625 -5.21875 C 3.957031 -5.351562 3.429688 -5.492188 2.984375 -5.640625 C 2.535156 -5.796875 2.15625 -5.984375 1.84375 -6.203125 C 1.539062 -6.429688 1.3125 -6.703125 1.15625 -7.015625 C 1 -7.328125 0.921875 -7.710938 0.921875 -8.171875 C 0.921875 -8.691406 1.019531 -9.15625 1.21875 -9.5625 C 1.414062 -9.976562 1.695312 -10.320312 2.0625 -10.59375 C 2.425781 -10.875 2.851562 -11.082031 3.34375 -11.21875 C 3.832031 -11.363281 4.375 -11.4375 4.96875 -11.4375 C 5.726562 -11.4375 6.40625 -11.320312 7 -11.09375 C 7.59375 -10.863281 8.128906 -10.539062 8.609375 -10.125 Z M 8.0625 -9.234375 "/></g></g></g><g fill="#ffffff" fill-opacity="1"><g transform="translate(575.898107, 132.067592)"><g><path d="M 1.46875 -3.640625 L 1.46875 -11.46875 L 2.5625 -11.46875 L 2.5625 -3.640625 Z M 1.46875 0 L 1.46875 -1.796875 L 2.5625 -1.796875 L 2.5625 0 Z M 1.46875 0 "/></g></g></g><g fill="#ffffff" fill-opacity="1"><g transform="translate(579.917642, 132.067592)"><g/></g></g><g clip-path="url(#d4e6a254e1)"><g clip-path="url(#79ef523d29)"><path fill="#ffffff" d="M 944.632812 115.5625 L 944.632812 160.742188 L 879.375 160.742188 L 879.375 115.5625 Z M 944.632812 115.5625 " fill-opacity="1" fill-rule="nonzero"/></g></g><g fill="#000000" fill-opacity="1"><g transform="translate(894.175336, 133.450737)"><g><path d="M 1.796875 0.421875 C 0.804688 0.242188 0.191406 -0.117188 -0.046875 -0.671875 C -0.296875 -1.222656 -0.203125 -2.023438 0.234375 -3.078125 L 0.65625 -4.109375 L 2.8125 -3.75 L 2.28125 -2.4375 C 2.0625 -1.914062 2.125 -1.625 2.46875 -1.5625 C 2.664062 -1.53125 2.828125 -1.5625 2.953125 -1.65625 C 3.078125 -1.75 3.191406 -1.929688 3.296875 -2.203125 C 3.441406 -2.546875 3.515625 -2.835938 3.515625 -3.078125 C 3.523438 -3.316406 3.492188 -3.523438 3.421875 -3.703125 C 3.359375 -3.878906 3.226562 -4.15625 3.03125 -4.53125 L 2.453125 -5.609375 C 2.003906 -6.421875 1.953125 -7.25 2.296875 -8.09375 C 2.671875 -8.988281 3.171875 -9.632812 3.796875 -10.03125 C 4.429688 -10.4375 5.164062 -10.570312 6 -10.4375 C 6.988281 -10.269531 7.597656 -9.894531 7.828125 -9.3125 C 8.054688 -8.726562 7.941406 -7.90625 7.484375 -6.84375 L 5.234375 -7.21875 L 5.53125 -7.9375 C 5.582031 -8.082031 5.585938 -8.203125 5.546875 -8.296875 C 5.503906 -8.390625 5.414062 -8.453125 5.28125 -8.484375 C 5.101562 -8.515625 4.945312 -8.488281 4.8125 -8.40625 C 4.6875 -8.320312 4.59375 -8.203125 4.53125 -8.046875 C 4.382812 -7.703125 4.441406 -7.3125 4.703125 -6.875 L 5.5 -5.46875 C 5.6875 -5.144531 5.820312 -4.835938 5.90625 -4.546875 C 6 -4.265625 6.035156 -3.941406 6.015625 -3.578125 C 5.992188 -3.222656 5.890625 -2.804688 5.703125 -2.328125 C 5.265625 -1.296875 4.734375 -0.539062 4.109375 -0.0625 C 3.492188 0.414062 2.722656 0.578125 1.796875 0.421875 Z M 1.796875 0.421875 "/></g></g></g><g fill="#000000" fill-opacity="1"><g transform="translate(900.094301, 134.446449)"><g><path d="M 1.8125 0.421875 C 0.9375 0.265625 0.367188 -0.109375 0.109375 -0.703125 C -0.140625 -1.304688 -0.0664062 -2.082031 0.328125 -3.03125 L 2.4375 -8.09375 C 2.8125 -8.988281 3.328125 -9.628906 3.984375 -10.015625 C 4.640625 -10.410156 5.414062 -10.53125 6.3125 -10.375 C 7.195312 -10.226562 7.769531 -9.882812 8.03125 -9.34375 C 8.300781 -8.800781 8.25 -8.078125 7.875 -7.171875 L 5.78125 -2.109375 C 5.382812 -1.160156 4.847656 -0.460938 4.171875 -0.015625 C 3.492188 0.421875 2.707031 0.566406 1.8125 0.421875 Z M 2.625 -1.53125 C 2.820312 -1.5 2.988281 -1.554688 3.125 -1.703125 C 3.257812 -1.859375 3.390625 -2.082031 3.515625 -2.375 L 5.671875 -7.578125 C 5.765625 -7.796875 5.8125 -7.984375 5.8125 -8.140625 C 5.8125 -8.304688 5.707031 -8.40625 5.5 -8.4375 C 5.144531 -8.5 4.851562 -8.257812 4.625 -7.71875 L 2.46875 -2.546875 C 2.34375 -2.253906 2.285156 -2.019531 2.296875 -1.84375 C 2.304688 -1.675781 2.414062 -1.570312 2.625 -1.53125 Z M 2.625 -1.53125 "/></g></g></g><g fill="#000000" fill-opacity="1"><g transform="translate(906.334253, 135.496158)"><g><path d="M -0.765625 -0.125 L 3.625 -10.734375 L 5.828125 -10.359375 L 2.1875 -1.5625 L 4.453125 -1.171875 L 3.71875 0.625 Z M -0.765625 -0.125 "/></g></g></g><g fill="#000000" fill-opacity="1"><g transform="translate(911.431497, 136.353637)"><g><path d="M 1.8125 0.421875 C 0.9375 0.265625 0.367188 -0.109375 0.109375 -0.703125 C -0.140625 -1.304688 -0.0664062 -2.082031 0.328125 -3.03125 L 2.4375 -8.09375 C 2.8125 -8.988281 3.328125 -9.628906 3.984375 -10.015625 C 4.640625 -10.410156 5.414062 -10.53125 6.3125 -10.375 C 7.195312 -10.226562 7.769531 -9.882812 8.03125 -9.34375 C 8.300781 -8.800781 8.25 -8.078125 7.875 -7.171875 L 5.78125 -2.109375 C 5.382812 -1.160156 4.847656 -0.460938 4.171875 -0.015625 C 3.492188 0.421875 2.707031 0.566406 1.8125 0.421875 Z M 2.625 -1.53125 C 2.820312 -1.5 2.988281 -1.554688 3.125 -1.703125 C 3.257812 -1.859375 3.390625 -2.082031 3.515625 -2.375 L 5.671875 -7.578125 C 5.765625 -7.796875 5.8125 -7.984375 5.8125 -8.140625 C 5.8125 -8.304688 5.707031 -8.40625 5.5 -8.4375 C 5.144531 -8.5 4.851562 -8.257812 4.625 -7.71875 L 2.46875 -2.546875 C 2.34375 -2.253906 2.285156 -2.019531 2.296875 -1.84375 C 2.304688 -1.675781 2.414062 -1.570312 2.625 -1.53125 Z M 2.625 -1.53125 "/></g></g></g><g fill="#000000" fill-opacity="1"><g transform="translate(883.851812, 144.983879)"><g><path d="M 3.625 -10.734375 L 6.546875 -10.25 C 7.429688 -10.09375 7.941406 -9.710938 8.078125 -9.109375 C 8.222656 -8.503906 8.082031 -7.664062 7.65625 -6.59375 C 7.21875 -5.5625 6.71875 -4.800781 6.15625 -4.3125 C 5.601562 -3.832031 4.894531 -3.664062 4.03125 -3.8125 L 3.140625 -3.953125 L 1.40625 0.234375 L -0.765625 -0.125 Z M 4.046875 -5.84375 C 4.316406 -5.800781 4.53125 -5.816406 4.6875 -5.890625 C 4.851562 -5.960938 4.988281 -6.082031 5.09375 -6.25 C 5.207031 -6.425781 5.34375 -6.679688 5.5 -7.015625 C 5.6875 -7.453125 5.765625 -7.78125 5.734375 -8 C 5.710938 -8.21875 5.550781 -8.351562 5.25 -8.40625 L 5 -8.453125 L 3.921875 -5.859375 Z M 4.046875 -5.84375 "/></g></g></g><g fill="#000000" fill-opacity="1"><g transform="translate(889.912011, 146.003349)"><g><path d="M 1.8125 0.421875 C 0.9375 0.265625 0.367188 -0.109375 0.109375 -0.703125 C -0.140625 -1.304688 -0.0664062 -2.082031 0.328125 -3.03125 L 2.4375 -8.09375 C 2.8125 -8.988281 3.328125 -9.628906 3.984375 -10.015625 C 4.640625 -10.410156 5.414062 -10.53125 6.3125 -10.375 C 7.195312 -10.226562 7.769531 -9.882812 8.03125 -9.34375 C 8.300781 -8.800781 8.25 -8.078125 7.875 -7.171875 L 5.78125 -2.109375 C 5.382812 -1.160156 4.847656 -0.460938 4.171875 -0.015625 C 3.492188 0.421875 2.707031 0.566406 1.8125 0.421875 Z M 2.625 -1.53125 C 2.820312 -1.5 2.988281 -1.554688 3.125 -1.703125 C 3.257812 -1.859375 3.390625 -2.082031 3.515625 -2.375 L 5.671875 -7.578125 C 5.765625 -7.796875 5.8125 -7.984375 5.8125 -8.140625 C 5.8125 -8.304688 5.707031 -8.40625 5.5 -8.4375 C 5.144531 -8.5 4.851562 -8.257812 4.625 -7.71875 L 2.46875 -2.546875 C 2.34375 -2.253906 2.285156 -2.019531 2.296875 -1.84375 C 2.304688 -1.675781 2.414062 -1.570312 2.625 -1.53125 Z M 2.625 -1.53125 "/></g></g></g><g fill="#000000" fill-opacity="1"><g transform="translate(896.151962, 147.053059)"><g><path d="M 3.625 -10.734375 L 7.015625 -10.15625 C 7.566406 -10.070312 7.9375 -9.882812 8.125 -9.59375 C 8.320312 -9.3125 8.382812 -8.945312 8.3125 -8.5 C 8.238281 -8.0625 8.066406 -7.515625 7.796875 -6.859375 C 7.535156 -6.265625 7.253906 -5.8125 6.953125 -5.5 C 6.660156 -5.195312 6.285156 -5.007812 5.828125 -4.9375 C 6.128906 -4.820312 6.300781 -4.625 6.34375 -4.34375 C 6.382812 -4.0625 6.316406 -3.695312 6.140625 -3.25 L 4.453125 0.75 L 2.296875 0.390625 L 4 -3.765625 C 4.132812 -4.054688 4.15625 -4.253906 4.0625 -4.359375 C 3.976562 -4.460938 3.78125 -4.539062 3.46875 -4.59375 L 1.46875 0.25 L -0.765625 -0.125 Z M 4.78125 -6.34375 C 5.082031 -6.289062 5.367188 -6.585938 5.640625 -7.234375 C 5.753906 -7.503906 5.828125 -7.707031 5.859375 -7.84375 C 5.890625 -7.988281 5.878906 -8.09375 5.828125 -8.15625 C 5.785156 -8.226562 5.695312 -8.273438 5.5625 -8.296875 L 5.0625 -8.390625 L 4.25 -6.4375 Z M 4.78125 -6.34375 "/></g></g></g><g fill="#000000" fill-opacity="1"><g transform="translate(902.276358, 148.083329)"><g/></g></g><g fill="#000000" fill-opacity="1"><g transform="translate(905.280778, 148.588744)"><g><path d="M -0.765625 -0.125 L 3.625 -10.734375 L 5.828125 -10.359375 L 4.234375 -6.578125 L 5.28125 -6.40625 L 6.859375 -10.1875 L 9.0625 -9.828125 L 4.671875 0.78125 L 2.46875 0.421875 L 4.46875 -4.390625 L 3.4375 -4.5625 L 1.4375 0.234375 Z M -0.765625 -0.125 "/></g></g></g><g fill="#000000" fill-opacity="1"><g transform="translate(911.687642, 149.666532)"><g><path d="M 1.8125 0.421875 C 0.9375 0.265625 0.367188 -0.109375 0.109375 -0.703125 C -0.140625 -1.304688 -0.0664062 -2.082031 0.328125 -3.03125 L 2.4375 -8.09375 C 2.8125 -8.988281 3.328125 -9.628906 3.984375 -10.015625 C 4.640625 -10.410156 5.414062 -10.53125 6.3125 -10.375 C 7.195312 -10.226562 7.769531 -9.882812 8.03125 -9.34375 C 8.300781 -8.800781 8.25 -8.078125 7.875 -7.171875 L 5.78125 -2.109375 C 5.382812 -1.160156 4.847656 -0.460938 4.171875 -0.015625 C 3.492188 0.421875 2.707031 0.566406 1.8125 0.421875 Z M 2.625 -1.53125 C 2.820312 -1.5 2.988281 -1.554688 3.125 -1.703125 C 3.257812 -1.859375 3.390625 -2.082031 3.515625 -2.375 L 5.671875 -7.578125 C 5.765625 -7.796875 5.8125 -7.984375 5.8125 -8.140625 C 5.8125 -8.304688 5.707031 -8.40625 5.5 -8.4375 C 5.144531 -8.5 4.851562 -8.257812 4.625 -7.71875 L 2.46875 -2.546875 C 2.34375 -2.253906 2.285156 -2.019531 2.296875 -1.84375 C 2.304688 -1.675781 2.414062 -1.570312 2.625 -1.53125 Z M 2.625 -1.53125 "/></g></g></g><g fill="#000000" fill-opacity="1"><g transform="translate(917.927593, 150.716241)"><g><path d="M 0.5625 0.09375 L 2 -3.40625 L 3.203125 -10.8125 L 5.375 -10.4375 L 4.484375 -6.734375 L 6.609375 -10.234375 L 8.796875 -9.859375 L 4.078125 -3.0625 L 2.640625 0.4375 Z M 0.5625 0.09375 "/></g></g></g><g clip-path="url(#efbc08cee0)"><g clip-path="url(#0cc122eb5f)"><g clip-path="url(#83b5b73db9)"><g clip-path="url(#cc60b091a9)"><path fill="#000000" d="M 932.328125 147.542969 L 933.640625 147.820312 L 934.824219 148.070312 L 940.027344 128.824219 L 937.746094 128.34375 L 936.433594 128.066406 L 934.15625 127.585938 L 931.140625 147.292969 Z M 932.328125 147.542969 " fill-opacity="1" fill-rule="nonzero"/></g></g></g></g><g clip-path="url(#f7f4618b7b)"><g clip-path="url(#f163bde2bc)"><g clip-path="url(#27bb5a8757)"><g clip-path="url(#8da528cdcf)"><path fill="#000000" d="M 935.019531 151.578125 C 934.941406 151.9375 934.800781 152.265625 934.59375 152.566406 C 934.382812 152.867188 934.125 153.117188 933.816406 153.3125 C 933.503906 153.511719 933.167969 153.644531 932.804688 153.710938 C 932.441406 153.777344 932.078125 153.769531 931.714844 153.695312 C 931.351562 153.617188 931.019531 153.476562 930.710938 153.269531 C 930.40625 153.0625 930.152344 152.804688 929.949219 152.496094 C 929.746094 152.191406 929.609375 151.859375 929.539062 151.5 C 929.46875 151.140625 929.472656 150.78125 929.546875 150.425781 C 929.625 150.066406 929.765625 149.738281 929.972656 149.4375 C 930.183594 149.136719 930.441406 148.886719 930.75 148.691406 C 931.058594 148.492188 931.398438 148.359375 931.761719 148.292969 C 932.125 148.226562 932.488281 148.234375 932.851562 148.308594 C 933.214844 148.386719 933.546875 148.527344 933.855469 148.734375 C 934.160156 148.941406 934.414062 149.199219 934.617188 149.507812 C 934.820312 149.8125 934.957031 150.144531 935.027344 150.503906 C 935.097656 150.863281 935.09375 151.222656 935.019531 151.578125 Z M 935.019531 151.578125 " fill-opacity="1" fill-rule="nonzero"/></g></g></g></g><g fill="#ffffff" fill-opacity="1"><g transform="translate(137.568591, 208.235721)"><g><path d="M 1.75 0 L 0.625 0 L 0.625 -11.203125 L 2.203125 -11.203125 L 4.796875 -3.109375 L 4.796875 -11.203125 L 5.90625 -11.203125 L 5.90625 0 L 4.609375 0 L 1.75 -9.0625 Z M 1.75 0 "/></g></g></g><g fill="#ffffff" fill-opacity="1"><g transform="translate(144.111017, 208.235721)"><g><path d="M 1.828125 -2.640625 C 1.828125 -2.128906 1.929688 -1.734375 2.140625 -1.453125 C 2.347656 -1.171875 2.679688 -1.03125 3.140625 -1.03125 C 3.585938 -1.03125 3.914062 -1.171875 4.125 -1.453125 C 4.332031 -1.734375 4.4375 -2.128906 4.4375 -2.640625 L 4.4375 -11.203125 L 5.59375 -11.203125 L 5.59375 -2.703125 C 5.59375 -1.847656 5.390625 -1.160156 4.984375 -0.640625 C 4.585938 -0.128906 3.957031 0.125 3.09375 0.125 C 2.238281 0.125 1.609375 -0.128906 1.203125 -0.640625 C 0.796875 -1.160156 0.59375 -1.847656 0.59375 -2.703125 L 0.59375 -11.203125 L 1.828125 -11.203125 Z M 1.828125 -2.640625 "/></g></g></g><g fill="#ffffff" fill-opacity="1"><g transform="translate(150.301527, 208.235721)"><g><path d="M 4.625 -6.234375 L 4.625 -5.125 L 1.890625 -5.125 L 1.890625 -1.140625 L 5.25 -1.140625 L 5.25 0 L 0.640625 0 L 0.640625 -11.203125 L 5.25 -11.203125 L 5.25 -10.0625 L 1.890625 -10.0625 L 1.890625 -6.234375 Z M 4.625 -6.234375 "/></g></g></g><g fill="#ffffff" fill-opacity="1"><g transform="translate(156.060147, 208.235721)"><g><path d="M 1.578125 -11.203125 L 3.40625 -1.453125 L 5.21875 -11.203125 L 6.375 -11.203125 L 4.265625 0 L 2.4375 0 L 0.3125 -11.203125 Z M 1.578125 -11.203125 "/></g></g></g><g fill="#ffffff" fill-opacity="1"><g transform="translate(162.74654, 208.235721)"><g><path d="M 1.90625 -2.25 L 1.46875 0 L 0.3125 0 L 2.46875 -11.203125 L 4.265625 -11.203125 L 6.421875 0 L 5.171875 0 L 4.734375 -2.25 Z M 2.0625 -3.328125 L 4.5625 -3.328125 L 3.296875 -9.796875 Z M 2.0625 -3.328125 "/></g></g></g><g fill="#ffffff" fill-opacity="1"><g transform="translate(169.496917, 208.235721)"><g/></g></g><g fill="#ffffff" fill-opacity="1"><g transform="translate(171.976325, 208.235721)"><g><path d="M 2.984375 -11.3125 C 3.835938 -11.3125 4.46875 -11.054688 4.875 -10.546875 C 5.28125 -10.046875 5.484375 -9.367188 5.484375 -8.515625 L 5.484375 -8.203125 L 4.296875 -8.203125 L 4.296875 -8.578125 C 4.296875 -9.085938 4.195312 -9.476562 4 -9.75 C 3.800781 -10.03125 3.476562 -10.171875 3.03125 -10.171875 C 2.582031 -10.171875 2.253906 -10.03125 2.046875 -9.75 C 1.847656 -9.476562 1.75 -9.09375 1.75 -8.59375 C 1.75 -8.175781 1.835938 -7.8125 2.015625 -7.5 C 2.203125 -7.195312 2.4375 -6.910156 2.71875 -6.640625 C 3 -6.378906 3.300781 -6.125 3.625 -5.875 C 3.945312 -5.625 4.242188 -5.347656 4.515625 -5.046875 C 4.796875 -4.753906 5.03125 -4.414062 5.21875 -4.03125 C 5.40625 -3.65625 5.5 -3.207031 5.5 -2.6875 C 5.5 -1.832031 5.289062 -1.148438 4.875 -0.640625 C 4.46875 -0.140625 3.832031 0.109375 2.96875 0.109375 C 2.113281 0.109375 1.484375 -0.140625 1.078125 -0.640625 C 0.671875 -1.148438 0.46875 -1.832031 0.46875 -2.6875 L 0.46875 -3.328125 L 1.625 -3.328125 L 1.625 -2.625 C 1.625 -2.113281 1.726562 -1.71875 1.9375 -1.4375 C 2.15625 -1.164062 2.488281 -1.03125 2.9375 -1.03125 C 3.382812 -1.03125 3.710938 -1.164062 3.921875 -1.4375 C 4.140625 -1.71875 4.25 -2.113281 4.25 -2.625 C 4.25 -3.039062 4.15625 -3.398438 3.96875 -3.703125 C 3.789062 -4.003906 3.5625 -4.285156 3.28125 -4.546875 C 3 -4.804688 2.695312 -5.0625 2.375 -5.3125 C 2.0625 -5.570312 1.765625 -5.847656 1.484375 -6.140625 C 1.210938 -6.441406 0.984375 -6.78125 0.796875 -7.15625 C 0.609375 -7.539062 0.515625 -7.992188 0.515625 -8.515625 C 0.515625 -9.378906 0.71875 -10.0625 1.125 -10.5625 C 1.53125 -11.0625 2.148438 -11.3125 2.984375 -11.3125 Z M 2.984375 -11.3125 "/></g></g></g><g fill="#ffffff" fill-opacity="1"><g transform="translate(177.926898, 208.235721)"><g><path d="M 1.828125 -2.640625 C 1.828125 -2.128906 1.929688 -1.734375 2.140625 -1.453125 C 2.347656 -1.171875 2.679688 -1.03125 3.140625 -1.03125 C 3.585938 -1.03125 3.914062 -1.171875 4.125 -1.453125 C 4.332031 -1.734375 4.4375 -2.128906 4.4375 -2.640625 L 4.4375 -11.203125 L 5.59375 -11.203125 L 5.59375 -2.703125 C 5.59375 -1.847656 5.390625 -1.160156 4.984375 -0.640625 C 4.585938 -0.128906 3.957031 0.125 3.09375 0.125 C 2.238281 0.125 1.609375 -0.128906 1.203125 -0.640625 C 0.796875 -1.160156 0.59375 -1.847656 0.59375 -2.703125 L 0.59375 -11.203125 L 1.828125 -11.203125 Z M 1.828125 -2.640625 "/></g></g></g><g fill="#ffffff" fill-opacity="1"><g transform="translate(184.117407, 208.235721)"><g><path d="M 3.09375 -11.203125 C 3.976562 -11.203125 4.613281 -10.957031 5 -10.46875 C 5.394531 -9.988281 5.59375 -9.320312 5.59375 -8.46875 L 5.59375 -7.125 C 5.59375 -6.226562 5.382812 -5.550781 4.96875 -5.09375 C 4.550781 -4.644531 3.890625 -4.421875 2.984375 -4.421875 L 1.890625 -4.421875 L 1.890625 0 L 0.640625 0 L 0.640625 -11.203125 Z M 2.984375 -5.53125 C 3.460938 -5.53125 3.8125 -5.644531 4.03125 -5.875 C 4.257812 -6.101562 4.375 -6.492188 4.375 -7.046875 L 4.375 -8.53125 C 4.375 -9.039062 4.273438 -9.421875 4.078125 -9.671875 C 3.878906 -9.929688 3.550781 -10.0625 3.09375 -10.0625 L 1.890625 -10.0625 L 1.890625 -5.53125 Z M 2.984375 -5.53125 "/></g></g></g><g fill="#ffffff" fill-opacity="1"><g transform="translate(190.099966, 208.235721)"><g><path d="M 4.625 -6.234375 L 4.625 -5.125 L 1.890625 -5.125 L 1.890625 -1.140625 L 5.25 -1.140625 L 5.25 0 L 0.640625 0 L 0.640625 -11.203125 L 5.25 -11.203125 L 5.25 -10.0625 L 1.890625 -10.0625 L 1.890625 -6.234375 Z M 4.625 -6.234375 "/></g></g></g><g fill="#ffffff" fill-opacity="1"><g transform="translate(195.858586, 208.235721)"><g><path d="M 3.140625 -11.203125 C 4.023438 -11.203125 4.660156 -10.984375 5.046875 -10.546875 C 5.429688 -10.109375 5.625 -9.472656 5.625 -8.640625 L 5.625 -7.734375 C 5.625 -7.109375 5.507812 -6.601562 5.28125 -6.21875 C 5.0625 -5.832031 4.710938 -5.566406 4.234375 -5.421875 C 4.753906 -5.273438 5.117188 -5 5.328125 -4.59375 C 5.535156 -4.195312 5.640625 -3.695312 5.640625 -3.09375 L 5.640625 -1.34375 C 5.640625 -1.09375 5.648438 -0.851562 5.671875 -0.625 C 5.703125 -0.394531 5.769531 -0.1875 5.875 0 L 4.609375 0 C 4.535156 -0.15625 4.484375 -0.328125 4.453125 -0.515625 C 4.421875 -0.703125 4.40625 -0.984375 4.40625 -1.359375 L 4.40625 -3.125 C 4.40625 -3.75 4.257812 -4.179688 3.96875 -4.421875 C 3.6875 -4.660156 3.285156 -4.78125 2.765625 -4.78125 L 1.890625 -4.78125 L 1.890625 0 L 0.640625 0 L 0.640625 -11.203125 Z M 2.8125 -5.921875 C 3.3125 -5.921875 3.703125 -6.023438 3.984375 -6.234375 C 4.265625 -6.441406 4.40625 -6.847656 4.40625 -7.453125 L 4.40625 -8.53125 C 4.40625 -9.039062 4.304688 -9.421875 4.109375 -9.671875 C 3.910156 -9.929688 3.578125 -10.0625 3.109375 -10.0625 L 1.890625 -10.0625 L 1.890625 -5.921875 Z M 2.8125 -5.921875 "/></g></g></g><g fill="#ffffff" fill-opacity="1"><g transform="translate(202.161076, 208.235721)"><g/></g></g><g fill="#ffffff" fill-opacity="1"><g transform="translate(204.640484, 208.235721)"><g><path d="M 0.546875 -8.5 C 0.546875 -9.363281 0.753906 -10.046875 1.171875 -10.546875 C 1.597656 -11.054688 2.242188 -11.3125 3.109375 -11.3125 C 3.972656 -11.3125 4.617188 -11.054688 5.046875 -10.546875 C 5.472656 -10.046875 5.6875 -9.363281 5.6875 -8.5 L 5.6875 -2.703125 C 5.6875 -1.847656 5.472656 -1.164062 5.046875 -0.65625 C 4.617188 -0.144531 3.972656 0.109375 3.109375 0.109375 C 2.242188 0.109375 1.597656 -0.144531 1.171875 -0.65625 C 0.753906 -1.164062 0.546875 -1.847656 0.546875 -2.703125 Z M 1.78125 -2.640625 C 1.78125 -2.128906 1.890625 -1.734375 2.109375 -1.453125 C 2.328125 -1.171875 2.660156 -1.03125 3.109375 -1.03125 C 3.566406 -1.03125 3.898438 -1.171875 4.109375 -1.453125 C 4.328125 -1.734375 4.4375 -2.128906 4.4375 -2.640625 L 4.4375 -8.5625 C 4.4375 -9.070312 4.328125 -9.46875 4.109375 -9.75 C 3.898438 -10.03125 3.566406 -10.171875 3.109375 -10.171875 C 2.660156 -10.171875 2.328125 -10.03125 2.109375 -9.75 C 1.890625 -9.46875 1.78125 -9.070312 1.78125 -8.5625 Z M 1.78125 -2.640625 "/></g></g></g><g fill="#ffffff" fill-opacity="1"><g transform="translate(210.862991, 208.235721)"><g><path d="M 4.46875 -5.984375 L 4.46875 -4.84375 L 1.890625 -4.84375 L 1.890625 0 L 0.640625 0 L 0.640625 -11.203125 L 5.09375 -11.203125 L 5.09375 -10.0625 L 1.890625 -10.0625 L 1.890625 -5.984375 Z M 4.46875 -5.984375 "/></g></g></g><g fill="#ffffff" fill-opacity="1"><g transform="translate(216.30168, 208.235721)"><g><path d="M 4.625 -6.234375 L 4.625 -5.125 L 1.890625 -5.125 L 1.890625 -1.140625 L 5.25 -1.140625 L 5.25 0 L 0.640625 0 L 0.640625 -11.203125 L 5.25 -11.203125 L 5.25 -10.0625 L 1.890625 -10.0625 L 1.890625 -6.234375 Z M 4.625 -6.234375 "/></g></g></g><g fill="#ffffff" fill-opacity="1"><g transform="translate(222.060301, 208.235721)"><g><path d="M 3.140625 -11.203125 C 4.023438 -11.203125 4.660156 -10.984375 5.046875 -10.546875 C 5.429688 -10.109375 5.625 -9.472656 5.625 -8.640625 L 5.625 -7.734375 C 5.625 -7.109375 5.507812 -6.601562 5.28125 -6.21875 C 5.0625 -5.832031 4.710938 -5.566406 4.234375 -5.421875 C 4.753906 -5.273438 5.117188 -5 5.328125 -4.59375 C 5.535156 -4.195312 5.640625 -3.695312 5.640625 -3.09375 L 5.640625 -1.34375 C 5.640625 -1.09375 5.648438 -0.851562 5.671875 -0.625 C 5.703125 -0.394531 5.769531 -0.1875 5.875 0 L 4.609375 0 C 4.535156 -0.15625 4.484375 -0.328125 4.453125 -0.515625 C 4.421875 -0.703125 4.40625 -0.984375 4.40625 -1.359375 L 4.40625 -3.125 C 4.40625 -3.75 4.257812 -4.179688 3.96875 -4.421875 C 3.6875 -4.660156 3.285156 -4.78125 2.765625 -4.78125 L 1.890625 -4.78125 L 1.890625 0 L 0.640625 0 L 0.640625 -11.203125 Z M 2.8125 -5.921875 C 3.3125 -5.921875 3.703125 -6.023438 3.984375 -6.234375 C 4.265625 -6.441406 4.40625 -6.847656 4.40625 -7.453125 L 4.40625 -8.53125 C 4.40625 -9.039062 4.304688 -9.421875 4.109375 -9.671875 C 3.910156 -9.929688 3.578125 -10.0625 3.109375 -10.0625 L 1.890625 -10.0625 L 1.890625 -5.921875 Z M 2.8125 -5.921875 "/></g></g></g><g fill="#ffffff" fill-opacity="1"><g transform="translate(228.362791, 208.235721)"><g><path d="M 2.265625 0 L 2.265625 -10.0625 L 0.203125 -10.0625 L 0.203125 -11.203125 L 5.578125 -11.203125 L 5.578125 -10.0625 L 3.515625 -10.0625 L 3.515625 0 Z M 2.265625 0 "/></g></g></g><g fill="#ffffff" fill-opacity="1"><g transform="translate(234.169396, 208.235721)"><g><path d="M 1.90625 -2.25 L 1.46875 0 L 0.3125 0 L 2.46875 -11.203125 L 4.265625 -11.203125 L 6.421875 0 L 5.171875 0 L 4.734375 -2.25 Z M 2.0625 -3.328125 L 4.5625 -3.328125 L 3.296875 -9.796875 Z M 2.0625 -3.328125 "/></g></g></g><path stroke-linecap="butt" transform="matrix(0.75, 0, 0, 0.75, 97.520532, 100.911253)" fill="none" stroke-linejoin="miter" d="M 54.790338 49.587084 L 54.790338 55.743334 L 40.826795 55.743334 L 40.826795 81.998545 L 34.076794 81.998545 L 34.076794 21.342289 L 58.175755 21.342289 L 58.175755 27.49854 L 40.826795 27.49854 L 40.826795 49.587084 Z M 77.061174 21.342289 C 81.858049 21.342289 85.305966 22.524581 87.410133 24.894373 C 89.524716 27.264165 90.582008 30.701665 90.582008 35.201666 L 90.582008 40.149583 C 90.582008 43.493333 89.972633 46.206875 88.7643 48.295417 C 87.550758 50.368334 85.639299 51.811042 83.029924 52.613126 C 85.805966 53.430834 87.774716 54.925626 88.930966 57.097501 C 90.087217 59.253751 90.665342 61.97771 90.665342 65.264169 L 90.665342 74.722503 C 90.665342 76.04542 90.722633 77.331878 90.837217 78.571462 C 90.946592 79.816253 91.29555 80.956879 91.873675 81.998545 L 85.040341 81.998545 C 84.628883 81.13917 84.332008 80.20167 84.149716 79.186045 C 83.977841 78.17042 83.894508 76.654795 83.894508 74.63917 L 83.894508 65.097502 C 83.894508 61.69646 83.128883 59.347501 81.587216 58.050626 C 80.066382 56.738126 77.894507 56.081876 75.07159 56.081876 L 70.29034 56.081876 L 70.29034 81.998545 L 63.540339 81.998545 L 63.540339 21.342289 Z M 75.326798 49.925625 C 78.035132 49.925625 80.134091 49.368334 81.634091 48.25375 C 83.139299 47.123542 83.894508 44.91 83.894508 41.613125 L 83.894508 35.816249 C 83.894508 33.034999 83.358049 30.956874 82.285132 29.571457 C 81.227841 28.191248 79.430965 27.49854 76.894507 27.49854 L 70.29034 27.49854 L 70.29034 49.925625 Z M 104.436176 21.342289 L 104.436176 81.998545 L 97.686176 81.998545 L 97.686176 21.342289 Z M 125.592428 21.342289 C 130.321595 21.342289 133.795554 22.691248 136.024721 25.383956 C 138.253888 28.06104 139.368471 31.743332 139.368471 36.425624 L 139.368471 66.998544 C 139.368471 71.680836 138.253888 75.35792 136.024721 78.024587 C 133.795554 80.675628 130.321595 81.998545 125.592428 81.998545 L 111.378885 81.998545 L 111.378885 21.342289 Z M 125.488262 75.842295 C 127.93097 75.842295 129.733054 75.10792 130.904929 73.644378 C 132.087221 72.160003 132.680971 70.040211 132.680971 67.274585 L 132.680971 36.066249 C 132.680971 33.300624 132.087221 31.18604 130.904929 29.722498 C 129.733054 28.238123 127.89972 27.49854 125.404928 27.49854 L 118.123678 27.49854 L 118.123678 75.842295 Z M 152.524723 69.769377 L 150.196597 81.998545 L 143.957013 81.998545 L 155.571598 21.342289 L 165.368474 21.342289 L 176.962225 81.998545 L 170.212224 81.998545 L 167.863266 69.769377 Z M 153.394514 63.972502 L 166.915349 63.972502 L 160.082015 28.956873 Z M 193.009102 60.248543 L 180.186184 21.342289 L 187.191393 21.342289 L 196.649727 51.154792 L 206.170561 21.342289 L 212.58202 21.342289 L 199.675769 60.248543 L 199.675769 81.998545 L 193.009102 81.998545 Z M 193.009102 60.248543 " stroke="#ffffff" stroke-width="2.708334" stroke-opacity="1" stroke-miterlimit="4"/><g clip-path="url(#7f574c5943)"><g clip-path="url(#2b87c1cdfd)"><path fill="#ffffff" d="M 721.003906 26.273438 L 837.019531 26.273438 L 837.019531 125.414062 L 721.003906 125.414062 Z M 721.003906 26.273438 " fill-opacity="1" fill-rule="nonzero"/></g></g><g fill="#000000" fill-opacity="1"><g transform="translate(755.118957, 49.726002)"><g><path d="M -1.234375 0 L 2.8125 -17.53125 L 6.296875 -17.53125 L 4.859375 -11.265625 L 6.5 -11.265625 L 7.953125 -17.53125 L 11.4375 -17.53125 L 7.40625 0 L 3.90625 0 L 5.75 -7.953125 L 4.09375 -7.953125 L 2.265625 0 Z M -1.234375 0 "/></g></g></g><g fill="#000000" fill-opacity="1"><g transform="translate(765.298407, 49.726002)"><g><path d="M -1.703125 0 L 4.03125 -17.53125 L 9.96875 -17.53125 L 7.609375 0 L 4.28125 0 L 4.6875 -2.84375 L 2.5625 -2.84375 L 1.703125 0 Z M 3.484375 -5.625 L 5.078125 -5.625 L 6.34375 -14.546875 L 6.171875 -14.546875 Z M 3.484375 -5.625 "/></g></g></g><g fill="#000000" fill-opacity="1"><g transform="translate(775.192262, 49.726002)"><g><path d="M 2.890625 0.15625 C 1.296875 0.15625 0.238281 -0.234375 -0.28125 -1.015625 C -0.800781 -1.804688 -0.859375 -3.082031 -0.453125 -4.84375 L -0.0625 -6.546875 L 3.375 -6.546875 L 2.875 -4.359375 C 2.664062 -3.492188 2.84375 -3.0625 3.40625 -3.0625 C 3.71875 -3.0625 3.957031 -3.148438 4.125 -3.328125 C 4.289062 -3.515625 4.425781 -3.828125 4.53125 -4.265625 C 4.664062 -4.835938 4.703125 -5.3125 4.640625 -5.6875 C 4.585938 -6.0625 4.488281 -6.375 4.34375 -6.625 C 4.195312 -6.875 3.910156 -7.265625 3.484375 -7.796875 L 2.328125 -9.3125 C 1.421875 -10.445312 1.125 -11.707031 1.4375 -13.09375 C 1.78125 -14.59375 2.382812 -15.734375 3.25 -16.515625 C 4.125 -17.296875 5.222656 -17.6875 6.546875 -17.6875 C 8.117188 -17.6875 9.15625 -17.269531 9.65625 -16.4375 C 10.164062 -15.601562 10.210938 -14.296875 9.796875 -12.515625 L 6.21875 -12.515625 L 6.484375 -13.71875 C 6.535156 -13.945312 6.515625 -14.128906 6.421875 -14.265625 C 6.328125 -14.398438 6.164062 -14.46875 5.9375 -14.46875 C 5.664062 -14.46875 5.441406 -14.390625 5.265625 -14.234375 C 5.085938 -14.085938 4.96875 -13.882812 4.90625 -13.625 C 4.769531 -13.0625 4.960938 -12.472656 5.484375 -11.859375 L 7.078125 -9.890625 C 7.441406 -9.429688 7.734375 -8.992188 7.953125 -8.578125 C 8.171875 -8.160156 8.3125 -7.671875 8.375 -7.109375 C 8.4375 -6.546875 8.378906 -5.875 8.203125 -5.09375 C 7.796875 -3.375 7.171875 -2.066406 6.328125 -1.171875 C 5.492188 -0.285156 4.347656 0.15625 2.890625 0.15625 Z M 2.890625 0.15625 "/></g></g></g><g fill="#000000" fill-opacity="1"><g transform="translate(784.596524, 49.726002)"><g><path d="M 0.265625 0 L 3.53125 -14.15625 L 1.453125 -14.15625 L 2.21875 -17.53125 L 9.890625 -17.53125 L 9.125 -14.15625 L 7.046875 -14.15625 L 3.78125 0 Z M 0.265625 0 "/></g></g></g><g fill="#000000" fill-opacity="1"><g transform="translate(792.674807, 49.726002)"><g><path d="M -1.703125 0 L 4.03125 -17.53125 L 9.96875 -17.53125 L 7.609375 0 L 4.28125 0 L 4.6875 -2.84375 L 2.5625 -2.84375 L 1.703125 0 Z M 3.484375 -5.625 L 5.078125 -5.625 L 6.34375 -14.546875 L 6.171875 -14.546875 Z M 3.484375 -5.625 "/></g></g></g><g fill="#000000" fill-opacity="1"><g transform="translate(743.296589, 90.227704)"><g><path d="M 4.953125 0.359375 C 2.203125 0.359375 0.367188 -0.359375 -0.546875 -1.796875 C -1.472656 -3.242188 -1.597656 -5.453125 -0.921875 -8.421875 L -0.15625 -11.703125 L 6.265625 -11.703125 L 5.5 -8.421875 C 5.28125 -7.472656 5.226562 -6.738281 5.34375 -6.21875 C 5.46875 -5.695312 5.894531 -5.4375 6.625 -5.4375 C 7.132812 -5.4375 7.546875 -5.617188 7.859375 -5.984375 C 8.179688 -6.347656 8.425781 -6.773438 8.59375 -7.265625 C 8.769531 -7.765625 8.96875 -8.488281 9.1875 -9.4375 L 9.328125 -10.203125 C 9.960938 -12.898438 9.390625 -14.25 7.609375 -14.25 C 7.296875 -14.25 7.09375 -14.238281 7 -14.21875 L 8.265625 -19.828125 C 9.390625 -19.828125 10.289062 -20.078125 10.96875 -20.578125 C 11.644531 -21.078125 12.109375 -21.875 12.359375 -22.96875 C 12.765625 -24.738281 12.457031 -25.625 11.4375 -25.625 C 10.8125 -25.625 10.367188 -25.460938 10.109375 -25.140625 C 9.859375 -24.828125 9.644531 -24.425781 9.46875 -23.9375 C 9.300781 -23.457031 9.179688 -23.109375 9.109375 -22.890625 L 8.890625 -21.9375 L 2.40625 -21.9375 L 2.625 -23.03125 C 3.300781 -25.90625 4.460938 -28.015625 6.109375 -29.359375 C 7.765625 -30.710938 9.976562 -31.390625 12.75 -31.390625 C 18.070312 -31.390625 20.085938 -28.601562 18.796875 -23.03125 C 18.410156 -21.40625 17.890625 -20.113281 17.234375 -19.15625 C 16.578125 -18.195312 15.664062 -17.523438 14.5 -17.140625 C 15.28125 -16.703125 15.8125 -16.160156 16.09375 -15.515625 C 16.375 -14.867188 16.46875 -14.082031 16.375 -13.15625 C 16.289062 -12.238281 16.082031 -11 15.75 -9.4375 C 14.988281 -6.207031 13.738281 -3.765625 12 -2.109375 C 10.269531 -0.460938 7.921875 0.359375 4.953125 0.359375 Z M 4.953125 0.359375 "/></g></g></g><g fill="#000000" fill-opacity="1"><g transform="translate(761.302793, 90.227704)"><g><path d="M 5.359375 0.4375 C 2.847656 0.4375 1 -0.175781 -0.1875 -1.40625 C -1.375 -2.632812 -1.691406 -4.453125 -1.140625 -6.859375 L -0.078125 -11.484375 L 6.453125 -11.484375 L 5.828125 -8.828125 C 5.585938 -7.753906 5.503906 -6.910156 5.578125 -6.296875 C 5.648438 -5.691406 6.023438 -5.390625 6.703125 -5.390625 C 7.335938 -5.390625 7.816406 -5.597656 8.140625 -6.015625 C 8.472656 -6.429688 8.734375 -7.039062 8.921875 -7.84375 L 10.34375 -14 C 10.5625 -15 10.640625 -15.796875 10.578125 -16.390625 C 10.523438 -16.984375 10.171875 -17.28125 9.515625 -17.28125 C 8.316406 -17.28125 7.515625 -16.414062 7.109375 -14.6875 L 1.375 -14.6875 L 5.25 -31.34375 L 20.15625 -31.34375 L 18.765625 -25.484375 L 9.796875 -25.484375 L 8.8125 -21.0625 C 9.207031 -21.476562 9.707031 -21.816406 10.3125 -22.078125 C 10.914062 -22.347656 11.5625 -22.484375 12.25 -22.484375 C 14.875 -22.484375 16.445312 -21.5625 16.96875 -19.71875 C 17.488281 -17.875 17.359375 -15.265625 16.578125 -11.890625 C 15.953125 -9.085938 15.238281 -6.816406 14.4375 -5.078125 C 13.632812 -3.347656 12.507812 -1.992188 11.0625 -1.015625 C 9.613281 -0.046875 7.710938 0.4375 5.359375 0.4375 Z M 5.359375 0.4375 "/></g></g></g><g fill="#000000" fill-opacity="1"><g transform="translate(779.308997, 90.227704)"><g><path d="M 8.125 0 L 25.046875 -31.453125 L 30.796875 -31.453125 L 13.890625 0 Z M 6.265625 -9.40625 C 4.078125 -9.40625 2.523438 -10.070312 1.609375 -11.40625 C 0.703125 -12.75 0.519531 -14.570312 1.0625 -16.875 L 2.546875 -23.328125 C 3.109375 -25.734375 4.113281 -27.570312 5.5625 -28.84375 C 7.007812 -30.125 8.882812 -30.765625 11.1875 -30.765625 C 13.519531 -30.765625 15.125 -30.125 16 -28.84375 C 16.875 -27.570312 17.035156 -25.734375 16.484375 -23.328125 L 14.984375 -16.875 C 14.453125 -14.570312 13.421875 -12.75 11.890625 -11.40625 C 10.359375 -10.070312 8.484375 -9.40625 6.265625 -9.40625 Z M 7.359375 -14.078125 C 7.828125 -14.078125 8.257812 -14.242188 8.65625 -14.578125 C 9.0625 -14.921875 9.320312 -15.335938 9.4375 -15.828125 L 11.40625 -24.453125 C 11.601562 -25.234375 11.628906 -25.804688 11.484375 -26.171875 C 11.335938 -26.535156 10.9375 -26.71875 10.28125 -26.71875 C 9.625 -26.71875 9.144531 -26.535156 8.84375 -26.171875 C 8.539062 -25.804688 8.289062 -25.234375 8.09375 -24.453125 L 6.125 -15.828125 C 6 -15.335938 6.054688 -14.921875 6.296875 -14.578125 C 6.546875 -14.242188 6.898438 -14.078125 7.359375 -14.078125 Z M 27.125 0.328125 C 24.9375 0.328125 23.382812 -0.34375 22.46875 -1.6875 C 21.5625 -3.039062 21.375 -4.859375 21.90625 -7.140625 L 23.40625 -13.640625 C 23.957031 -16.066406 24.957031 -17.910156 26.40625 -19.171875 C 27.851562 -20.429688 29.742188 -21.0625 32.078125 -21.0625 C 34.390625 -21.0625 35.984375 -20.425781 36.859375 -19.15625 C 37.734375 -17.882812 37.890625 -16.046875 37.328125 -13.640625 L 35.828125 -7.140625 C 35.296875 -4.859375 34.257812 -3.039062 32.71875 -1.6875 C 31.175781 -0.34375 29.3125 0.328125 27.125 0.328125 Z M 28.21875 -4.34375 C 28.675781 -4.34375 29.097656 -4.507812 29.484375 -4.84375 C 29.878906 -5.1875 30.132812 -5.601562 30.25 -6.09375 L 32.265625 -14.765625 C 32.429688 -15.546875 32.445312 -16.117188 32.3125 -16.484375 C 32.175781 -16.847656 31.78125 -17.03125 31.125 -17.03125 C 30.46875 -17.03125 29.984375 -16.835938 29.671875 -16.453125 C 29.359375 -16.078125 29.113281 -15.515625 28.9375 -14.765625 L 26.9375 -6.09375 C 26.8125 -5.601562 26.875 -5.1875 27.125 -4.84375 C 27.382812 -4.507812 27.75 -4.34375 28.21875 -4.34375 Z M 28.21875 -4.34375 "/></g></g></g><g fill="#000000" fill-opacity="1"><g transform="translate(817.835759, 90.227704)"><g/></g></g><g fill="#000000" fill-opacity="1"><g transform="translate(753.470161, 119.488177)"><g><path d="M 3.734375 0.203125 C 1.921875 0.203125 0.675781 -0.34375 0 -1.4375 C -0.6875 -2.539062 -0.796875 -4.09375 -0.328125 -6.09375 L 2.109375 -16.75 C 2.566406 -18.675781 3.375 -20.128906 4.53125 -21.109375 C 5.695312 -22.085938 7.179688 -22.578125 8.984375 -22.578125 C 10.796875 -22.578125 12.054688 -22.085938 12.765625 -21.109375 C 13.484375 -20.128906 13.613281 -18.675781 13.15625 -16.75 L 10.703125 -6.09375 C 10.234375 -4.082031 9.40625 -2.53125 8.21875 -1.4375 C 7.03125 -0.34375 5.535156 0.203125 3.734375 0.203125 Z M 4.671875 -3.90625 C 5.066406 -3.90625 5.375 -4.078125 5.59375 -4.421875 C 5.820312 -4.773438 6.007812 -5.265625 6.15625 -5.890625 L 8.671875 -16.828125 C 8.773438 -17.316406 8.800781 -17.710938 8.75 -18.015625 C 8.695312 -18.316406 8.472656 -18.46875 8.078125 -18.46875 C 7.328125 -18.46875 6.820312 -17.90625 6.5625 -16.78125 L 4.046875 -5.859375 C 3.890625 -5.210938 3.847656 -4.722656 3.921875 -4.390625 C 4.003906 -4.066406 4.253906 -3.90625 4.671875 -3.90625 Z M 4.671875 -3.90625 "/></g></g></g><g fill="#000000" fill-opacity="1"><g transform="translate(766.126385, 119.488177)"><g><path d="M -1.5625 0 L 3.59375 -22.375 L 12.5625 -22.375 L 11.5625 -18.03125 L 7.109375 -18.03125 L 6.28125 -14.453125 L 10.5 -14.453125 L 9.515625 -10.15625 L 5.296875 -10.15625 L 2.953125 0 Z M -1.5625 0 "/></g></g></g><g fill="#000000" fill-opacity="1"><g transform="translate(776.516988, 119.488177)"><g><path d="M -1.5625 0 L 3.59375 -22.375 L 12.5625 -22.375 L 11.5625 -18.03125 L 7.109375 -18.03125 L 6.28125 -14.453125 L 10.5 -14.453125 L 9.515625 -10.15625 L 5.296875 -10.15625 L 2.953125 0 Z M -1.5625 0 "/></g></g></g></svg>