<svg xmlns="http://www.w3.org/2000/svg" xmlns:xlink="http://www.w3.org/1999/xlink" width="1200" zoomAndPan="magnify" viewBox="0 0 900 374.999991" height="500" preserveAspectRatio="xMidYMid meet" version="1.0"><defs><g/><clipPath id="09559aa57b"><path d="M 489.007812 0 L 900 0 L 900 375 L 489.007812 375 Z M 489.007812 0 " clip-rule="nonzero"/></clipPath><clipPath id="0af6cd94bd"><path d="M 629.316406 382.890625 L 1007.863281 382.890625 L 1007.863281 -7.90625 L 489.007812 -7.90625 L 629.316406 382.890625 " clip-rule="nonzero"/></clipPath><clipPath id="a49809e163"><path d="M 511.847656 32.0625 L 670.800781 32.0625 L 670.800781 168 L 511.847656 168 Z M 511.847656 32.0625 " clip-rule="nonzero"/></clipPath><clipPath id="f903dfd789"><path d="M 534.96875 32.0625 L 670.339844 32.0625 L 647.21875 168.164062 L 511.847656 168.164062 L 534.96875 32.0625 " clip-rule="nonzero"/></clipPath><clipPath id="7e92b2e352"><path d="M 697 153.160156 L 786.753906 153.160156 L 786.753906 215.386719 L 697 215.386719 Z M 697 153.160156 " clip-rule="nonzero"/></clipPath><clipPath id="bdb123cce2"><path d="M 786.753906 168.882812 L 786.753906 215.125 L 696.894531 199.402344 L 696.894531 153.160156 L 786.753906 168.882812 " clip-rule="nonzero"/></clipPath><clipPath id="6a4e416d25"><path d="M 768 170 L 781 170 L 781 199 L 768 199 Z M 768 170 " clip-rule="nonzero"/></clipPath><clipPath id="cc4be44db7"><path d="M 772.585938 170 L 780.65625 171.703125 L 773.226562 206.929688 L 765.15625 205.226562 Z M 772.585938 170 " clip-rule="nonzero"/></clipPath><clipPath id="4976fd11a9"><path d="M 772.585938 170 L 780.65625 171.703125 L 773.226562 206.929688 L 765.15625 205.226562 Z M 772.585938 170 " clip-rule="nonzero"/></clipPath><clipPath id="1ccd1aa8c3"><path d="M 772.585938 170 L 780.65625 171.703125 L 773.226562 206.929688 L 765.15625 205.226562 Z M 772.585938 170 " clip-rule="nonzero"/></clipPath><clipPath id="3d9ed9537c"><path d="M 766 198 L 774 198 L 774 207 L 766 207 Z M 766 198 " clip-rule="nonzero"/></clipPath><clipPath id="8323b5b6a3"><path d="M 772.585938 170 L 780.65625 171.703125 L 773.226562 206.929688 L 765.15625 205.226562 Z M 772.585938 170 " clip-rule="nonzero"/></clipPath><clipPath id="ba06aa97dc"><path d="M 772.585938 170 L 780.65625 171.703125 L 773.226562 206.929688 L 765.15625 205.226562 Z M 772.585938 170 " clip-rule="nonzero"/></clipPath><clipPath id="e1f6dbd3ff"><path d="M 772.585938 170 L 780.65625 171.703125 L 773.226562 206.929688 L 765.15625 205.226562 Z M 772.585938 170 " clip-rule="nonzero"/></clipPath></defs><rect x="-90" width="1080" fill="#ffffff" y="-37.499999" height="449.999989" fill-opacity="1"/><rect x="-90" width="1080" fill="#000000" y="-37.499999" height="449.999989" fill-opacity="1"/><g clip-path="url(#09559aa57b)"><g clip-path="url(#0af6cd94bd)"><path fill="#23b98c" d="M 489.007812 382.890625 L 489.007812 -8.171875 L 1007.957031 -8.171875 L 1007.957031 382.890625 Z M 489.007812 382.890625 " fill-opacity="1" fill-rule="nonzero"/></g></g><path stroke-linecap="butt" transform="matrix(0.75, 0, 0, 0.75, 112.500003, 32.063641)" fill="none" stroke-linejoin="miter" d="M -0.00000455 3.49848 L 899.010471 3.49848 " stroke="#ffffff" stroke-width="7" stroke-opacity="1" stroke-miterlimit="4"/><path stroke-linecap="butt" transform="matrix(0.746917, -0.000000000000000798, 0.000000000000000801, 0.75, 117.801025, 342.772828)" fill="none" stroke-linejoin="miter" d="M -0.000325892 3.500813 L 53.234117 3.500813 " stroke="#ffffff" stroke-width="7" stroke-opacity="1" stroke-miterlimit="4"/><path stroke-linecap="butt" transform="matrix(0.749928, 0, 0, 0.75, 422.736991, 342.772828)" fill="none" stroke-linejoin="miter" d="M 0.00172044 3.500813 L 489.053832 3.500813 " stroke="#ffffff" stroke-width="7" stroke-opacity="1" stroke-miterlimit="4"/><path stroke-linecap="butt" transform="matrix(0.00319948, 0.749825, -0.749993, 0.00320019, 117.797912, 34.680525)" fill="none" stroke-linejoin="miter" d="M -0.000432042 3.501413 L 418.102391 3.498569 " stroke="#ffffff" stroke-width="7" stroke-opacity="1" stroke-miterlimit="4"/><g fill="#ffffff" fill-opacity="1"><g transform="translate(173.316788, 164.744986)"><g><path d="M 24.296875 -82.5625 C 31.054688 -82.5625 35.953125 -80.988281 38.984375 -77.84375 C 42.015625 -74.695312 43.53125 -69.941406 43.53125 -63.578125 L 43.53125 -60.625 C 43.53125 -56.382812 42.859375 -52.882812 41.515625 -50.125 C 40.179688 -47.375 38.0625 -45.332031 35.15625 -44 C 38.6875 -42.65625 41.179688 -40.46875 42.640625 -37.4375 C 44.097656 -34.414062 44.828125 -30.703125 44.828125 -26.296875 L 44.828125 -19.578125 C 44.828125 -13.210938 43.175781 -8.359375 39.875 -5.015625 C 36.570312 -1.671875 31.65625 0 25.125 0 L 4.71875 0 L 4.71875 -82.5625 Z M 17.6875 -37.15625 L 17.6875 -11.796875 L 25.125 -11.796875 C 27.320312 -11.796875 28.988281 -12.382812 30.125 -13.5625 C 31.269531 -14.738281 31.84375 -16.863281 31.84375 -19.9375 L 31.84375 -27.125 C 31.84375 -30.976562 31.191406 -33.613281 29.890625 -35.03125 C 28.597656 -36.445312 26.457031 -37.15625 23.46875 -37.15625 Z M 17.6875 -70.765625 L 17.6875 -48.953125 L 22.765625 -48.953125 C 25.203125 -48.953125 27.109375 -49.578125 28.484375 -50.828125 C 29.859375 -52.085938 30.546875 -54.367188 30.546875 -57.671875 L 30.546875 -62.28125 C 30.546875 -65.269531 30.015625 -67.429688 28.953125 -68.765625 C 27.890625 -70.097656 26.21875 -70.765625 23.9375 -70.765625 Z M 17.6875 -70.765625 "/></g></g></g><g fill="#ffffff" fill-opacity="1"><g transform="translate(221.20495, 164.744986)"><g><path d="M 4.71875 -82.5625 L 17.6875 -82.5625 L 17.6875 -11.796875 L 39.046875 -11.796875 L 39.046875 0 L 4.71875 0 Z M 4.71875 -82.5625 "/></g></g></g><g fill="#ffffff" fill-opacity="1"><g transform="translate(261.190383, 164.744986)"><g><path d="M 46.703125 0 L 33.609375 0 L 31.375 -14.984375 L 15.453125 -14.984375 L 13.203125 0 L 1.296875 0 L 14.515625 -82.5625 L 33.5 -82.5625 Z M 17.109375 -26.1875 L 29.609375 -26.1875 L 23.359375 -67.9375 Z M 17.109375 -26.1875 "/></g></g></g><g fill="#ffffff" fill-opacity="1"><g transform="translate(309.196494, 164.744986)"><g><path d="M 42.34375 -30.78125 L 42.34375 -19.8125 C 42.34375 -13.132812 40.710938 -8.003906 37.453125 -4.421875 C 34.191406 -0.847656 29.375 0.9375 23 0.9375 C 16.632812 0.9375 11.816406 -0.847656 8.546875 -4.421875 C 5.285156 -8.003906 3.65625 -13.132812 3.65625 -19.8125 L 3.65625 -62.75 C 3.65625 -69.4375 5.285156 -74.566406 8.546875 -78.140625 C 11.816406 -81.722656 16.632812 -83.515625 23 -83.515625 C 29.375 -83.515625 34.191406 -81.722656 37.453125 -78.140625 C 40.710938 -74.566406 42.34375 -69.4375 42.34375 -62.75 L 42.34375 -54.734375 L 30.078125 -54.734375 L 30.078125 -63.578125 C 30.078125 -66.566406 29.46875 -68.671875 28.25 -69.890625 C 27.03125 -71.109375 25.398438 -71.71875 23.359375 -71.71875 C 21.304688 -71.71875 19.671875 -71.109375 18.453125 -69.890625 C 17.234375 -68.671875 16.625 -66.566406 16.625 -63.578125 L 16.625 -18.984375 C 16.625 -16.003906 17.234375 -13.921875 18.453125 -12.734375 C 19.671875 -11.554688 21.304688 -10.96875 23.359375 -10.96875 C 25.398438 -10.96875 27.03125 -11.554688 28.25 -12.734375 C 29.46875 -13.921875 30.078125 -16.003906 30.078125 -18.984375 L 30.078125 -30.78125 Z M 42.34375 -30.78125 "/></g></g></g><g fill="#ffffff" fill-opacity="1"><g transform="translate(354.725628, 164.744986)"><g><path d="M 21.703125 -32.90625 L 17.6875 -25.359375 L 17.6875 0 L 4.71875 0 L 4.71875 -82.5625 L 17.6875 -82.5625 L 17.6875 -46.59375 L 34.671875 -82.5625 L 47.65625 -82.5625 L 29.609375 -45.765625 L 47.65625 0 L 34.328125 0 Z M 21.703125 -32.90625 "/></g></g></g><path stroke-linecap="butt" transform="matrix(0.749123, 0, 0, 0.75, 143.141574, 178.891337)" fill="none" stroke-linejoin="miter" d="M -0.00126708 6.999051 L 387.451886 6.999051 " stroke="#ffffff" stroke-width="14" stroke-opacity="1" stroke-miterlimit="4"/><g clip-path="url(#a49809e163)"><g clip-path="url(#f903dfd789)"><path fill="#ffffff" d="M 511.847656 32.0625 L 670.078125 32.0625 L 670.078125 167.898438 L 511.847656 167.898438 Z M 511.847656 32.0625 " fill-opacity="1" fill-rule="nonzero"/></g></g><g fill="#ffffff" fill-opacity="1"><g transform="translate(462.936196, 237.09268)"><g><path d="M 2.703125 -8.28125 L 2.703125 0.03125 L 1.546875 0.03125 L 1.546875 -8.28125 Z M 2.703125 -12.15625 L 2.703125 -10.25 L 1.546875 -10.25 L 1.546875 -12.15625 Z M 2.703125 -12.15625 "/></g></g></g><g fill="#ffffff" fill-opacity="1"><g transform="translate(467.201226, 237.09268)"><g><path d="M 10.59375 -3.109375 C 10.59375 -2.660156 10.5 -2.242188 10.3125 -1.859375 C 10.132812 -1.484375 9.890625 -1.15625 9.578125 -0.875 C 9.273438 -0.59375 8.921875 -0.375 8.515625 -0.21875 C 8.109375 -0.0703125 7.671875 0 7.203125 0 L 1.515625 0 L 1.515625 -12.0625 L 7.328125 -12.0625 C 7.742188 -12.0625 8.117188 -11.972656 8.453125 -11.796875 C 8.796875 -11.617188 9.085938 -11.382812 9.328125 -11.09375 C 9.566406 -10.800781 9.75 -10.46875 9.875 -10.09375 C 10.007812 -9.726562 10.078125 -9.363281 10.078125 -9 C 10.078125 -8.382812 9.921875 -7.820312 9.609375 -7.3125 C 9.304688 -6.8125 8.882812 -6.4375 8.34375 -6.1875 C 9.039062 -5.976562 9.585938 -5.597656 9.984375 -5.046875 C 10.390625 -4.492188 10.59375 -3.847656 10.59375 -3.109375 Z M 9.40625 -3.3125 C 9.40625 -3.601562 9.351562 -3.890625 9.25 -4.171875 C 9.144531 -4.453125 9 -4.695312 8.8125 -4.90625 C 8.625 -5.113281 8.398438 -5.28125 8.140625 -5.40625 C 7.890625 -5.539062 7.617188 -5.609375 7.328125 -5.609375 L 2.703125 -5.609375 L 2.703125 -1.03125 L 7.203125 -1.03125 C 7.515625 -1.03125 7.800781 -1.09375 8.0625 -1.21875 C 8.332031 -1.34375 8.566406 -1.507812 8.765625 -1.71875 C 8.960938 -1.9375 9.117188 -2.179688 9.234375 -2.453125 C 9.347656 -2.734375 9.40625 -3.019531 9.40625 -3.3125 Z M 2.703125 -11.03125 L 2.703125 -6.578125 L 6.84375 -6.578125 C 7.144531 -6.578125 7.421875 -6.640625 7.671875 -6.765625 C 7.929688 -6.890625 8.148438 -7.050781 8.328125 -7.25 C 8.515625 -7.457031 8.65625 -7.691406 8.75 -7.953125 C 8.851562 -8.222656 8.90625 -8.507812 8.90625 -8.8125 C 8.90625 -9.113281 8.859375 -9.398438 8.765625 -9.671875 C 8.671875 -9.941406 8.535156 -10.175781 8.359375 -10.375 C 8.179688 -10.570312 7.972656 -10.726562 7.734375 -10.84375 C 7.492188 -10.96875 7.234375 -11.03125 6.953125 -11.03125 Z M 2.703125 -11.03125 "/></g></g></g><g fill="#ffffff" fill-opacity="1"><g transform="translate(478.518002, 237.09268)"><g><path d="M 1.515625 0 L 1.515625 -12.0625 L 2.703125 -12.0625 L 2.703125 -1.046875 L 9.671875 -1.046875 L 9.671875 0 Z M 1.515625 0 "/></g></g></g><g fill="#ffffff" fill-opacity="1"><g transform="translate(488.42443, 237.09268)"><g><path d="M 5.25 -12.0625 L 6.25 -12.0625 L 11.265625 0 L 10.015625 0 L 8.453125 -3.78125 L 3.03125 -3.78125 L 1.484375 0 L 0.203125 0 Z M 8.171875 -4.703125 L 5.75 -10.671875 L 3.28125 -4.703125 Z M 8.171875 -4.703125 "/></g></g></g><g fill="#ffffff" fill-opacity="1"><g transform="translate(499.911128, 237.09268)"><g><path d="M 0.71875 -6.125 C 0.71875 -6.84375 0.84375 -7.5625 1.09375 -8.28125 C 1.351562 -9 1.722656 -9.640625 2.203125 -10.203125 C 2.691406 -10.773438 3.289062 -11.238281 4 -11.59375 C 4.71875 -11.957031 5.53125 -12.140625 6.4375 -12.140625 C 7.519531 -12.140625 8.441406 -11.894531 9.203125 -11.40625 C 9.972656 -10.914062 10.535156 -10.28125 10.890625 -9.5 L 9.96875 -8.921875 C 9.769531 -9.316406 9.53125 -9.648438 9.25 -9.921875 C 8.976562 -10.203125 8.679688 -10.425781 8.359375 -10.59375 C 8.046875 -10.757812 7.71875 -10.878906 7.375 -10.953125 C 7.039062 -11.023438 6.707031 -11.0625 6.375 -11.0625 C 5.644531 -11.0625 5.003906 -10.914062 4.453125 -10.625 C 3.898438 -10.332031 3.429688 -9.945312 3.046875 -9.46875 C 2.671875 -8.988281 2.382812 -8.453125 2.1875 -7.859375 C 2 -7.265625 1.90625 -6.660156 1.90625 -6.046875 C 1.90625 -5.378906 2.019531 -4.738281 2.25 -4.125 C 2.476562 -3.519531 2.796875 -2.976562 3.203125 -2.5 C 3.609375 -2.03125 4.082031 -1.65625 4.625 -1.375 C 5.175781 -1.101562 5.773438 -0.96875 6.421875 -0.96875 C 6.765625 -0.96875 7.113281 -1.007812 7.46875 -1.09375 C 7.820312 -1.175781 8.164062 -1.3125 8.5 -1.5 C 8.84375 -1.6875 9.15625 -1.921875 9.4375 -2.203125 C 9.71875 -2.484375 9.957031 -2.820312 10.15625 -3.21875 L 11.140625 -2.703125 C 10.941406 -2.242188 10.664062 -1.84375 10.3125 -1.5 C 9.96875 -1.15625 9.578125 -0.863281 9.140625 -0.625 C 8.710938 -0.382812 8.257812 -0.203125 7.78125 -0.078125 C 7.300781 0.046875 6.828125 0.109375 6.359375 0.109375 C 5.523438 0.109375 4.765625 -0.0703125 4.078125 -0.4375 C 3.390625 -0.800781 2.796875 -1.273438 2.296875 -1.859375 C 1.796875 -2.441406 1.40625 -3.101562 1.125 -3.84375 C 0.851562 -4.59375 0.71875 -5.351562 0.71875 -6.125 Z M 0.71875 -6.125 "/></g></g></g><g fill="#ffffff" fill-opacity="1"><g transform="translate(511.567747, 237.09268)"><g><path d="M 1.515625 0 L 1.515625 -12.046875 L 2.703125 -12.046875 L 2.703125 -5.046875 L 9.34375 -12.0625 L 10.65625 -12.0625 L 5.734375 -6.765625 L 10.90625 0 L 9.609375 0 L 4.984375 -6.0625 L 2.703125 -3.703125 L 2.703125 0 Z M 1.515625 0 "/></g></g></g><g fill="#ffffff" fill-opacity="1"><g transform="translate(522.493695, 237.09268)"><g/></g></g><g fill="#ffffff" fill-opacity="1"><g transform="translate(526.826691, 237.09268)"><g><path d="M 1.515625 0 L 1.515625 -12.0625 L 9.4375 -12.0625 L 9.4375 -11.015625 L 2.703125 -11.015625 L 2.703125 -6.578125 L 8.375 -6.578125 L 8.375 -5.59375 L 2.703125 -5.59375 L 2.703125 0 Z M 1.515625 0 "/></g></g></g><g fill="#ffffff" fill-opacity="1"><g transform="translate(536.835064, 237.09268)"><g><path d="M 1.515625 0 L 1.515625 -12.0625 L 6.609375 -12.0625 C 7.128906 -12.0625 7.609375 -11.953125 8.046875 -11.734375 C 8.484375 -11.515625 8.859375 -11.226562 9.171875 -10.875 C 9.492188 -10.519531 9.742188 -10.113281 9.921875 -9.65625 C 10.097656 -9.195312 10.1875 -8.738281 10.1875 -8.28125 C 10.1875 -7.832031 10.117188 -7.40625 9.984375 -7 C 9.859375 -6.601562 9.675781 -6.242188 9.4375 -5.921875 C 9.207031 -5.597656 8.925781 -5.328125 8.59375 -5.109375 C 8.269531 -4.890625 7.90625 -4.738281 7.5 -4.65625 L 10.453125 0 L 9.109375 0 L 6.265625 -4.453125 L 2.703125 -4.453125 L 2.703125 0 Z M 2.703125 -5.515625 L 6.640625 -5.515625 C 6.992188 -5.515625 7.316406 -5.585938 7.609375 -5.734375 C 7.898438 -5.890625 8.144531 -6.097656 8.34375 -6.359375 C 8.550781 -6.617188 8.710938 -6.910156 8.828125 -7.234375 C 8.941406 -7.566406 9 -7.914062 9 -8.28125 C 9 -8.644531 8.929688 -8.992188 8.796875 -9.328125 C 8.671875 -9.660156 8.492188 -9.953125 8.265625 -10.203125 C 8.046875 -10.453125 7.785156 -10.648438 7.484375 -10.796875 C 7.179688 -10.941406 6.867188 -11.015625 6.546875 -11.015625 L 2.703125 -11.015625 Z M 2.703125 -5.515625 "/></g></g></g><g fill="#ffffff" fill-opacity="1"><g transform="translate(547.930934, 237.09268)"><g><path d="M 1.515625 0 L 1.515625 -12.0625 L 2.703125 -12.0625 L 2.703125 0 Z M 1.515625 0 "/></g></g></g><g fill="#ffffff" fill-opacity="1"><g transform="translate(552.144992, 237.09268)"><g><path d="M 1.515625 0 L 1.515625 -12.0625 L 5.609375 -12.0625 C 6.578125 -12.0625 7.421875 -11.90625 8.140625 -11.59375 C 8.859375 -11.28125 9.457031 -10.847656 9.9375 -10.296875 C 10.414062 -9.753906 10.773438 -9.117188 11.015625 -8.390625 C 11.265625 -7.660156 11.390625 -6.878906 11.390625 -6.046875 C 11.390625 -5.128906 11.253906 -4.300781 10.984375 -3.5625 C 10.710938 -2.820312 10.320312 -2.1875 9.8125 -1.65625 C 9.3125 -1.125 8.707031 -0.710938 8 -0.421875 C 7.289062 -0.140625 6.492188 0 5.609375 0 Z M 10.203125 -6.046875 C 10.203125 -6.773438 10.097656 -7.441406 9.890625 -8.046875 C 9.691406 -8.648438 9.394531 -9.171875 9 -9.609375 C 8.613281 -10.054688 8.132812 -10.398438 7.5625 -10.640625 C 7 -10.890625 6.347656 -11.015625 5.609375 -11.015625 L 2.703125 -11.015625 L 2.703125 -1.046875 L 5.609375 -1.046875 C 6.359375 -1.046875 7.019531 -1.171875 7.59375 -1.421875 C 8.164062 -1.679688 8.644531 -2.035156 9.03125 -2.484375 C 9.414062 -2.929688 9.707031 -3.457031 9.90625 -4.0625 C 10.101562 -4.675781 10.203125 -5.335938 10.203125 -6.046875 Z M 10.203125 -6.046875 "/></g></g></g><g fill="#ffffff" fill-opacity="1"><g transform="translate(564.294382, 237.09268)"><g><path d="M 5.25 -12.0625 L 6.25 -12.0625 L 11.265625 0 L 10.015625 0 L 8.453125 -3.78125 L 3.03125 -3.78125 L 1.484375 0 L 0.203125 0 Z M 8.171875 -4.703125 L 5.75 -10.671875 L 3.28125 -4.703125 Z M 8.171875 -4.703125 "/></g></g></g><g fill="#ffffff" fill-opacity="1"><g transform="translate(575.781079, 237.09268)"><g><path d="M 1.578125 -12.0625 L 5.53125 -5.578125 L 9.5 -12.0625 L 10.796875 -12.0625 L 6.125 -4.484375 L 6.125 0 L 4.9375 0 L 4.9375 -4.515625 L 0.265625 -12.0625 Z M 1.578125 -12.0625 "/></g></g></g><g fill="#ffffff" fill-opacity="1"><g transform="translate(586.842972, 237.09268)"><g/></g></g><g fill="#ffffff" fill-opacity="1"><g transform="translate(591.175968, 237.09268)"><g><path d="M 9.625 -1.046875 L 9.625 0 L 1.515625 0 L 1.515625 -12.0625 L 9.46875 -12.0625 L 9.46875 -11.015625 L 2.703125 -11.015625 L 2.703125 -6.65625 L 8.609375 -6.65625 L 8.609375 -5.65625 L 2.703125 -5.65625 L 2.703125 -1.046875 Z M 9.625 -1.046875 "/></g></g></g><g fill="#ffffff" fill-opacity="1"><g transform="translate(601.524185, 237.09268)"><g><path d="M 2.703125 -9.859375 L 2.703125 0 L 1.515625 0 L 1.515625 -12.0625 L 2.4375 -12.0625 L 10.421875 -2.015625 L 10.421875 -12.046875 L 11.609375 -12.046875 L 11.609375 0 L 10.578125 0 Z M 2.703125 -9.859375 "/></g></g></g><g fill="#ffffff" fill-opacity="1"><g transform="translate(614.642122, 237.09268)"><g/></g></g><g fill="#ffffff" fill-opacity="1"><g transform="translate(618.975119, 237.09268)"><g><path d="M 2.703125 -9.859375 L 2.703125 0 L 1.515625 0 L 1.515625 -12.0625 L 2.4375 -12.0625 L 10.421875 -2.015625 L 10.421875 -12.046875 L 11.609375 -12.046875 L 11.609375 0 L 10.578125 0 Z M 2.703125 -9.859375 "/></g></g></g><g fill="#ffffff" fill-opacity="1"><g transform="translate(632.093056, 237.09268)"><g><path d="M 6.40625 -0.984375 C 7.164062 -0.984375 7.796875 -1.128906 8.296875 -1.421875 C 8.804688 -1.710938 9.210938 -2.09375 9.515625 -2.5625 C 9.816406 -3.03125 10.023438 -3.5625 10.140625 -4.15625 C 10.253906 -4.757812 10.3125 -5.367188 10.3125 -5.984375 L 10.3125 -12.0625 L 11.515625 -12.0625 L 11.515625 -5.984375 C 11.515625 -5.171875 11.421875 -4.394531 11.234375 -3.65625 C 11.054688 -2.925781 10.765625 -2.285156 10.359375 -1.734375 C 9.960938 -1.179688 9.4375 -0.738281 8.78125 -0.40625 C 8.132812 -0.0820312 7.347656 0.078125 6.421875 0.078125 C 5.472656 0.078125 4.671875 -0.09375 4.015625 -0.4375 C 3.367188 -0.78125 2.847656 -1.234375 2.453125 -1.796875 C 2.054688 -2.367188 1.769531 -3.015625 1.59375 -3.734375 C 1.425781 -4.460938 1.34375 -5.210938 1.34375 -5.984375 L 1.34375 -12.0625 L 2.515625 -12.0625 L 2.515625 -5.984375 C 2.515625 -5.347656 2.578125 -4.726562 2.703125 -4.125 C 2.828125 -3.53125 3.039062 -3 3.34375 -2.53125 C 3.644531 -2.070312 4.039062 -1.695312 4.53125 -1.40625 C 5.03125 -1.125 5.65625 -0.984375 6.40625 -0.984375 Z M 6.40625 -0.984375 "/></g></g></g><g fill="#ffffff" fill-opacity="1"><g transform="translate(644.922134, 237.09268)"><g><path d="M 9.625 -1.046875 L 9.625 0 L 1.515625 0 L 1.515625 -12.0625 L 9.46875 -12.0625 L 9.46875 -11.015625 L 2.703125 -11.015625 L 2.703125 -6.65625 L 8.609375 -6.65625 L 8.609375 -5.65625 L 2.703125 -5.65625 L 2.703125 -1.046875 Z M 9.625 -1.046875 "/></g></g></g><g fill="#ffffff" fill-opacity="1"><g transform="translate(655.27035, 237.09268)"><g><path d="M 8.5625 -9.8125 C 8.226562 -10.195312 7.773438 -10.503906 7.203125 -10.734375 C 6.640625 -10.972656 5.992188 -11.09375 5.265625 -11.09375 C 4.203125 -11.09375 3.425781 -10.890625 2.9375 -10.484375 C 2.445312 -10.085938 2.203125 -9.546875 2.203125 -8.859375 C 2.203125 -8.492188 2.265625 -8.191406 2.390625 -7.953125 C 2.523438 -7.722656 2.726562 -7.523438 3 -7.359375 C 3.28125 -7.191406 3.628906 -7.046875 4.046875 -6.921875 C 4.472656 -6.796875 4.976562 -6.671875 5.5625 -6.546875 C 6.207031 -6.410156 6.785156 -6.253906 7.296875 -6.078125 C 7.816406 -5.910156 8.253906 -5.695312 8.609375 -5.4375 C 8.972656 -5.1875 9.25 -4.878906 9.4375 -4.515625 C 9.632812 -4.160156 9.734375 -3.707031 9.734375 -3.15625 C 9.734375 -2.601562 9.625 -2.125 9.40625 -1.71875 C 9.195312 -1.3125 8.898438 -0.96875 8.515625 -0.6875 C 8.128906 -0.414062 7.671875 -0.210938 7.140625 -0.078125 C 6.609375 0.046875 6.023438 0.109375 5.390625 0.109375 C 3.515625 0.109375 1.898438 -0.476562 0.546875 -1.65625 L 1.140625 -2.625 C 1.359375 -2.394531 1.613281 -2.175781 1.90625 -1.96875 C 2.207031 -1.769531 2.539062 -1.59375 2.90625 -1.4375 C 3.28125 -1.28125 3.675781 -1.160156 4.09375 -1.078125 C 4.507812 -0.992188 4.953125 -0.953125 5.421875 -0.953125 C 6.390625 -0.953125 7.140625 -1.125 7.671875 -1.46875 C 8.210938 -1.8125 8.484375 -2.335938 8.484375 -3.046875 C 8.484375 -3.421875 8.40625 -3.734375 8.25 -3.984375 C 8.101562 -4.242188 7.875 -4.46875 7.5625 -4.65625 C 7.257812 -4.84375 6.878906 -5.003906 6.421875 -5.140625 C 5.972656 -5.273438 5.445312 -5.410156 4.84375 -5.546875 C 4.207031 -5.691406 3.648438 -5.84375 3.171875 -6 C 2.703125 -6.15625 2.300781 -6.351562 1.96875 -6.59375 C 1.644531 -6.832031 1.398438 -7.117188 1.234375 -7.453125 C 1.066406 -7.785156 0.984375 -8.195312 0.984375 -8.6875 C 0.984375 -9.238281 1.085938 -9.734375 1.296875 -10.171875 C 1.503906 -10.609375 1.800781 -10.972656 2.1875 -11.265625 C 2.570312 -11.554688 3.023438 -11.773438 3.546875 -11.921875 C 4.066406 -12.078125 4.644531 -12.15625 5.28125 -12.15625 C 6.09375 -12.15625 6.8125 -12.03125 7.4375 -11.78125 C 8.0625 -11.539062 8.628906 -11.203125 9.140625 -10.765625 Z M 8.5625 -9.8125 "/></g></g></g><g fill="#ffffff" fill-opacity="1"><g transform="translate(665.584589, 237.09268)"><g><path d="M 10.078125 -11.015625 L 5.78125 -11.015625 L 5.78125 0 L 4.59375 0 L 4.59375 -11.015625 L 0.28125 -11.015625 L 0.28125 -12.0625 L 10.078125 -12.0625 Z M 10.078125 -11.015625 "/></g></g></g><g fill="#ffffff" fill-opacity="1"><g transform="translate(675.9498, 237.09268)"><g><path d="M 1.515625 0 L 1.515625 -12.0625 L 6.609375 -12.0625 C 7.128906 -12.0625 7.609375 -11.953125 8.046875 -11.734375 C 8.484375 -11.515625 8.859375 -11.226562 9.171875 -10.875 C 9.492188 -10.519531 9.742188 -10.113281 9.921875 -9.65625 C 10.097656 -9.195312 10.1875 -8.738281 10.1875 -8.28125 C 10.1875 -7.832031 10.117188 -7.40625 9.984375 -7 C 9.859375 -6.601562 9.675781 -6.242188 9.4375 -5.921875 C 9.207031 -5.597656 8.925781 -5.328125 8.59375 -5.109375 C 8.269531 -4.890625 7.90625 -4.738281 7.5 -4.65625 L 10.453125 0 L 9.109375 0 L 6.265625 -4.453125 L 2.703125 -4.453125 L 2.703125 0 Z M 2.703125 -5.515625 L 6.640625 -5.515625 C 6.992188 -5.515625 7.316406 -5.585938 7.609375 -5.734375 C 7.898438 -5.890625 8.144531 -6.097656 8.34375 -6.359375 C 8.550781 -6.617188 8.710938 -6.910156 8.828125 -7.234375 C 8.941406 -7.566406 9 -7.914062 9 -8.28125 C 9 -8.644531 8.929688 -8.992188 8.796875 -9.328125 C 8.671875 -9.660156 8.492188 -9.953125 8.265625 -10.203125 C 8.046875 -10.453125 7.785156 -10.648438 7.484375 -10.796875 C 7.179688 -10.941406 6.867188 -11.015625 6.546875 -11.015625 L 2.703125 -11.015625 Z M 2.703125 -5.515625 "/></g></g></g><g fill="#ffffff" fill-opacity="1"><g transform="translate(687.04567, 237.09268)"><g><path d="M 5.25 -12.0625 L 6.25 -12.0625 L 11.265625 0 L 10.015625 0 L 8.453125 -3.78125 L 3.03125 -3.78125 L 1.484375 0 L 0.203125 0 Z M 8.171875 -4.703125 L 5.75 -10.671875 L 3.28125 -4.703125 Z M 8.171875 -4.703125 "/></g></g></g><g fill="#ffffff" fill-opacity="1"><g transform="translate(462.936196, 260.342678)"><g><path d="M 10.078125 -11.015625 L 5.78125 -11.015625 L 5.78125 0 L 4.59375 0 L 4.59375 -11.015625 L 0.28125 -11.015625 L 0.28125 -12.0625 L 10.078125 -12.0625 Z M 10.078125 -11.015625 "/></g></g></g><g fill="#ffffff" fill-opacity="1"><g transform="translate(473.301407, 260.342678)"><g><path d="M 1.515625 0 L 1.515625 -12.0625 L 2.703125 -12.0625 L 2.703125 0 Z M 1.515625 0 "/></g></g></g><g fill="#ffffff" fill-opacity="1"><g transform="translate(477.515465, 260.342678)"><g><path d="M 9.625 -1.046875 L 9.625 0 L 1.515625 0 L 1.515625 -12.0625 L 9.46875 -12.0625 L 9.46875 -11.015625 L 2.703125 -11.015625 L 2.703125 -6.65625 L 8.609375 -6.65625 L 8.609375 -5.65625 L 2.703125 -5.65625 L 2.703125 -1.046875 Z M 9.625 -1.046875 "/></g></g></g><g fill="#ffffff" fill-opacity="1"><g transform="translate(487.863681, 260.342678)"><g><path d="M 2.703125 -9.859375 L 2.703125 0 L 1.515625 0 L 1.515625 -12.0625 L 2.4375 -12.0625 L 10.421875 -2.015625 L 10.421875 -12.046875 L 11.609375 -12.046875 L 11.609375 0 L 10.578125 0 Z M 2.703125 -9.859375 "/></g></g></g><g fill="#ffffff" fill-opacity="1"><g transform="translate(500.981619, 260.342678)"><g><path d="M 1.515625 0 L 1.515625 -12.0625 L 5.609375 -12.0625 C 6.578125 -12.0625 7.421875 -11.90625 8.140625 -11.59375 C 8.859375 -11.28125 9.457031 -10.847656 9.9375 -10.296875 C 10.414062 -9.753906 10.773438 -9.117188 11.015625 -8.390625 C 11.265625 -7.660156 11.390625 -6.878906 11.390625 -6.046875 C 11.390625 -5.128906 11.253906 -4.300781 10.984375 -3.5625 C 10.710938 -2.820312 10.320312 -2.1875 9.8125 -1.65625 C 9.3125 -1.125 8.707031 -0.710938 8 -0.421875 C 7.289062 -0.140625 6.492188 0 5.609375 0 Z M 10.203125 -6.046875 C 10.203125 -6.773438 10.097656 -7.441406 9.890625 -8.046875 C 9.691406 -8.648438 9.394531 -9.171875 9 -9.609375 C 8.613281 -10.054688 8.132812 -10.398438 7.5625 -10.640625 C 7 -10.890625 6.347656 -11.015625 5.609375 -11.015625 L 2.703125 -11.015625 L 2.703125 -1.046875 L 5.609375 -1.046875 C 6.359375 -1.046875 7.019531 -1.171875 7.59375 -1.421875 C 8.164062 -1.679688 8.644531 -2.035156 9.03125 -2.484375 C 9.414062 -2.929688 9.707031 -3.457031 9.90625 -4.0625 C 10.101562 -4.675781 10.203125 -5.335938 10.203125 -6.046875 Z M 10.203125 -6.046875 "/></g></g></g><g fill="#ffffff" fill-opacity="1"><g transform="translate(513.131009, 260.342678)"><g><path d="M 5.25 -12.0625 L 6.25 -12.0625 L 11.265625 0 L 10.015625 0 L 8.453125 -3.78125 L 3.03125 -3.78125 L 1.484375 0 L 0.203125 0 Z M 8.171875 -4.703125 L 5.75 -10.671875 L 3.28125 -4.703125 Z M 8.171875 -4.703125 "/></g></g></g><g fill="#ffffff" fill-opacity="1"><g transform="translate(524.617707, 260.342678)"><g/></g></g><g fill="#ffffff" fill-opacity="1"><g transform="translate(528.950703, 260.342678)"><g><path d="M 1.515625 0 L 1.515625 -12.0625 L 5.609375 -12.0625 C 6.578125 -12.0625 7.421875 -11.90625 8.140625 -11.59375 C 8.859375 -11.28125 9.457031 -10.847656 9.9375 -10.296875 C 10.414062 -9.753906 10.773438 -9.117188 11.015625 -8.390625 C 11.265625 -7.660156 11.390625 -6.878906 11.390625 -6.046875 C 11.390625 -5.128906 11.253906 -4.300781 10.984375 -3.5625 C 10.710938 -2.820312 10.320312 -2.1875 9.8125 -1.65625 C 9.3125 -1.125 8.707031 -0.710938 8 -0.421875 C 7.289062 -0.140625 6.492188 0 5.609375 0 Z M 10.203125 -6.046875 C 10.203125 -6.773438 10.097656 -7.441406 9.890625 -8.046875 C 9.691406 -8.648438 9.394531 -9.171875 9 -9.609375 C 8.613281 -10.054688 8.132812 -10.398438 7.5625 -10.640625 C 7 -10.890625 6.347656 -11.015625 5.609375 -11.015625 L 2.703125 -11.015625 L 2.703125 -1.046875 L 5.609375 -1.046875 C 6.359375 -1.046875 7.019531 -1.171875 7.59375 -1.421875 C 8.164062 -1.679688 8.644531 -2.035156 9.03125 -2.484375 C 9.414062 -2.929688 9.707031 -3.457031 9.90625 -4.0625 C 10.101562 -4.675781 10.203125 -5.335938 10.203125 -6.046875 Z M 10.203125 -6.046875 "/></g></g></g><g fill="#ffffff" fill-opacity="1"><g transform="translate(541.100093, 260.342678)"><g><path d="M 9.625 -1.046875 L 9.625 0 L 1.515625 0 L 1.515625 -12.0625 L 9.46875 -12.0625 L 9.46875 -11.015625 L 2.703125 -11.015625 L 2.703125 -6.65625 L 8.609375 -6.65625 L 8.609375 -5.65625 L 2.703125 -5.65625 L 2.703125 -1.046875 Z M 9.625 -1.046875 "/></g></g></g><g fill="#ffffff" fill-opacity="1"><g transform="translate(551.44831, 260.342678)"><g/></g></g><g fill="#ffffff" fill-opacity="1"><g transform="translate(555.781306, 260.342678)"><g><path d="M 1.515625 0 L 1.515625 -12.0625 L 6.515625 -12.0625 C 7.035156 -12.0625 7.515625 -11.953125 7.953125 -11.734375 C 8.390625 -11.515625 8.765625 -11.226562 9.078125 -10.875 C 9.390625 -10.519531 9.632812 -10.113281 9.8125 -9.65625 C 10 -9.195312 10.09375 -8.738281 10.09375 -8.28125 C 10.09375 -7.78125 10.007812 -7.300781 9.84375 -6.84375 C 9.675781 -6.382812 9.4375 -5.976562 9.125 -5.625 C 8.820312 -5.269531 8.457031 -4.984375 8.03125 -4.765625 C 7.601562 -4.554688 7.128906 -4.453125 6.609375 -4.453125 L 2.703125 -4.453125 L 2.703125 0 Z M 2.703125 -5.515625 L 6.5625 -5.515625 C 6.914062 -5.515625 7.234375 -5.585938 7.515625 -5.734375 C 7.804688 -5.890625 8.050781 -6.09375 8.25 -6.34375 C 8.457031 -6.601562 8.617188 -6.898438 8.734375 -7.234375 C 8.847656 -7.566406 8.90625 -7.914062 8.90625 -8.28125 C 8.90625 -8.65625 8.835938 -9.007812 8.703125 -9.34375 C 8.578125 -9.675781 8.40625 -9.96875 8.1875 -10.21875 C 7.96875 -10.46875 7.707031 -10.660156 7.40625 -10.796875 C 7.101562 -10.941406 6.785156 -11.015625 6.453125 -11.015625 L 2.703125 -11.015625 Z M 2.703125 -5.515625 "/></g></g></g><g fill="#ffffff" fill-opacity="1"><g transform="translate(566.350427, 260.342678)"><g><path d="M 1.515625 0 L 1.515625 -12.0625 L 2.703125 -12.0625 L 2.703125 -1.046875 L 9.671875 -1.046875 L 9.671875 0 Z M 1.515625 0 "/></g></g></g><g fill="#ffffff" fill-opacity="1"><g transform="translate(576.256856, 260.342678)"><g><path d="M 5.25 -12.0625 L 6.25 -12.0625 L 11.265625 0 L 10.015625 0 L 8.453125 -3.78125 L 3.03125 -3.78125 L 1.484375 0 L 0.203125 0 Z M 8.171875 -4.703125 L 5.75 -10.671875 L 3.28125 -4.703125 Z M 8.171875 -4.703125 "/></g></g></g><g fill="#ffffff" fill-opacity="1"><g transform="translate(587.743553, 260.342678)"><g><path d="M 2.703125 -9.859375 L 2.703125 0 L 1.515625 0 L 1.515625 -12.0625 L 2.4375 -12.0625 L 10.421875 -2.015625 L 10.421875 -12.046875 L 11.609375 -12.046875 L 11.609375 0 L 10.578125 0 Z M 2.703125 -9.859375 "/></g></g></g><g fill="#ffffff" fill-opacity="1"><g transform="translate(600.861491, 260.342678)"><g><path d="M 10.078125 -11.015625 L 5.78125 -11.015625 L 5.78125 0 L 4.59375 0 L 4.59375 -11.015625 L 0.28125 -11.015625 L 0.28125 -12.0625 L 10.078125 -12.0625 Z M 10.078125 -11.015625 "/></g></g></g><g fill="#ffffff" fill-opacity="1"><g transform="translate(611.226702, 260.342678)"><g><path d="M 5.25 -12.0625 L 6.25 -12.0625 L 11.265625 0 L 10.015625 0 L 8.453125 -3.78125 L 3.03125 -3.78125 L 1.484375 0 L 0.203125 0 Z M 8.171875 -4.703125 L 5.75 -10.671875 L 3.28125 -4.703125 Z M 8.171875 -4.703125 "/></g></g></g><g fill="#ffffff" fill-opacity="1"><g transform="translate(622.713399, 260.342678)"><g><path d="M 8.5625 -9.8125 C 8.226562 -10.195312 7.773438 -10.503906 7.203125 -10.734375 C 6.640625 -10.972656 5.992188 -11.09375 5.265625 -11.09375 C 4.203125 -11.09375 3.425781 -10.890625 2.9375 -10.484375 C 2.445312 -10.085938 2.203125 -9.546875 2.203125 -8.859375 C 2.203125 -8.492188 2.265625 -8.191406 2.390625 -7.953125 C 2.523438 -7.722656 2.726562 -7.523438 3 -7.359375 C 3.28125 -7.191406 3.628906 -7.046875 4.046875 -6.921875 C 4.472656 -6.796875 4.976562 -6.671875 5.5625 -6.546875 C 6.207031 -6.410156 6.785156 -6.253906 7.296875 -6.078125 C 7.816406 -5.910156 8.253906 -5.695312 8.609375 -5.4375 C 8.972656 -5.1875 9.25 -4.878906 9.4375 -4.515625 C 9.632812 -4.160156 9.734375 -3.707031 9.734375 -3.15625 C 9.734375 -2.601562 9.625 -2.125 9.40625 -1.71875 C 9.195312 -1.3125 8.898438 -0.96875 8.515625 -0.6875 C 8.128906 -0.414062 7.671875 -0.210938 7.140625 -0.078125 C 6.609375 0.046875 6.023438 0.109375 5.390625 0.109375 C 3.515625 0.109375 1.898438 -0.476562 0.546875 -1.65625 L 1.140625 -2.625 C 1.359375 -2.394531 1.613281 -2.175781 1.90625 -1.96875 C 2.207031 -1.769531 2.539062 -1.59375 2.90625 -1.4375 C 3.28125 -1.28125 3.675781 -1.160156 4.09375 -1.078125 C 4.507812 -0.992188 4.953125 -0.953125 5.421875 -0.953125 C 6.390625 -0.953125 7.140625 -1.125 7.671875 -1.46875 C 8.210938 -1.8125 8.484375 -2.335938 8.484375 -3.046875 C 8.484375 -3.421875 8.40625 -3.734375 8.25 -3.984375 C 8.101562 -4.242188 7.875 -4.46875 7.5625 -4.65625 C 7.257812 -4.84375 6.878906 -5.003906 6.421875 -5.140625 C 5.972656 -5.273438 5.445312 -5.410156 4.84375 -5.546875 C 4.207031 -5.691406 3.648438 -5.84375 3.171875 -6 C 2.703125 -6.15625 2.300781 -6.351562 1.96875 -6.59375 C 1.644531 -6.832031 1.398438 -7.117188 1.234375 -7.453125 C 1.066406 -7.785156 0.984375 -8.195312 0.984375 -8.6875 C 0.984375 -9.238281 1.085938 -9.734375 1.296875 -10.171875 C 1.503906 -10.609375 1.800781 -10.972656 2.1875 -11.265625 C 2.570312 -11.554688 3.023438 -11.773438 3.546875 -11.921875 C 4.066406 -12.078125 4.644531 -12.15625 5.28125 -12.15625 C 6.09375 -12.15625 6.8125 -12.03125 7.4375 -11.78125 C 8.0625 -11.539062 8.628906 -11.203125 9.140625 -10.765625 Z M 8.5625 -9.8125 "/></g></g></g><g fill="#ffffff" fill-opacity="1"><g transform="translate(633.027638, 260.342678)"><g/></g></g><g fill="#ffffff" fill-opacity="1"><g transform="translate(637.360634, 260.342678)"><g><path d="M 1.578125 -12.0625 L 5.53125 -5.578125 L 9.5 -12.0625 L 10.796875 -12.0625 L 6.125 -4.484375 L 6.125 0 L 4.9375 0 L 4.9375 -4.515625 L 0.265625 -12.0625 Z M 1.578125 -12.0625 "/></g></g></g><g fill="#ffffff" fill-opacity="1"><g transform="translate(648.422527, 260.342678)"><g/></g></g><g fill="#ffffff" fill-opacity="1"><g transform="translate(652.755523, 260.342678)"><g><path d="M 12.203125 0 L 12.203125 -9.90625 L 7.796875 -2.25 L 7.109375 -2.25 L 2.703125 -9.90625 L 2.703125 0 L 1.515625 0 L 1.515625 -12.0625 L 2.734375 -12.0625 L 7.453125 -3.8125 L 12.1875 -12.0625 L 13.390625 -12.0625 L 13.390625 0 Z M 12.203125 0 "/></g></g></g><g fill="#ffffff" fill-opacity="1"><g transform="translate(667.657641, 260.342678)"><g><path d="M 5.25 -12.0625 L 6.25 -12.0625 L 11.265625 0 L 10.015625 0 L 8.453125 -3.78125 L 3.03125 -3.78125 L 1.484375 0 L 0.203125 0 Z M 8.171875 -4.703125 L 5.75 -10.671875 L 3.28125 -4.703125 Z M 5.859375 -13.71875 L 5.09375 -14.015625 L 6.109375 -15.59375 L 7.328125 -15.59375 Z M 5.859375 -13.71875 "/></g></g></g><g fill="#ffffff" fill-opacity="1"><g transform="translate(679.144327, 260.342678)"><g><path d="M 8.5625 -9.8125 C 8.226562 -10.195312 7.773438 -10.503906 7.203125 -10.734375 C 6.640625 -10.972656 5.992188 -11.09375 5.265625 -11.09375 C 4.203125 -11.09375 3.425781 -10.890625 2.9375 -10.484375 C 2.445312 -10.085938 2.203125 -9.546875 2.203125 -8.859375 C 2.203125 -8.492188 2.265625 -8.191406 2.390625 -7.953125 C 2.523438 -7.722656 2.726562 -7.523438 3 -7.359375 C 3.28125 -7.191406 3.628906 -7.046875 4.046875 -6.921875 C 4.472656 -6.796875 4.976562 -6.671875 5.5625 -6.546875 C 6.207031 -6.410156 6.785156 -6.253906 7.296875 -6.078125 C 7.816406 -5.910156 8.253906 -5.695312 8.609375 -5.4375 C 8.972656 -5.1875 9.25 -4.878906 9.4375 -4.515625 C 9.632812 -4.160156 9.734375 -3.707031 9.734375 -3.15625 C 9.734375 -2.601562 9.625 -2.125 9.40625 -1.71875 C 9.195312 -1.3125 8.898438 -0.96875 8.515625 -0.6875 C 8.128906 -0.414062 7.671875 -0.210938 7.140625 -0.078125 C 6.609375 0.046875 6.023438 0.109375 5.390625 0.109375 C 3.515625 0.109375 1.898438 -0.476562 0.546875 -1.65625 L 1.140625 -2.625 C 1.359375 -2.394531 1.613281 -2.175781 1.90625 -1.96875 C 2.207031 -1.769531 2.539062 -1.59375 2.90625 -1.4375 C 3.28125 -1.28125 3.675781 -1.160156 4.09375 -1.078125 C 4.507812 -0.992188 4.953125 -0.953125 5.421875 -0.953125 C 6.390625 -0.953125 7.140625 -1.125 7.671875 -1.46875 C 8.210938 -1.8125 8.484375 -2.335938 8.484375 -3.046875 C 8.484375 -3.421875 8.40625 -3.734375 8.25 -3.984375 C 8.101562 -4.242188 7.875 -4.46875 7.5625 -4.65625 C 7.257812 -4.84375 6.878906 -5.003906 6.421875 -5.140625 C 5.972656 -5.273438 5.445312 -5.410156 4.84375 -5.546875 C 4.207031 -5.691406 3.648438 -5.84375 3.171875 -6 C 2.703125 -6.15625 2.300781 -6.351562 1.96875 -6.59375 C 1.644531 -6.832031 1.398438 -7.117188 1.234375 -7.453125 C 1.066406 -7.785156 0.984375 -8.195312 0.984375 -8.6875 C 0.984375 -9.238281 1.085938 -9.734375 1.296875 -10.171875 C 1.503906 -10.609375 1.800781 -10.972656 2.1875 -11.265625 C 2.570312 -11.554688 3.023438 -11.773438 3.546875 -11.921875 C 4.066406 -12.078125 4.644531 -12.15625 5.28125 -12.15625 C 6.09375 -12.15625 6.8125 -12.03125 7.4375 -11.78125 C 8.0625 -11.539062 8.628906 -11.203125 9.140625 -10.765625 Z M 8.5625 -9.8125 "/></g></g></g><g fill="#ffffff" fill-opacity="1"><g transform="translate(462.936196, 283.592677)"><g><path d="M 1.515625 0 L 1.515625 -12.0625 L 5.609375 -12.0625 C 6.578125 -12.0625 7.421875 -11.90625 8.140625 -11.59375 C 8.859375 -11.28125 9.457031 -10.847656 9.9375 -10.296875 C 10.414062 -9.753906 10.773438 -9.117188 11.015625 -8.390625 C 11.265625 -7.660156 11.390625 -6.878906 11.390625 -6.046875 C 11.390625 -5.128906 11.253906 -4.300781 10.984375 -3.5625 C 10.710938 -2.820312 10.320312 -2.1875 9.8125 -1.65625 C 9.3125 -1.125 8.707031 -0.710938 8 -0.421875 C 7.289062 -0.140625 6.492188 0 5.609375 0 Z M 10.203125 -6.046875 C 10.203125 -6.773438 10.097656 -7.441406 9.890625 -8.046875 C 9.691406 -8.648438 9.394531 -9.171875 9 -9.609375 C 8.613281 -10.054688 8.132812 -10.398438 7.5625 -10.640625 C 7 -10.890625 6.347656 -11.015625 5.609375 -11.015625 L 2.703125 -11.015625 L 2.703125 -1.046875 L 5.609375 -1.046875 C 6.359375 -1.046875 7.019531 -1.171875 7.59375 -1.421875 C 8.164062 -1.679688 8.644531 -2.035156 9.03125 -2.484375 C 9.414062 -2.929688 9.707031 -3.457031 9.90625 -4.0625 C 10.101562 -4.675781 10.203125 -5.335938 10.203125 -6.046875 Z M 10.203125 -6.046875 "/></g></g></g><g fill="#ffffff" fill-opacity="1"><g transform="translate(475.085587, 283.592677)"><g><path d="M 9.625 -1.046875 L 9.625 0 L 1.515625 0 L 1.515625 -12.0625 L 9.46875 -12.0625 L 9.46875 -11.015625 L 2.703125 -11.015625 L 2.703125 -6.65625 L 8.609375 -6.65625 L 8.609375 -5.65625 L 2.703125 -5.65625 L 2.703125 -1.046875 Z M 9.625 -1.046875 "/></g></g></g><g fill="#ffffff" fill-opacity="1"><g transform="translate(485.433803, 283.592677)"><g><path d="M 8.5625 -9.8125 C 8.226562 -10.195312 7.773438 -10.503906 7.203125 -10.734375 C 6.640625 -10.972656 5.992188 -11.09375 5.265625 -11.09375 C 4.203125 -11.09375 3.425781 -10.890625 2.9375 -10.484375 C 2.445312 -10.085938 2.203125 -9.546875 2.203125 -8.859375 C 2.203125 -8.492188 2.265625 -8.191406 2.390625 -7.953125 C 2.523438 -7.722656 2.726562 -7.523438 3 -7.359375 C 3.28125 -7.191406 3.628906 -7.046875 4.046875 -6.921875 C 4.472656 -6.796875 4.976562 -6.671875 5.5625 -6.546875 C 6.207031 -6.410156 6.785156 -6.253906 7.296875 -6.078125 C 7.816406 -5.910156 8.253906 -5.695312 8.609375 -5.4375 C 8.972656 -5.1875 9.25 -4.878906 9.4375 -4.515625 C 9.632812 -4.160156 9.734375 -3.707031 9.734375 -3.15625 C 9.734375 -2.601562 9.625 -2.125 9.40625 -1.71875 C 9.195312 -1.3125 8.898438 -0.96875 8.515625 -0.6875 C 8.128906 -0.414062 7.671875 -0.210938 7.140625 -0.078125 C 6.609375 0.046875 6.023438 0.109375 5.390625 0.109375 C 3.515625 0.109375 1.898438 -0.476562 0.546875 -1.65625 L 1.140625 -2.625 C 1.359375 -2.394531 1.613281 -2.175781 1.90625 -1.96875 C 2.207031 -1.769531 2.539062 -1.59375 2.90625 -1.4375 C 3.28125 -1.28125 3.675781 -1.160156 4.09375 -1.078125 C 4.507812 -0.992188 4.953125 -0.953125 5.421875 -0.953125 C 6.390625 -0.953125 7.140625 -1.125 7.671875 -1.46875 C 8.210938 -1.8125 8.484375 -2.335938 8.484375 -3.046875 C 8.484375 -3.421875 8.40625 -3.734375 8.25 -3.984375 C 8.101562 -4.242188 7.875 -4.46875 7.5625 -4.65625 C 7.257812 -4.84375 6.878906 -5.003906 6.421875 -5.140625 C 5.972656 -5.273438 5.445312 -5.410156 4.84375 -5.546875 C 4.207031 -5.691406 3.648438 -5.84375 3.171875 -6 C 2.703125 -6.15625 2.300781 -6.351562 1.96875 -6.59375 C 1.644531 -6.832031 1.398438 -7.117188 1.234375 -7.453125 C 1.066406 -7.785156 0.984375 -8.195312 0.984375 -8.6875 C 0.984375 -9.238281 1.085938 -9.734375 1.296875 -10.171875 C 1.503906 -10.609375 1.800781 -10.972656 2.1875 -11.265625 C 2.570312 -11.554688 3.023438 -11.773438 3.546875 -11.921875 C 4.066406 -12.078125 4.644531 -12.15625 5.28125 -12.15625 C 6.09375 -12.15625 6.8125 -12.03125 7.4375 -11.78125 C 8.0625 -11.539062 8.628906 -11.203125 9.140625 -10.765625 Z M 8.5625 -9.8125 "/></g></g></g><g fill="#ffffff" fill-opacity="1"><g transform="translate(495.748042, 283.592677)"><g><path d="M 0.71875 -6.125 C 0.71875 -6.84375 0.84375 -7.5625 1.09375 -8.28125 C 1.351562 -9 1.722656 -9.640625 2.203125 -10.203125 C 2.691406 -10.773438 3.289062 -11.238281 4 -11.59375 C 4.71875 -11.957031 5.53125 -12.140625 6.4375 -12.140625 C 7.519531 -12.140625 8.441406 -11.894531 9.203125 -11.40625 C 9.972656 -10.914062 10.535156 -10.28125 10.890625 -9.5 L 9.96875 -8.921875 C 9.769531 -9.316406 9.53125 -9.648438 9.25 -9.921875 C 8.976562 -10.203125 8.679688 -10.425781 8.359375 -10.59375 C 8.046875 -10.757812 7.71875 -10.878906 7.375 -10.953125 C 7.039062 -11.023438 6.707031 -11.0625 6.375 -11.0625 C 5.644531 -11.0625 5.003906 -10.914062 4.453125 -10.625 C 3.898438 -10.332031 3.429688 -9.945312 3.046875 -9.46875 C 2.671875 -8.988281 2.382812 -8.453125 2.1875 -7.859375 C 2 -7.265625 1.90625 -6.660156 1.90625 -6.046875 C 1.90625 -5.378906 2.019531 -4.738281 2.25 -4.125 C 2.476562 -3.519531 2.796875 -2.976562 3.203125 -2.5 C 3.609375 -2.03125 4.082031 -1.65625 4.625 -1.375 C 5.175781 -1.101562 5.773438 -0.96875 6.421875 -0.96875 C 6.765625 -0.96875 7.113281 -1.007812 7.46875 -1.09375 C 7.820312 -1.175781 8.164062 -1.3125 8.5 -1.5 C 8.84375 -1.6875 9.15625 -1.921875 9.4375 -2.203125 C 9.71875 -2.484375 9.957031 -2.820312 10.15625 -3.21875 L 11.140625 -2.703125 C 10.941406 -2.242188 10.664062 -1.84375 10.3125 -1.5 C 9.96875 -1.15625 9.578125 -0.863281 9.140625 -0.625 C 8.710938 -0.382812 8.257812 -0.203125 7.78125 -0.078125 C 7.300781 0.046875 6.828125 0.109375 6.359375 0.109375 C 5.523438 0.109375 4.765625 -0.0703125 4.078125 -0.4375 C 3.390625 -0.800781 2.796875 -1.273438 2.296875 -1.859375 C 1.796875 -2.441406 1.40625 -3.101562 1.125 -3.84375 C 0.851562 -4.59375 0.71875 -5.351562 0.71875 -6.125 Z M 0.71875 -6.125 "/></g></g></g><g fill="#ffffff" fill-opacity="1"><g transform="translate(507.404661, 283.592677)"><g><path d="M 6.40625 -0.984375 C 7.164062 -0.984375 7.796875 -1.128906 8.296875 -1.421875 C 8.804688 -1.710938 9.210938 -2.09375 9.515625 -2.5625 C 9.816406 -3.03125 10.023438 -3.5625 10.140625 -4.15625 C 10.253906 -4.757812 10.3125 -5.367188 10.3125 -5.984375 L 10.3125 -12.0625 L 11.515625 -12.0625 L 11.515625 -5.984375 C 11.515625 -5.171875 11.421875 -4.394531 11.234375 -3.65625 C 11.054688 -2.925781 10.765625 -2.285156 10.359375 -1.734375 C 9.960938 -1.179688 9.4375 -0.738281 8.78125 -0.40625 C 8.132812 -0.0820312 7.347656 0.078125 6.421875 0.078125 C 5.472656 0.078125 4.671875 -0.09375 4.015625 -0.4375 C 3.367188 -0.78125 2.847656 -1.234375 2.453125 -1.796875 C 2.054688 -2.367188 1.769531 -3.015625 1.59375 -3.734375 C 1.425781 -4.460938 1.34375 -5.210938 1.34375 -5.984375 L 1.34375 -12.0625 L 2.515625 -12.0625 L 2.515625 -5.984375 C 2.515625 -5.347656 2.578125 -4.726562 2.703125 -4.125 C 2.828125 -3.53125 3.039062 -3 3.34375 -2.53125 C 3.644531 -2.070312 4.039062 -1.695312 4.53125 -1.40625 C 5.03125 -1.125 5.65625 -0.984375 6.40625 -0.984375 Z M 6.40625 -0.984375 "/></g></g></g><g fill="#ffffff" fill-opacity="1"><g transform="translate(520.233739, 283.592677)"><g><path d="M 9.625 -1.046875 L 9.625 0 L 1.515625 0 L 1.515625 -12.0625 L 9.46875 -12.0625 L 9.46875 -11.015625 L 2.703125 -11.015625 L 2.703125 -6.65625 L 8.609375 -6.65625 L 8.609375 -5.65625 L 2.703125 -5.65625 L 2.703125 -1.046875 Z M 9.625 -1.046875 "/></g></g></g><g fill="#ffffff" fill-opacity="1"><g transform="translate(530.581955, 283.592677)"><g><path d="M 2.703125 -9.859375 L 2.703125 0 L 1.515625 0 L 1.515625 -12.0625 L 2.4375 -12.0625 L 10.421875 -2.015625 L 10.421875 -12.046875 L 11.609375 -12.046875 L 11.609375 0 L 10.578125 0 Z M 2.703125 -9.859375 "/></g></g></g><g fill="#ffffff" fill-opacity="1"><g transform="translate(543.699893, 283.592677)"><g><path d="M 10.078125 -11.015625 L 5.78125 -11.015625 L 5.78125 0 L 4.59375 0 L 4.59375 -11.015625 L 0.28125 -11.015625 L 0.28125 -12.0625 L 10.078125 -12.0625 Z M 10.078125 -11.015625 "/></g></g></g><g fill="#ffffff" fill-opacity="1"><g transform="translate(554.065104, 283.592677)"><g><path d="M 6.375 0.078125 C 5.53125 0.078125 4.757812 -0.09375 4.0625 -0.4375 C 3.375 -0.78125 2.78125 -1.238281 2.28125 -1.8125 C 1.78125 -2.382812 1.394531 -3.035156 1.125 -3.765625 C 0.851562 -4.503906 0.71875 -5.257812 0.71875 -6.03125 C 0.71875 -6.832031 0.859375 -7.601562 1.140625 -8.34375 C 1.429688 -9.082031 1.832031 -9.734375 2.34375 -10.296875 C 2.851562 -10.867188 3.453125 -11.320312 4.140625 -11.65625 C 4.835938 -11.988281 5.585938 -12.15625 6.390625 -12.15625 C 7.234375 -12.15625 8 -11.972656 8.6875 -11.609375 C 9.382812 -11.253906 9.976562 -10.785156 10.46875 -10.203125 C 10.96875 -9.628906 11.351562 -8.976562 11.625 -8.25 C 11.894531 -7.519531 12.03125 -6.773438 12.03125 -6.015625 C 12.03125 -5.210938 11.882812 -4.441406 11.59375 -3.703125 C 11.3125 -2.960938 10.914062 -2.3125 10.40625 -1.75 C 9.90625 -1.195312 9.304688 -0.753906 8.609375 -0.421875 C 7.921875 -0.0859375 7.175781 0.078125 6.375 0.078125 Z M 1.90625 -6.03125 C 1.90625 -5.375 2.007812 -4.742188 2.21875 -4.140625 C 2.4375 -3.535156 2.742188 -2.992188 3.140625 -2.515625 C 3.535156 -2.046875 4.003906 -1.671875 4.546875 -1.390625 C 5.097656 -1.117188 5.707031 -0.984375 6.375 -0.984375 C 7.050781 -0.984375 7.664062 -1.128906 8.21875 -1.421875 C 8.78125 -1.722656 9.253906 -2.109375 9.640625 -2.578125 C 10.023438 -3.054688 10.320312 -3.59375 10.53125 -4.1875 C 10.738281 -4.789062 10.84375 -5.40625 10.84375 -6.03125 C 10.84375 -6.6875 10.734375 -7.316406 10.515625 -7.921875 C 10.296875 -8.535156 9.988281 -9.070312 9.59375 -9.53125 C 9.195312 -10 8.722656 -10.367188 8.171875 -10.640625 C 7.628906 -10.921875 7.03125 -11.0625 6.375 -11.0625 C 5.695312 -11.0625 5.078125 -10.914062 4.515625 -10.625 C 3.960938 -10.34375 3.492188 -9.960938 3.109375 -9.484375 C 2.722656 -9.003906 2.425781 -8.460938 2.21875 -7.859375 C 2.007812 -7.265625 1.90625 -6.65625 1.90625 -6.03125 Z M 1.90625 -6.03125 "/></g></g></g><g fill="#ffffff" fill-opacity="1"><g transform="translate(566.826204, 283.592677)"><g><path d="M 8.5625 -9.8125 C 8.226562 -10.195312 7.773438 -10.503906 7.203125 -10.734375 C 6.640625 -10.972656 5.992188 -11.09375 5.265625 -11.09375 C 4.203125 -11.09375 3.425781 -10.890625 2.9375 -10.484375 C 2.445312 -10.085938 2.203125 -9.546875 2.203125 -8.859375 C 2.203125 -8.492188 2.265625 -8.191406 2.390625 -7.953125 C 2.523438 -7.722656 2.726562 -7.523438 3 -7.359375 C 3.28125 -7.191406 3.628906 -7.046875 4.046875 -6.921875 C 4.472656 -6.796875 4.976562 -6.671875 5.5625 -6.546875 C 6.207031 -6.410156 6.785156 -6.253906 7.296875 -6.078125 C 7.816406 -5.910156 8.253906 -5.695312 8.609375 -5.4375 C 8.972656 -5.1875 9.25 -4.878906 9.4375 -4.515625 C 9.632812 -4.160156 9.734375 -3.707031 9.734375 -3.15625 C 9.734375 -2.601562 9.625 -2.125 9.40625 -1.71875 C 9.195312 -1.3125 8.898438 -0.96875 8.515625 -0.6875 C 8.128906 -0.414062 7.671875 -0.210938 7.140625 -0.078125 C 6.609375 0.046875 6.023438 0.109375 5.390625 0.109375 C 3.515625 0.109375 1.898438 -0.476562 0.546875 -1.65625 L 1.140625 -2.625 C 1.359375 -2.394531 1.613281 -2.175781 1.90625 -1.96875 C 2.207031 -1.769531 2.539062 -1.59375 2.90625 -1.4375 C 3.28125 -1.28125 3.675781 -1.160156 4.09375 -1.078125 C 4.507812 -0.992188 4.953125 -0.953125 5.421875 -0.953125 C 6.390625 -0.953125 7.140625 -1.125 7.671875 -1.46875 C 8.210938 -1.8125 8.484375 -2.335938 8.484375 -3.046875 C 8.484375 -3.421875 8.40625 -3.734375 8.25 -3.984375 C 8.101562 -4.242188 7.875 -4.46875 7.5625 -4.65625 C 7.257812 -4.84375 6.878906 -5.003906 6.421875 -5.140625 C 5.972656 -5.273438 5.445312 -5.410156 4.84375 -5.546875 C 4.207031 -5.691406 3.648438 -5.84375 3.171875 -6 C 2.703125 -6.15625 2.300781 -6.351562 1.96875 -6.59375 C 1.644531 -6.832031 1.398438 -7.117188 1.234375 -7.453125 C 1.066406 -7.785156 0.984375 -8.195312 0.984375 -8.6875 C 0.984375 -9.238281 1.085938 -9.734375 1.296875 -10.171875 C 1.503906 -10.609375 1.800781 -10.972656 2.1875 -11.265625 C 2.570312 -11.554688 3.023438 -11.773438 3.546875 -11.921875 C 4.066406 -12.078125 4.644531 -12.15625 5.28125 -12.15625 C 6.09375 -12.15625 6.8125 -12.03125 7.4375 -11.78125 C 8.0625 -11.539062 8.628906 -11.203125 9.140625 -10.765625 Z M 8.5625 -9.8125 "/></g></g></g><g fill="#ffffff" fill-opacity="1"><g transform="translate(577.140443, 283.592677)"><g/></g></g><g fill="#ffffff" fill-opacity="1"><g transform="translate(581.473439, 283.592677)"><g><path d="M 1.515625 0 L 1.515625 -12.0625 L 2.703125 -12.0625 L 2.703125 0 Z M 1.515625 0 "/></g></g></g><g fill="#ffffff" fill-opacity="1"><g transform="translate(585.687496, 283.592677)"><g><path d="M 12.203125 0 L 12.203125 -9.90625 L 7.796875 -2.25 L 7.109375 -2.25 L 2.703125 -9.90625 L 2.703125 0 L 1.515625 0 L 1.515625 -12.0625 L 2.734375 -12.0625 L 7.453125 -3.8125 L 12.1875 -12.0625 L 13.390625 -12.0625 L 13.390625 0 Z M 12.203125 0 "/></g></g></g><g fill="#ffffff" fill-opacity="1"><g transform="translate(600.589614, 283.592677)"><g><path d="M 1.515625 0 L 1.515625 -12.0625 L 6.515625 -12.0625 C 7.035156 -12.0625 7.515625 -11.953125 7.953125 -11.734375 C 8.390625 -11.515625 8.765625 -11.226562 9.078125 -10.875 C 9.390625 -10.519531 9.632812 -10.113281 9.8125 -9.65625 C 10 -9.195312 10.09375 -8.738281 10.09375 -8.28125 C 10.09375 -7.78125 10.007812 -7.300781 9.84375 -6.84375 C 9.675781 -6.382812 9.4375 -5.976562 9.125 -5.625 C 8.820312 -5.269531 8.457031 -4.984375 8.03125 -4.765625 C 7.601562 -4.554688 7.128906 -4.453125 6.609375 -4.453125 L 2.703125 -4.453125 L 2.703125 0 Z M 2.703125 -5.515625 L 6.5625 -5.515625 C 6.914062 -5.515625 7.234375 -5.585938 7.515625 -5.734375 C 7.804688 -5.890625 8.050781 -6.09375 8.25 -6.34375 C 8.457031 -6.601562 8.617188 -6.898438 8.734375 -7.234375 C 8.847656 -7.566406 8.90625 -7.914062 8.90625 -8.28125 C 8.90625 -8.65625 8.835938 -9.007812 8.703125 -9.34375 C 8.578125 -9.675781 8.40625 -9.96875 8.1875 -10.21875 C 7.96875 -10.46875 7.707031 -10.660156 7.40625 -10.796875 C 7.101562 -10.941406 6.785156 -11.015625 6.453125 -11.015625 L 2.703125 -11.015625 Z M 2.703125 -5.515625 "/></g></g></g><g fill="#ffffff" fill-opacity="1"><g transform="translate(611.158736, 283.592677)"><g><path d="M 9.625 -1.046875 L 9.625 0 L 1.515625 0 L 1.515625 -12.0625 L 9.46875 -12.0625 L 9.46875 -11.015625 L 2.703125 -11.015625 L 2.703125 -6.65625 L 8.609375 -6.65625 L 8.609375 -5.65625 L 2.703125 -5.65625 L 2.703125 -1.046875 Z M 9.625 -1.046875 "/></g></g></g><g fill="#ffffff" fill-opacity="1"><g transform="translate(621.506952, 283.592677)"><g><path d="M 1.515625 0 L 1.515625 -12.0625 L 6.609375 -12.0625 C 7.128906 -12.0625 7.609375 -11.953125 8.046875 -11.734375 C 8.484375 -11.515625 8.859375 -11.226562 9.171875 -10.875 C 9.492188 -10.519531 9.742188 -10.113281 9.921875 -9.65625 C 10.097656 -9.195312 10.1875 -8.738281 10.1875 -8.28125 C 10.1875 -7.832031 10.117188 -7.40625 9.984375 -7 C 9.859375 -6.601562 9.675781 -6.242188 9.4375 -5.921875 C 9.207031 -5.597656 8.925781 -5.328125 8.59375 -5.109375 C 8.269531 -4.890625 7.90625 -4.738281 7.5 -4.65625 L 10.453125 0 L 9.109375 0 L 6.265625 -4.453125 L 2.703125 -4.453125 L 2.703125 0 Z M 2.703125 -5.515625 L 6.640625 -5.515625 C 6.992188 -5.515625 7.316406 -5.585938 7.609375 -5.734375 C 7.898438 -5.890625 8.144531 -6.097656 8.34375 -6.359375 C 8.550781 -6.617188 8.710938 -6.910156 8.828125 -7.234375 C 8.941406 -7.566406 9 -7.914062 9 -8.28125 C 9 -8.644531 8.929688 -8.992188 8.796875 -9.328125 C 8.671875 -9.660156 8.492188 -9.953125 8.265625 -10.203125 C 8.046875 -10.453125 7.785156 -10.648438 7.484375 -10.796875 C 7.179688 -10.941406 6.867188 -11.015625 6.546875 -11.015625 L 2.703125 -11.015625 Z M 2.703125 -5.515625 "/></g></g></g><g fill="#ffffff" fill-opacity="1"><g transform="translate(632.602823, 283.592677)"><g><path d="M 1.515625 0 L 1.515625 -12.0625 L 5.609375 -12.0625 C 6.578125 -12.0625 7.421875 -11.90625 8.140625 -11.59375 C 8.859375 -11.28125 9.457031 -10.847656 9.9375 -10.296875 C 10.414062 -9.753906 10.773438 -9.117188 11.015625 -8.390625 C 11.265625 -7.660156 11.390625 -6.878906 11.390625 -6.046875 C 11.390625 -5.128906 11.253906 -4.300781 10.984375 -3.5625 C 10.710938 -2.820312 10.320312 -2.1875 9.8125 -1.65625 C 9.3125 -1.125 8.707031 -0.710938 8 -0.421875 C 7.289062 -0.140625 6.492188 0 5.609375 0 Z M 10.203125 -6.046875 C 10.203125 -6.773438 10.097656 -7.441406 9.890625 -8.046875 C 9.691406 -8.648438 9.394531 -9.171875 9 -9.609375 C 8.613281 -10.054688 8.132812 -10.398438 7.5625 -10.640625 C 7 -10.890625 6.347656 -11.015625 5.609375 -11.015625 L 2.703125 -11.015625 L 2.703125 -1.046875 L 5.609375 -1.046875 C 6.359375 -1.046875 7.019531 -1.171875 7.59375 -1.421875 C 8.164062 -1.679688 8.644531 -2.035156 9.03125 -2.484375 C 9.414062 -2.929688 9.707031 -3.457031 9.90625 -4.0625 C 10.101562 -4.675781 10.203125 -5.335938 10.203125 -6.046875 Z M 10.203125 -6.046875 "/></g></g></g><g fill="#ffffff" fill-opacity="1"><g transform="translate(644.752213, 283.592677)"><g><path d="M 1.515625 0 L 1.515625 -12.0625 L 2.703125 -12.0625 L 2.703125 0 Z M 1.515625 0 "/></g></g></g><g fill="#ffffff" fill-opacity="1"><g transform="translate(648.966271, 283.592677)"><g><path d="M 10.59375 -3.109375 C 10.59375 -2.660156 10.5 -2.242188 10.3125 -1.859375 C 10.132812 -1.484375 9.890625 -1.15625 9.578125 -0.875 C 9.273438 -0.59375 8.921875 -0.375 8.515625 -0.21875 C 8.109375 -0.0703125 7.671875 0 7.203125 0 L 1.515625 0 L 1.515625 -12.0625 L 7.328125 -12.0625 C 7.742188 -12.0625 8.117188 -11.972656 8.453125 -11.796875 C 8.796875 -11.617188 9.085938 -11.382812 9.328125 -11.09375 C 9.566406 -10.800781 9.75 -10.46875 9.875 -10.09375 C 10.007812 -9.726562 10.078125 -9.363281 10.078125 -9 C 10.078125 -8.382812 9.921875 -7.820312 9.609375 -7.3125 C 9.304688 -6.8125 8.882812 -6.4375 8.34375 -6.1875 C 9.039062 -5.976562 9.585938 -5.597656 9.984375 -5.046875 C 10.390625 -4.492188 10.59375 -3.847656 10.59375 -3.109375 Z M 9.40625 -3.3125 C 9.40625 -3.601562 9.351562 -3.890625 9.25 -4.171875 C 9.144531 -4.453125 9 -4.695312 8.8125 -4.90625 C 8.625 -5.113281 8.398438 -5.28125 8.140625 -5.40625 C 7.890625 -5.539062 7.617188 -5.609375 7.328125 -5.609375 L 2.703125 -5.609375 L 2.703125 -1.03125 L 7.203125 -1.03125 C 7.515625 -1.03125 7.800781 -1.09375 8.0625 -1.21875 C 8.332031 -1.34375 8.566406 -1.507812 8.765625 -1.71875 C 8.960938 -1.9375 9.117188 -2.179688 9.234375 -2.453125 C 9.347656 -2.734375 9.40625 -3.019531 9.40625 -3.3125 Z M 2.703125 -11.03125 L 2.703125 -6.578125 L 6.84375 -6.578125 C 7.144531 -6.578125 7.421875 -6.640625 7.671875 -6.765625 C 7.929688 -6.890625 8.148438 -7.050781 8.328125 -7.25 C 8.515625 -7.457031 8.65625 -7.691406 8.75 -7.953125 C 8.851562 -8.222656 8.90625 -8.507812 8.90625 -8.8125 C 8.90625 -9.113281 8.859375 -9.398438 8.765625 -9.671875 C 8.671875 -9.941406 8.535156 -10.175781 8.359375 -10.375 C 8.179688 -10.570312 7.972656 -10.726562 7.734375 -10.84375 C 7.492188 -10.96875 7.234375 -11.03125 6.953125 -11.03125 Z M 2.703125 -11.03125 "/></g></g></g><g fill="#ffffff" fill-opacity="1"><g transform="translate(660.283046, 283.592677)"><g><path d="M 1.515625 0 L 1.515625 -12.0625 L 2.703125 -12.0625 L 2.703125 -1.046875 L 9.671875 -1.046875 L 9.671875 0 Z M 1.515625 0 "/></g></g></g><g fill="#ffffff" fill-opacity="1"><g transform="translate(670.189463, 283.592677)"><g><path d="M 9.625 -1.046875 L 9.625 0 L 1.515625 0 L 1.515625 -12.0625 L 9.46875 -12.0625 L 9.46875 -11.015625 L 2.703125 -11.015625 L 2.703125 -6.65625 L 8.609375 -6.65625 L 8.609375 -5.65625 L 2.703125 -5.65625 L 2.703125 -1.046875 Z M 9.625 -1.046875 "/></g></g></g><g fill="#ffffff" fill-opacity="1"><g transform="translate(680.537668, 283.592677)"><g><path d="M 8.5625 -9.8125 C 8.226562 -10.195312 7.773438 -10.503906 7.203125 -10.734375 C 6.640625 -10.972656 5.992188 -11.09375 5.265625 -11.09375 C 4.203125 -11.09375 3.425781 -10.890625 2.9375 -10.484375 C 2.445312 -10.085938 2.203125 -9.546875 2.203125 -8.859375 C 2.203125 -8.492188 2.265625 -8.191406 2.390625 -7.953125 C 2.523438 -7.722656 2.726562 -7.523438 3 -7.359375 C 3.28125 -7.191406 3.628906 -7.046875 4.046875 -6.921875 C 4.472656 -6.796875 4.976562 -6.671875 5.5625 -6.546875 C 6.207031 -6.410156 6.785156 -6.253906 7.296875 -6.078125 C 7.816406 -5.910156 8.253906 -5.695312 8.609375 -5.4375 C 8.972656 -5.1875 9.25 -4.878906 9.4375 -4.515625 C 9.632812 -4.160156 9.734375 -3.707031 9.734375 -3.15625 C 9.734375 -2.601562 9.625 -2.125 9.40625 -1.71875 C 9.195312 -1.3125 8.898438 -0.96875 8.515625 -0.6875 C 8.128906 -0.414062 7.671875 -0.210938 7.140625 -0.078125 C 6.609375 0.046875 6.023438 0.109375 5.390625 0.109375 C 3.515625 0.109375 1.898438 -0.476562 0.546875 -1.65625 L 1.140625 -2.625 C 1.359375 -2.394531 1.613281 -2.175781 1.90625 -1.96875 C 2.207031 -1.769531 2.539062 -1.59375 2.90625 -1.4375 C 3.28125 -1.28125 3.675781 -1.160156 4.09375 -1.078125 C 4.507812 -0.992188 4.953125 -0.953125 5.421875 -0.953125 C 6.390625 -0.953125 7.140625 -1.125 7.671875 -1.46875 C 8.210938 -1.8125 8.484375 -2.335938 8.484375 -3.046875 C 8.484375 -3.421875 8.40625 -3.734375 8.25 -3.984375 C 8.101562 -4.242188 7.875 -4.46875 7.5625 -4.65625 C 7.257812 -4.84375 6.878906 -5.003906 6.421875 -5.140625 C 5.972656 -5.273438 5.445312 -5.410156 4.84375 -5.546875 C 4.207031 -5.691406 3.648438 -5.84375 3.171875 -6 C 2.703125 -6.15625 2.300781 -6.351562 1.96875 -6.59375 C 1.644531 -6.832031 1.398438 -7.117188 1.234375 -7.453125 C 1.066406 -7.785156 0.984375 -8.195312 0.984375 -8.6875 C 0.984375 -9.238281 1.085938 -9.734375 1.296875 -10.171875 C 1.503906 -10.609375 1.800781 -10.972656 2.1875 -11.265625 C 2.570312 -11.554688 3.023438 -11.773438 3.546875 -11.921875 C 4.066406 -12.078125 4.644531 -12.15625 5.28125 -12.15625 C 6.09375 -12.15625 6.8125 -12.03125 7.4375 -11.78125 C 8.0625 -11.539062 8.628906 -11.203125 9.140625 -10.765625 Z M 8.5625 -9.8125 "/></g></g></g><g fill="#ffffff" fill-opacity="1"><g transform="translate(690.851907, 283.592677)"><g><path d="M 1.5625 -3.875 L 1.5625 -12.1875 L 2.71875 -12.1875 L 2.71875 -3.875 Z M 1.5625 0 L 1.5625 -1.90625 L 2.71875 -1.90625 L 2.71875 0 Z M 1.5625 0 "/></g></g></g><g fill="#ffffff" fill-opacity="1"><g transform="translate(695.131494, 283.592677)"><g/></g></g><g clip-path="url(#7e92b2e352)"><g clip-path="url(#bdb123cce2)"><path fill="#ffffff" d="M 786.753906 153.160156 L 786.753906 215.386719 L 697.015625 215.386719 L 697.015625 153.160156 Z M 786.753906 153.160156 " fill-opacity="1" fill-rule="nonzero"/></g></g><g fill="#000000" fill-opacity="1"><g transform="translate(720.345437, 178.168689)"><g><path d="M 2.484375 0.5625 C 1.109375 0.332031 0.25 -0.15625 -0.09375 -0.90625 C -0.4375 -1.664062 -0.300781 -2.773438 0.3125 -4.234375 L 0.890625 -5.671875 L 3.859375 -5.171875 L 3.109375 -3.34375 C 2.804688 -2.625 2.894531 -2.222656 3.375 -2.140625 C 3.644531 -2.097656 3.867188 -2.140625 4.046875 -2.265625 C 4.222656 -2.398438 4.378906 -2.65625 4.515625 -3.03125 C 4.722656 -3.5 4.828125 -3.894531 4.828125 -4.21875 C 4.835938 -4.550781 4.796875 -4.835938 4.703125 -5.078125 C 4.617188 -5.328125 4.425781 -5.707031 4.125 -6.21875 L 3.34375 -7.6875 C 2.738281 -8.800781 2.675781 -9.9375 3.15625 -11.09375 C 3.644531 -12.332031 4.320312 -13.222656 5.1875 -13.765625 C 6.0625 -14.316406 7.066406 -14.492188 8.203125 -14.296875 C 9.566406 -14.066406 10.40625 -13.554688 10.71875 -12.765625 C 11.03125 -11.972656 10.875 -10.835938 10.25 -9.359375 L 7.171875 -9.875 L 7.578125 -10.875 C 7.671875 -11.070312 7.679688 -11.238281 7.609375 -11.375 C 7.546875 -11.507812 7.410156 -11.59375 7.203125 -11.625 C 6.972656 -11.664062 6.769531 -11.632812 6.59375 -11.53125 C 6.425781 -11.425781 6.300781 -11.257812 6.21875 -11.03125 C 6.019531 -10.5625 6.097656 -10.03125 6.453125 -9.4375 L 7.546875 -7.5 C 7.785156 -7.050781 7.972656 -6.628906 8.109375 -6.234375 C 8.242188 -5.847656 8.289062 -5.40625 8.25 -4.90625 C 8.21875 -4.414062 8.070312 -3.847656 7.8125 -3.203125 C 7.207031 -1.773438 6.476562 -0.738281 5.625 -0.09375 C 4.78125 0.550781 3.734375 0.769531 2.484375 0.5625 Z M 2.484375 0.5625 "/></g></g></g><g fill="#000000" fill-opacity="1"><g transform="translate(728.455132, 179.532934)"><g><path d="M 2.5 0.5625 C 1.269531 0.351562 0.488281 -0.160156 0.15625 -0.984375 C -0.175781 -1.804688 -0.078125 -2.859375 0.453125 -4.140625 L 3.328125 -11.078125 C 3.847656 -12.328125 4.554688 -13.210938 5.453125 -13.734375 C 6.347656 -14.265625 7.410156 -14.429688 8.640625 -14.234375 C 9.859375 -14.023438 10.648438 -13.546875 11.015625 -12.796875 C 11.390625 -12.054688 11.316406 -11.0625 10.796875 -9.8125 L 7.90625 -2.890625 C 7.363281 -1.585938 6.628906 -0.632812 5.703125 -0.03125 C 4.785156 0.570312 3.71875 0.769531 2.5 0.5625 Z M 3.578125 -2.109375 C 3.859375 -2.066406 4.09375 -2.148438 4.28125 -2.359375 C 4.46875 -2.566406 4.644531 -2.867188 4.8125 -3.265625 L 7.765625 -10.390625 C 7.898438 -10.703125 7.960938 -10.960938 7.953125 -11.171875 C 7.953125 -11.390625 7.816406 -11.519531 7.546875 -11.5625 C 7.046875 -11.644531 6.644531 -11.316406 6.34375 -10.578125 L 3.40625 -3.5 C 3.226562 -3.082031 3.144531 -2.757812 3.15625 -2.53125 C 3.164062 -2.300781 3.304688 -2.160156 3.578125 -2.109375 Z M 3.578125 -2.109375 "/></g></g></g><g fill="#000000" fill-opacity="1"><g transform="translate(737.004616, 180.971162)"><g><path d="M -1.0625 -0.171875 L 4.96875 -14.703125 L 8 -14.1875 L 3.015625 -2.140625 L 6.125 -1.625 L 5.078125 0.859375 Z M -1.0625 -0.171875 "/></g></g></g><g fill="#000000" fill-opacity="1"><g transform="translate(743.988454, 182.146011)"><g><path d="M 2.5 0.5625 C 1.269531 0.351562 0.488281 -0.160156 0.15625 -0.984375 C -0.175781 -1.804688 -0.078125 -2.859375 0.453125 -4.140625 L 3.328125 -11.078125 C 3.847656 -12.328125 4.554688 -13.210938 5.453125 -13.734375 C 6.347656 -14.265625 7.410156 -14.429688 8.640625 -14.234375 C 9.859375 -14.023438 10.648438 -13.546875 11.015625 -12.796875 C 11.390625 -12.054688 11.316406 -11.0625 10.796875 -9.8125 L 7.90625 -2.890625 C 7.363281 -1.585938 6.628906 -0.632812 5.703125 -0.03125 C 4.785156 0.570312 3.71875 0.769531 2.5 0.5625 Z M 3.578125 -2.109375 C 3.859375 -2.066406 4.09375 -2.148438 4.28125 -2.359375 C 4.46875 -2.566406 4.644531 -2.867188 4.8125 -3.265625 L 7.765625 -10.390625 C 7.898438 -10.703125 7.960938 -10.960938 7.953125 -11.171875 C 7.953125 -11.390625 7.816406 -11.519531 7.546875 -11.5625 C 7.046875 -11.644531 6.644531 -11.316406 6.34375 -10.578125 L 3.40625 -3.5 C 3.226562 -3.082031 3.144531 -2.757812 3.15625 -2.53125 C 3.164062 -2.300781 3.304688 -2.160156 3.578125 -2.109375 Z M 3.578125 -2.109375 "/></g></g></g><g fill="#000000" fill-opacity="1"><g transform="translate(706.200968, 193.970481)"><g><path d="M 4.96875 -14.703125 L 8.96875 -14.03125 C 10.175781 -13.820312 10.878906 -13.300781 11.078125 -12.46875 C 11.285156 -11.644531 11.085938 -10.507812 10.484375 -9.0625 C 9.890625 -7.625 9.207031 -6.570312 8.4375 -5.90625 C 7.675781 -5.25 6.703125 -5.019531 5.515625 -5.21875 L 4.28125 -5.4375 L 1.90625 0.328125 L -1.0625 -0.171875 Z M 5.5625 -8.015625 C 5.925781 -7.953125 6.21875 -7.972656 6.4375 -8.078125 C 6.65625 -8.191406 6.84375 -8.363281 7 -8.59375 C 7.15625 -8.820312 7.332031 -9.15625 7.53125 -9.59375 C 7.78125 -10.21875 7.890625 -10.675781 7.859375 -10.96875 C 7.828125 -11.257812 7.597656 -11.441406 7.171875 -11.515625 L 6.84375 -11.578125 L 5.390625 -8.046875 Z M 5.5625 -8.015625 "/></g></g></g><g fill="#000000" fill-opacity="1"><g transform="translate(714.504169, 195.367278)"><g><path d="M 2.5 0.5625 C 1.269531 0.351562 0.488281 -0.160156 0.15625 -0.984375 C -0.175781 -1.804688 -0.078125 -2.859375 0.453125 -4.140625 L 3.328125 -11.078125 C 3.847656 -12.328125 4.554688 -13.210938 5.453125 -13.734375 C 6.347656 -14.265625 7.410156 -14.429688 8.640625 -14.234375 C 9.859375 -14.023438 10.648438 -13.546875 11.015625 -12.796875 C 11.390625 -12.054688 11.316406 -11.0625 10.796875 -9.8125 L 7.90625 -2.890625 C 7.363281 -1.585938 6.628906 -0.632812 5.703125 -0.03125 C 4.785156 0.570312 3.71875 0.769531 2.5 0.5625 Z M 3.578125 -2.109375 C 3.859375 -2.066406 4.09375 -2.148438 4.28125 -2.359375 C 4.46875 -2.566406 4.644531 -2.867188 4.8125 -3.265625 L 7.765625 -10.390625 C 7.898438 -10.703125 7.960938 -10.960938 7.953125 -11.171875 C 7.953125 -11.390625 7.816406 -11.519531 7.546875 -11.5625 C 7.046875 -11.644531 6.644531 -11.316406 6.34375 -10.578125 L 3.40625 -3.5 C 3.226562 -3.082031 3.144531 -2.757812 3.15625 -2.53125 C 3.164062 -2.300781 3.304688 -2.160156 3.578125 -2.109375 Z M 3.578125 -2.109375 "/></g></g></g><g fill="#000000" fill-opacity="1"><g transform="translate(723.053653, 196.805506)"><g><path d="M 4.96875 -14.703125 L 9.625 -13.921875 C 10.363281 -13.796875 10.867188 -13.535156 11.140625 -13.140625 C 11.410156 -12.753906 11.492188 -12.257812 11.390625 -11.65625 C 11.285156 -11.050781 11.046875 -10.300781 10.671875 -9.40625 C 10.335938 -8.582031 9.960938 -7.957031 9.546875 -7.53125 C 9.128906 -7.113281 8.609375 -6.859375 7.984375 -6.765625 C 8.390625 -6.585938 8.625 -6.304688 8.6875 -5.921875 C 8.757812 -5.546875 8.671875 -5.0625 8.421875 -4.46875 L 6.109375 1.03125 L 3.140625 0.53125 L 5.5 -5.171875 C 5.664062 -5.566406 5.6875 -5.832031 5.5625 -5.96875 C 5.445312 -6.113281 5.175781 -6.222656 4.75 -6.296875 L 2 0.34375 L -1.0625 -0.171875 Z M 6.5625 -8.6875 C 6.976562 -8.613281 7.363281 -9.019531 7.71875 -9.90625 C 7.894531 -10.289062 8 -10.582031 8.03125 -10.78125 C 8.070312 -10.976562 8.0625 -11.117188 8 -11.203125 C 7.9375 -11.285156 7.816406 -11.34375 7.640625 -11.375 L 6.9375 -11.5 L 5.828125 -8.8125 Z M 6.5625 -8.6875 "/></g></g></g><g fill="#000000" fill-opacity="1"><g transform="translate(731.444812, 198.2171)"><g/></g></g><g fill="#000000" fill-opacity="1"><g transform="translate(735.561229, 198.90958)"><g><path d="M -1.0625 -0.171875 L 4.96875 -14.703125 L 7.984375 -14.1875 L 5.828125 -9 L 7.25 -8.765625 L 9.40625 -13.953125 L 12.421875 -13.453125 L 6.375 1.078125 L 3.375 0.5625 L 6.125 -6.03125 L 4.6875 -6.265625 L 1.953125 0.328125 Z M -1.0625 -0.171875 "/></g></g></g><g fill="#000000" fill-opacity="1"><g transform="translate(744.339403, 200.386279)"><g><path d="M 2.5 0.5625 C 1.269531 0.351562 0.488281 -0.160156 0.15625 -0.984375 C -0.175781 -1.804688 -0.078125 -2.859375 0.453125 -4.140625 L 3.328125 -11.078125 C 3.847656 -12.328125 4.554688 -13.210938 5.453125 -13.734375 C 6.347656 -14.265625 7.410156 -14.429688 8.640625 -14.234375 C 9.859375 -14.023438 10.648438 -13.546875 11.015625 -12.796875 C 11.390625 -12.054688 11.316406 -11.0625 10.796875 -9.8125 L 7.90625 -2.890625 C 7.363281 -1.585938 6.628906 -0.632812 5.703125 -0.03125 C 4.785156 0.570312 3.71875 0.769531 2.5 0.5625 Z M 3.578125 -2.109375 C 3.859375 -2.066406 4.09375 -2.148438 4.28125 -2.359375 C 4.46875 -2.566406 4.644531 -2.867188 4.8125 -3.265625 L 7.765625 -10.390625 C 7.898438 -10.703125 7.960938 -10.960938 7.953125 -11.171875 C 7.953125 -11.390625 7.816406 -11.519531 7.546875 -11.5625 C 7.046875 -11.644531 6.644531 -11.316406 6.34375 -10.578125 L 3.40625 -3.5 C 3.226562 -3.082031 3.144531 -2.757812 3.15625 -2.53125 C 3.164062 -2.300781 3.304688 -2.160156 3.578125 -2.109375 Z M 3.578125 -2.109375 "/></g></g></g><g fill="#000000" fill-opacity="1"><g transform="translate(752.888887, 201.824507)"><g><path d="M 0.75 0.125 L 2.734375 -4.671875 L 4.375 -14.796875 L 7.375 -14.296875 L 6.171875 -9.25 L 9.0625 -14.015625 L 12.046875 -13.515625 L 5.59375 -4.1875 L 3.609375 0.609375 Z M 0.75 0.125 "/></g></g></g><g clip-path="url(#6a4e416d25)"><g clip-path="url(#cc4be44db7)"><g clip-path="url(#4976fd11a9)"><g clip-path="url(#1ccd1aa8c3)"><path fill="#000000" d="M 770.058594 197.496094 L 771.863281 197.878906 L 773.492188 198.222656 L 780.625 171.855469 L 777.492188 171.195312 L 775.6875 170.8125 L 772.554688 170.152344 L 768.429688 197.152344 Z M 770.058594 197.496094 " fill-opacity="1" fill-rule="nonzero"/></g></g></g></g><g clip-path="url(#3d9ed9537c)"><g clip-path="url(#8323b5b6a3)"><g clip-path="url(#ba06aa97dc)"><g clip-path="url(#e1f6dbd3ff)"><path fill="#000000" d="M 773.761719 203.03125 C 773.660156 203.519531 773.464844 203.96875 773.179688 204.382812 C 772.890625 204.792969 772.535156 205.132812 772.109375 205.40625 C 771.683594 205.675781 771.222656 205.859375 770.722656 205.949219 C 770.222656 206.039062 769.722656 206.03125 769.222656 205.925781 C 768.726562 205.820312 768.265625 205.625 767.84375 205.339844 C 767.421875 205.058594 767.074219 204.703125 766.792969 204.285156 C 766.511719 203.863281 766.324219 203.40625 766.230469 202.914062 C 766.132812 202.421875 766.136719 201.933594 766.242188 201.445312 C 766.34375 200.953125 766.539062 200.503906 766.824219 200.09375 C 767.113281 199.679688 767.46875 199.339844 767.894531 199.066406 C 768.320312 198.796875 768.78125 198.613281 769.28125 198.523438 C 769.78125 198.433594 770.28125 198.441406 770.78125 198.546875 C 771.277344 198.652344 771.738281 198.847656 772.160156 199.132812 C 772.582031 199.417969 772.929688 199.769531 773.210938 200.1875 C 773.492188 200.609375 773.679688 201.066406 773.773438 201.558594 C 773.871094 202.050781 773.867188 202.539062 773.761719 203.03125 Z M 773.761719 203.03125 " fill-opacity="1" fill-rule="nonzero"/></g></g></g></g><g fill="#ffffff" fill-opacity="1"><g transform="translate(182.023151, 353.450642)"><g><path d="M 3.59375 0 L 1.28125 0 L 1.28125 -23.0625 L 4.546875 -23.0625 L 9.875 -6.390625 L 9.875 -23.0625 L 12.15625 -23.0625 L 12.15625 0 L 9.484375 0 L 3.59375 -18.640625 Z M 3.59375 0 "/></g></g></g><g fill="#ffffff" fill-opacity="1"><g transform="translate(195.495467, 353.450642)"><g><path d="M 3.75 -5.4375 C 3.75 -4.382812 3.960938 -3.566406 4.390625 -2.984375 C 4.828125 -2.398438 5.515625 -2.109375 6.453125 -2.109375 C 7.378906 -2.109375 8.054688 -2.398438 8.484375 -2.984375 C 8.910156 -3.566406 9.125 -4.382812 9.125 -5.4375 L 9.125 -23.0625 L 11.53125 -23.0625 L 11.53125 -5.5625 C 11.53125 -3.8125 11.113281 -2.398438 10.28125 -1.328125 C 9.445312 -0.265625 8.140625 0.265625 6.359375 0.265625 C 4.597656 0.265625 3.300781 -0.265625 2.46875 -1.328125 C 1.632812 -2.398438 1.21875 -3.8125 1.21875 -5.5625 L 1.21875 -23.0625 L 3.75 -23.0625 Z M 3.75 -5.4375 "/></g></g></g><g fill="#ffffff" fill-opacity="1"><g transform="translate(208.243109, 353.450642)"><g><path d="M 9.515625 -12.84375 L 9.515625 -10.546875 L 3.890625 -10.546875 L 3.890625 -2.34375 L 10.796875 -2.34375 L 10.796875 0 L 1.3125 0 L 1.3125 -23.0625 L 10.796875 -23.0625 L 10.796875 -20.71875 L 3.890625 -20.71875 L 3.890625 -12.84375 Z M 9.515625 -12.84375 "/></g></g></g><g fill="#ffffff" fill-opacity="1"><g transform="translate(220.101382, 353.450642)"><g><path d="M 3.265625 -23.0625 L 7.015625 -3 L 10.734375 -23.0625 L 13.109375 -23.0625 L 8.796875 0 L 5 0 L 0.65625 -23.0625 Z M 3.265625 -23.0625 "/></g></g></g><g fill="#ffffff" fill-opacity="1"><g transform="translate(233.870154, 353.450642)"><g><path d="M 3.921875 -4.640625 L 3.03125 0 L 0.65625 0 L 5.078125 -23.0625 L 8.796875 -23.0625 L 13.203125 0 L 10.640625 0 L 9.75 -4.640625 Z M 4.25 -6.84375 L 9.390625 -6.84375 L 6.78125 -20.15625 Z M 4.25 -6.84375 "/></g></g></g><g fill="#ffffff" fill-opacity="1"><g transform="translate(247.770683, 353.450642)"><g/></g></g><g fill="#ffffff" fill-opacity="1"><g transform="translate(252.87633, 353.450642)"><g><path d="M 6.15625 -23.28125 C 7.914062 -23.28125 9.210938 -22.757812 10.046875 -21.71875 C 10.878906 -20.675781 11.296875 -19.273438 11.296875 -17.515625 L 11.296875 -16.890625 L 8.859375 -16.890625 L 8.859375 -17.65625 C 8.859375 -18.707031 8.648438 -19.519531 8.234375 -20.09375 C 7.816406 -20.664062 7.144531 -20.953125 6.21875 -20.953125 C 5.300781 -20.953125 4.632812 -20.664062 4.21875 -20.09375 C 3.800781 -19.519531 3.59375 -18.71875 3.59375 -17.6875 C 3.59375 -16.832031 3.785156 -16.085938 4.171875 -15.453125 C 4.554688 -14.816406 5.03125 -14.226562 5.59375 -13.6875 C 6.164062 -13.144531 6.785156 -12.613281 7.453125 -12.09375 C 8.128906 -11.582031 8.75 -11.019531 9.3125 -10.40625 C 9.882812 -9.789062 10.363281 -9.09375 10.75 -8.3125 C 11.132812 -7.53125 11.328125 -6.601562 11.328125 -5.53125 C 11.328125 -3.78125 10.90625 -2.378906 10.0625 -1.328125 C 9.21875 -0.285156 7.90625 0.234375 6.125 0.234375 C 4.34375 0.234375 3.035156 -0.285156 2.203125 -1.328125 C 1.367188 -2.378906 0.953125 -3.78125 0.953125 -5.53125 L 0.953125 -6.84375 L 3.359375 -6.84375 L 3.359375 -5.40625 C 3.359375 -4.351562 3.578125 -3.539062 4.015625 -2.96875 C 4.453125 -2.394531 5.132812 -2.109375 6.0625 -2.109375 C 6.976562 -2.109375 7.65625 -2.394531 8.09375 -2.96875 C 8.539062 -3.539062 8.765625 -4.351562 8.765625 -5.40625 C 8.765625 -6.257812 8.570312 -7 8.1875 -7.625 C 7.800781 -8.25 7.320312 -8.828125 6.75 -9.359375 C 6.175781 -9.898438 5.5625 -10.425781 4.90625 -10.9375 C 4.25 -11.457031 3.632812 -12.023438 3.0625 -12.640625 C 2.488281 -13.253906 2.007812 -13.953125 1.625 -14.734375 C 1.238281 -15.515625 1.046875 -16.441406 1.046875 -17.515625 C 1.046875 -19.296875 1.460938 -20.703125 2.296875 -21.734375 C 3.140625 -22.765625 4.425781 -23.28125 6.15625 -23.28125 Z M 6.15625 -23.28125 "/></g></g></g><g fill="#ffffff" fill-opacity="1"><g transform="translate(265.129882, 353.450642)"><g><path d="M 3.75 -5.4375 C 3.75 -4.382812 3.960938 -3.566406 4.390625 -2.984375 C 4.828125 -2.398438 5.515625 -2.109375 6.453125 -2.109375 C 7.378906 -2.109375 8.054688 -2.398438 8.484375 -2.984375 C 8.910156 -3.566406 9.125 -4.382812 9.125 -5.4375 L 9.125 -23.0625 L 11.53125 -23.0625 L 11.53125 -5.5625 C 11.53125 -3.8125 11.113281 -2.398438 10.28125 -1.328125 C 9.445312 -0.265625 8.140625 0.265625 6.359375 0.265625 C 4.597656 0.265625 3.300781 -0.265625 2.46875 -1.328125 C 1.632812 -2.398438 1.21875 -3.8125 1.21875 -5.5625 L 1.21875 -23.0625 L 3.75 -23.0625 Z M 3.75 -5.4375 "/></g></g></g><g fill="#ffffff" fill-opacity="1"><g transform="translate(277.877524, 353.450642)"><g><path d="M 6.359375 -23.0625 C 8.179688 -23.0625 9.5 -22.5625 10.3125 -21.5625 C 11.125 -20.5625 11.53125 -19.179688 11.53125 -17.421875 L 11.53125 -14.65625 C 11.53125 -12.8125 11.09375 -11.421875 10.21875 -10.484375 C 9.351562 -9.554688 8 -9.09375 6.15625 -9.09375 L 3.890625 -9.09375 L 3.890625 0 L 1.3125 0 L 1.3125 -23.0625 Z M 6.15625 -11.390625 C 7.125 -11.390625 7.835938 -11.625 8.296875 -12.09375 C 8.753906 -12.570312 8.984375 -13.375 8.984375 -14.5 L 8.984375 -17.5625 C 8.984375 -18.613281 8.78125 -19.398438 8.375 -19.921875 C 7.96875 -20.453125 7.296875 -20.71875 6.359375 -20.71875 L 3.890625 -20.71875 L 3.890625 -11.390625 Z M 6.15625 -11.390625 "/></g></g></g><g fill="#ffffff" fill-opacity="1"><g transform="translate(290.196955, 353.450642)"><g><path d="M 9.515625 -12.84375 L 9.515625 -10.546875 L 3.890625 -10.546875 L 3.890625 -2.34375 L 10.796875 -2.34375 L 10.796875 0 L 1.3125 0 L 1.3125 -23.0625 L 10.796875 -23.0625 L 10.796875 -20.71875 L 3.890625 -20.71875 L 3.890625 -12.84375 Z M 9.515625 -12.84375 "/></g></g></g><g fill="#ffffff" fill-opacity="1"><g transform="translate(302.055226, 353.450642)"><g><path d="M 6.453125 -23.0625 C 8.273438 -23.0625 9.585938 -22.609375 10.390625 -21.703125 C 11.191406 -20.804688 11.59375 -19.5 11.59375 -17.78125 L 11.59375 -15.90625 C 11.59375 -14.632812 11.359375 -13.601562 10.890625 -12.8125 C 10.429688 -12.019531 9.710938 -11.472656 8.734375 -11.171875 C 9.785156 -10.859375 10.53125 -10.289062 10.96875 -9.46875 C 11.40625 -8.644531 11.625 -7.609375 11.625 -6.359375 L 11.625 -2.765625 C 11.625 -2.265625 11.644531 -1.773438 11.6875 -1.296875 C 11.738281 -0.828125 11.875 -0.394531 12.09375 0 L 9.484375 0 C 9.328125 -0.332031 9.21875 -0.6875 9.15625 -1.0625 C 9.09375 -1.445312 9.0625 -2.023438 9.0625 -2.796875 L 9.0625 -6.421875 C 9.0625 -7.710938 8.769531 -8.601562 8.1875 -9.09375 C 7.601562 -9.59375 6.773438 -9.84375 5.703125 -9.84375 L 3.890625 -9.84375 L 3.890625 0 L 1.3125 0 L 1.3125 -23.0625 Z M 5.796875 -12.1875 C 6.828125 -12.1875 7.628906 -12.398438 8.203125 -12.828125 C 8.773438 -13.253906 9.0625 -14.09375 9.0625 -15.34375 L 9.0625 -17.5625 C 9.0625 -18.613281 8.859375 -19.398438 8.453125 -19.921875 C 8.046875 -20.453125 7.359375 -20.71875 6.390625 -20.71875 L 3.890625 -20.71875 L 3.890625 -12.1875 Z M 5.796875 -12.1875 "/></g></g></g><g fill="#ffffff" fill-opacity="1"><g transform="translate(315.033444, 353.450642)"><g/></g></g><g fill="#ffffff" fill-opacity="1"><g transform="translate(320.13909, 353.450642)"><g><path d="M 1.125 -17.484375 C 1.125 -19.265625 1.554688 -20.675781 2.421875 -21.71875 C 3.285156 -22.757812 4.609375 -23.28125 6.390625 -23.28125 C 8.171875 -23.28125 9.5 -22.757812 10.375 -21.71875 C 11.25 -20.675781 11.6875 -19.265625 11.6875 -17.484375 L 11.6875 -5.5625 C 11.6875 -3.8125 11.25 -2.40625 10.375 -1.34375 C 9.5 -0.289062 8.171875 0.234375 6.390625 0.234375 C 4.609375 0.234375 3.285156 -0.289062 2.421875 -1.34375 C 1.554688 -2.40625 1.125 -3.8125 1.125 -5.5625 Z M 3.65625 -5.4375 C 3.65625 -4.382812 3.878906 -3.566406 4.328125 -2.984375 C 4.773438 -2.398438 5.460938 -2.109375 6.390625 -2.109375 C 7.335938 -2.109375 8.03125 -2.398438 8.46875 -2.984375 C 8.90625 -3.566406 9.125 -4.382812 9.125 -5.4375 L 9.125 -17.625 C 9.125 -18.675781 8.90625 -19.492188 8.46875 -20.078125 C 8.03125 -20.660156 7.335938 -20.953125 6.390625 -20.953125 C 5.460938 -20.953125 4.773438 -20.660156 4.328125 -20.078125 C 3.878906 -19.492188 3.65625 -18.675781 3.65625 -17.625 Z M 3.65625 -5.4375 "/></g></g></g><g fill="#ffffff" fill-opacity="1"><g transform="translate(332.95262, 353.450642)"><g><path d="M 9.1875 -12.3125 L 9.1875 -9.984375 L 3.890625 -9.984375 L 3.890625 0 L 1.3125 0 L 1.3125 -23.0625 L 10.46875 -23.0625 L 10.46875 -20.71875 L 3.890625 -20.71875 L 3.890625 -12.3125 Z M 9.1875 -12.3125 "/></g></g></g><g fill="#ffffff" fill-opacity="1"><g transform="translate(344.152095, 353.450642)"><g><path d="M 9.515625 -12.84375 L 9.515625 -10.546875 L 3.890625 -10.546875 L 3.890625 -2.34375 L 10.796875 -2.34375 L 10.796875 0 L 1.3125 0 L 1.3125 -23.0625 L 10.796875 -23.0625 L 10.796875 -20.71875 L 3.890625 -20.71875 L 3.890625 -12.84375 Z M 9.515625 -12.84375 "/></g></g></g><g fill="#ffffff" fill-opacity="1"><g transform="translate(356.010374, 353.450642)"><g><path d="M 6.453125 -23.0625 C 8.273438 -23.0625 9.585938 -22.609375 10.390625 -21.703125 C 11.191406 -20.804688 11.59375 -19.5 11.59375 -17.78125 L 11.59375 -15.90625 C 11.59375 -14.632812 11.359375 -13.601562 10.890625 -12.8125 C 10.429688 -12.019531 9.710938 -11.472656 8.734375 -11.171875 C 9.785156 -10.859375 10.53125 -10.289062 10.96875 -9.46875 C 11.40625 -8.644531 11.625 -7.609375 11.625 -6.359375 L 11.625 -2.765625 C 11.625 -2.265625 11.644531 -1.773438 11.6875 -1.296875 C 11.738281 -0.828125 11.875 -0.394531 12.09375 0 L 9.484375 0 C 9.328125 -0.332031 9.21875 -0.6875 9.15625 -1.0625 C 9.09375 -1.445312 9.0625 -2.023438 9.0625 -2.796875 L 9.0625 -6.421875 C 9.0625 -7.710938 8.769531 -8.601562 8.1875 -9.09375 C 7.601562 -9.59375 6.773438 -9.84375 5.703125 -9.84375 L 3.890625 -9.84375 L 3.890625 0 L 1.3125 0 L 1.3125 -23.0625 Z M 5.796875 -12.1875 C 6.828125 -12.1875 7.628906 -12.398438 8.203125 -12.828125 C 8.773438 -13.253906 9.0625 -14.09375 9.0625 -15.34375 L 9.0625 -17.5625 C 9.0625 -18.613281 8.859375 -19.398438 8.453125 -19.921875 C 8.046875 -20.453125 7.359375 -20.71875 6.390625 -20.71875 L 3.890625 -20.71875 L 3.890625 -12.1875 Z M 5.796875 -12.1875 "/></g></g></g><g fill="#ffffff" fill-opacity="1"><g transform="translate(368.988592, 353.450642)"><g><path d="M 4.671875 0 L 4.671875 -20.71875 L 0.421875 -20.71875 L 0.421875 -23.0625 L 11.5 -23.0625 L 11.5 -20.71875 L 7.25 -20.71875 L 7.25 0 Z M 4.671875 0 "/></g></g></g><g fill="#ffffff" fill-opacity="1"><g transform="translate(380.945689, 353.450642)"><g><path d="M 3.921875 -4.640625 L 3.03125 0 L 0.65625 0 L 5.078125 -23.0625 L 8.796875 -23.0625 L 13.203125 0 L 10.640625 0 L 9.75 -4.640625 Z M 4.25 -6.84375 L 9.390625 -6.84375 L 6.78125 -20.15625 Z M 4.25 -6.84375 "/></g></g></g><g fill="#000000" fill-opacity="1"><g transform="translate(558.586925, 64.194943)"><g><path d="M -1.671875 0 L 3.859375 -24.015625 L 8.640625 -24.015625 L 6.65625 -15.4375 L 8.921875 -15.4375 L 10.90625 -24.015625 L 15.6875 -24.015625 L 10.15625 0 L 5.375 0 L 7.890625 -10.90625 L 5.625 -10.90625 L 3.109375 0 Z M -1.671875 0 "/></g></g></g><g fill="#000000" fill-opacity="1"><g transform="translate(572.533997, 64.194943)"><g><path d="M -2.3125 0 L 5.53125 -24.015625 L 13.671875 -24.015625 L 10.4375 0 L 5.875 0 L 6.4375 -3.890625 L 3.53125 -3.890625 L 2.34375 0 Z M 4.78125 -7.71875 L 6.96875 -7.71875 L 8.703125 -19.9375 L 8.46875 -19.9375 Z M 4.78125 -7.71875 "/></g></g></g><g fill="#000000" fill-opacity="1"><g transform="translate(586.08977, 64.194943)"><g><path d="M 3.96875 0.21875 C 1.789062 0.21875 0.34375 -0.316406 -0.375 -1.390625 C -1.09375 -2.472656 -1.171875 -4.21875 -0.609375 -6.625 L -0.078125 -8.96875 L 4.640625 -8.96875 L 3.9375 -5.984375 C 3.664062 -4.785156 3.910156 -4.1875 4.671875 -4.1875 C 5.097656 -4.1875 5.425781 -4.3125 5.65625 -4.5625 C 5.894531 -4.820312 6.078125 -5.25 6.203125 -5.84375 C 6.390625 -6.625 6.445312 -7.269531 6.375 -7.78125 C 6.300781 -8.289062 6.160156 -8.71875 5.953125 -9.0625 C 5.753906 -9.414062 5.363281 -9.953125 4.78125 -10.671875 L 3.1875 -12.75 C 1.957031 -14.3125 1.554688 -16.046875 1.984375 -17.953125 C 2.453125 -19.992188 3.28125 -21.550781 4.46875 -22.625 C 5.664062 -23.695312 7.164062 -24.234375 8.96875 -24.234375 C 11.132812 -24.234375 12.5625 -23.660156 13.25 -22.515625 C 13.9375 -21.367188 13.992188 -19.578125 13.421875 -17.140625 L 8.53125 -17.140625 L 8.890625 -18.78125 C 8.960938 -19.101562 8.929688 -19.351562 8.796875 -19.53125 C 8.671875 -19.71875 8.453125 -19.8125 8.140625 -19.8125 C 7.765625 -19.8125 7.457031 -19.707031 7.21875 -19.5 C 6.976562 -19.300781 6.816406 -19.023438 6.734375 -18.671875 C 6.546875 -17.890625 6.804688 -17.078125 7.515625 -16.234375 L 9.703125 -13.5625 C 10.203125 -12.925781 10.601562 -12.320312 10.90625 -11.75 C 11.207031 -11.1875 11.398438 -10.515625 11.484375 -9.734375 C 11.566406 -8.960938 11.484375 -8.046875 11.234375 -6.984375 C 10.679688 -4.617188 9.832031 -2.828125 8.6875 -1.609375 C 7.539062 -0.390625 5.96875 0.21875 3.96875 0.21875 Z M 3.96875 0.21875 "/></g></g></g><g fill="#000000" fill-opacity="1"><g transform="translate(598.974741, 64.194943)"><g><path d="M 0.359375 0 L 4.828125 -19.40625 L 1.984375 -19.40625 L 3.046875 -24.015625 L 13.5625 -24.015625 L 12.5 -19.40625 L 9.640625 -19.40625 L 5.171875 0 Z M 0.359375 0 "/></g></g></g><g fill="#000000" fill-opacity="1"><g transform="translate(610.042963, 64.194943)"><g><path d="M -2.3125 0 L 5.53125 -24.015625 L 13.671875 -24.015625 L 10.4375 0 L 5.875 0 L 6.4375 -3.890625 L 3.53125 -3.890625 L 2.34375 0 Z M 4.78125 -7.71875 L 6.96875 -7.71875 L 8.703125 -19.9375 L 8.46875 -19.9375 Z M 4.78125 -7.71875 "/></g></g></g><g fill="#000000" fill-opacity="1"><g transform="translate(542.388874, 119.687199)"><g><path d="M 6.78125 0.5 C 3.019531 0.5 0.507812 -0.488281 -0.75 -2.46875 C -2.019531 -4.445312 -2.1875 -7.46875 -1.25 -11.53125 L -0.203125 -16.03125 L 8.59375 -16.03125 L 7.53125 -11.53125 C 7.238281 -10.238281 7.175781 -9.234375 7.34375 -8.515625 C 7.507812 -7.796875 8.085938 -7.4375 9.078125 -7.4375 C 9.785156 -7.4375 10.351562 -7.6875 10.78125 -8.1875 C 11.21875 -8.6875 11.550781 -9.273438 11.78125 -9.953125 C 12.007812 -10.640625 12.273438 -11.632812 12.578125 -12.9375 L 12.78125 -13.984375 C 13.644531 -17.679688 12.863281 -19.53125 10.4375 -19.53125 C 10 -19.53125 9.710938 -19.507812 9.578125 -19.46875 L 11.328125 -27.171875 C 12.859375 -27.171875 14.085938 -27.507812 15.015625 -28.1875 C 15.953125 -28.875 16.585938 -29.960938 16.921875 -31.453125 C 17.492188 -33.890625 17.078125 -35.109375 15.671875 -35.109375 C 14.804688 -35.109375 14.195312 -34.890625 13.84375 -34.453125 C 13.5 -34.023438 13.207031 -33.476562 12.96875 -32.8125 C 12.738281 -32.144531 12.578125 -31.660156 12.484375 -31.359375 L 12.1875 -30.0625 L 3.296875 -30.0625 L 3.59375 -31.5625 C 4.519531 -35.488281 6.113281 -38.375 8.375 -40.21875 C 10.644531 -42.070312 13.675781 -43 17.46875 -43 C 24.757812 -43 27.523438 -39.1875 25.765625 -31.5625 C 25.234375 -29.332031 24.515625 -27.554688 23.609375 -26.234375 C 22.710938 -24.921875 21.46875 -24 19.875 -23.46875 C 20.9375 -22.875 21.660156 -22.132812 22.046875 -21.25 C 22.429688 -20.363281 22.5625 -19.285156 22.4375 -18.015625 C 22.320312 -16.753906 22.03125 -15.0625 21.5625 -12.9375 C 20.53125 -8.507812 18.820312 -5.160156 16.4375 -2.890625 C 14.0625 -0.628906 10.84375 0.5 6.78125 0.5 Z M 6.78125 0.5 "/></g></g></g><g fill="#000000" fill-opacity="1"><g transform="translate(567.059542, 119.687199)"><g><path d="M 7.34375 0.59375 C 3.90625 0.59375 1.375 -0.242188 -0.25 -1.921875 C -1.882812 -3.597656 -2.316406 -6.085938 -1.546875 -9.390625 L -0.109375 -15.734375 L 8.828125 -15.734375 L 7.984375 -12.078125 C 7.648438 -10.617188 7.53125 -9.472656 7.625 -8.640625 C 7.726562 -7.804688 8.25 -7.390625 9.1875 -7.390625 C 10.050781 -7.390625 10.707031 -7.671875 11.15625 -8.234375 C 11.601562 -8.804688 11.960938 -9.640625 12.234375 -10.734375 L 14.171875 -19.171875 C 14.472656 -20.535156 14.582031 -21.625 14.5 -22.4375 C 14.414062 -23.257812 13.925781 -23.671875 13.03125 -23.671875 C 11.394531 -23.671875 10.296875 -22.488281 9.734375 -20.125 L 1.890625 -20.125 L 7.1875 -42.953125 L 27.609375 -42.953125 L 25.71875 -34.90625 L 13.4375 -34.90625 L 12.078125 -28.859375 C 12.609375 -29.429688 13.289062 -29.898438 14.125 -30.265625 C 14.957031 -30.628906 15.84375 -30.8125 16.78125 -30.8125 C 20.375 -30.8125 22.523438 -29.546875 23.234375 -27.015625 C 23.953125 -24.484375 23.78125 -20.90625 22.71875 -16.28125 C 21.851562 -12.445312 20.867188 -9.335938 19.765625 -6.953125 C 18.671875 -4.578125 17.132812 -2.722656 15.15625 -1.390625 C 13.175781 -0.0664062 10.570312 0.59375 7.34375 0.59375 Z M 7.34375 0.59375 "/></g></g></g><g fill="#000000" fill-opacity="1"><g transform="translate(591.730211, 119.687199)"><g><path d="M 11.140625 0 L 34.3125 -43.09375 L 42.203125 -43.09375 L 19.03125 0 Z M 8.59375 -12.890625 C 5.59375 -12.890625 3.46875 -13.800781 2.21875 -15.625 C 0.96875 -17.457031 0.710938 -19.957031 1.453125 -23.125 L 3.5 -31.953125 C 4.257812 -35.253906 5.628906 -37.773438 7.609375 -39.515625 C 9.597656 -41.265625 12.171875 -42.140625 15.328125 -42.140625 C 18.523438 -42.140625 20.722656 -41.265625 21.921875 -39.515625 C 23.117188 -37.773438 23.335938 -35.253906 22.578125 -31.953125 L 20.53125 -23.125 C 19.789062 -19.957031 18.375 -17.457031 16.28125 -15.625 C 14.1875 -13.800781 11.625 -12.890625 8.59375 -12.890625 Z M 10.09375 -19.28125 C 10.71875 -19.28125 11.304688 -19.507812 11.859375 -19.96875 C 12.410156 -20.4375 12.769531 -21.003906 12.9375 -21.671875 L 15.625 -33.515625 C 15.894531 -34.578125 15.929688 -35.359375 15.734375 -35.859375 C 15.535156 -36.359375 14.984375 -36.609375 14.078125 -36.609375 C 13.179688 -36.609375 12.523438 -36.359375 12.109375 -35.859375 C 11.691406 -35.359375 11.351562 -34.578125 11.09375 -33.515625 L 8.390625 -21.671875 C 8.222656 -21.003906 8.304688 -20.4375 8.640625 -19.96875 C 8.972656 -19.507812 9.457031 -19.28125 10.09375 -19.28125 Z M 37.15625 0.453125 C 34.15625 0.453125 32.03125 -0.46875 30.78125 -2.3125 C 29.53125 -4.164062 29.273438 -6.65625 30.015625 -9.78125 L 32.0625 -18.671875 C 32.820312 -22.003906 34.191406 -24.535156 36.171875 -26.265625 C 38.160156 -27.992188 40.75 -28.859375 43.9375 -28.859375 C 47.101562 -28.859375 49.285156 -27.984375 50.484375 -26.234375 C 51.679688 -24.492188 51.898438 -21.972656 51.140625 -18.671875 L 49.09375 -9.78125 C 48.351562 -6.65625 46.925781 -4.164062 44.8125 -2.3125 C 42.695312 -0.46875 40.144531 0.453125 37.15625 0.453125 Z M 38.65625 -5.9375 C 39.28125 -5.9375 39.859375 -6.171875 40.390625 -6.640625 C 40.929688 -7.109375 41.285156 -7.675781 41.453125 -8.34375 L 44.1875 -20.21875 C 44.425781 -21.289062 44.453125 -22.078125 44.265625 -22.578125 C 44.085938 -23.078125 43.546875 -23.328125 42.640625 -23.328125 C 41.742188 -23.328125 41.078125 -23.066406 40.640625 -22.546875 C 40.210938 -22.023438 39.882812 -21.25 39.65625 -20.21875 L 36.90625 -8.34375 C 36.738281 -7.675781 36.828125 -7.109375 37.171875 -6.640625 C 37.523438 -6.171875 38.019531 -5.9375 38.65625 -5.9375 Z M 38.65625 -5.9375 "/></g></g></g><g fill="#000000" fill-opacity="1"><g transform="translate(644.516514, 119.687199)"><g/></g></g><path stroke-linecap="butt" transform="matrix(0.121109, 0, 0, 0.121109, 154.136427, 177.596122)" fill="none" stroke-linejoin="miter" d="M 350.282006 559.71818 L 350.282006 628.935493 L 193.333523 628.935493 L 193.333523 923.996059 L 117.504119 923.996059 L 117.504119 242.305517 L 388.309597 242.305517 L 388.309597 311.490576 L 193.333523 311.490576 L 193.333523 559.71818 Z M 600.573872 242.305517 C 654.470484 242.305517 693.207666 255.626463 716.849926 282.236101 C 740.621203 308.877993 752.522968 347.486159 752.522968 398.028344 L 752.522968 453.666678 C 752.522968 491.242712 745.685098 521.755096 732.073865 545.236086 C 718.430378 568.523551 696.949143 584.682858 667.63016 593.714008 C 698.852135 602.938683 720.978452 619.710818 733.976857 644.127177 C 746.975262 668.382265 753.458337 698.991412 753.458337 735.922364 L 753.458337 842.199645 C 753.458337 857.101042 754.10342 871.518628 755.36133 885.484656 C 756.61924 899.41843 760.521987 912.255565 767.005062 923.996059 L 690.208034 923.996059 C 685.627951 914.319827 682.273524 903.804989 680.209261 892.387035 C 678.306269 880.969081 677.3709 863.906659 677.3709 841.264276 L 677.3709 734.019372 C 677.3709 695.83051 668.7268 669.414396 651.438598 654.83554 C 634.343922 640.095413 609.927563 632.709223 578.221777 632.709223 L 524.486435 632.709223 L 524.486435 923.996059 L 448.624776 923.996059 L 448.624776 242.305517 Z M 581.060138 563.524164 C 611.508014 563.524164 635.11802 557.266868 651.92241 544.752274 C 668.88807 532.076411 677.3709 507.17624 677.3709 470.084018 L 677.3709 404.930723 C 677.3709 373.708747 671.339382 350.32452 659.3086 334.778041 C 647.406835 319.263816 627.215764 311.490576 598.67088 311.490576 L 524.486435 311.490576 L 524.486435 563.524164 Z M 908.213541 242.305517 L 908.213541 923.996059 L 832.351882 923.996059 L 832.351882 242.305517 Z M 1146.023068 242.305517 C 1199.113328 242.305517 1238.205305 257.432693 1263.234491 287.719299 C 1288.295932 317.844635 1300.810526 359.194399 1300.810526 411.833101 L 1300.810526 755.403844 C 1300.810526 808.042546 1288.295932 849.327803 1263.234491 879.291868 C 1238.205305 909.094662 1199.113328 923.996059 1146.023068 923.996059 L 986.236224 923.996059 L 986.236224 242.305517 Z M 1144.829666 854.811001 C 1172.245657 854.811001 1192.53349 846.553949 1205.693165 830.072101 C 1219.014111 813.428982 1225.690711 789.593197 1225.690711 758.500239 L 1225.690711 407.801338 C 1225.690711 376.708379 1219.014111 352.937103 1205.693165 336.455254 C 1192.53349 319.812135 1171.95537 311.490576 1143.894297 311.490576 L 1062.097883 311.490576 L 1062.097883 854.811001 Z M 1448.727858 786.561311 L 1422.569778 923.996059 L 1352.417096 923.996059 L 1482.949465 242.305517 L 1593.032731 242.305517 L 1723.339321 923.996059 L 1647.509917 923.996059 L 1621.093804 786.561311 Z M 1458.468598 721.408016 L 1610.417694 721.408016 L 1533.588413 327.907916 Z M 1903.704285 679.57444 L 1759.625191 242.305517 L 1838.325211 242.305517 L 1944.602492 577.328922 L 2051.589364 242.305517 L 2123.645038 242.305517 L 1978.598321 679.57444 L 1978.598321 923.996059 L 1903.704285 923.996059 Z M 1903.704285 679.57444 " stroke="#ffffff" stroke-width="30.435438" stroke-opacity="1" stroke-miterlimit="4"/><g fill="#000000" fill-opacity="1"><g transform="translate(556.327843, 159.777582)"><g><path d="M 5.09375 0.28125 C 2.625 0.28125 0.921875 -0.472656 -0.015625 -1.984375 C -0.960938 -3.492188 -1.113281 -5.613281 -0.46875 -8.34375 L 2.890625 -22.953125 C 3.503906 -25.585938 4.609375 -27.578125 6.203125 -28.921875 C 7.796875 -30.265625 9.832031 -30.9375 12.3125 -30.9375 C 14.78125 -30.9375 16.503906 -30.265625 17.484375 -28.921875 C 18.460938 -27.578125 18.640625 -25.585938 18.015625 -22.953125 L 14.65625 -8.34375 C 14.019531 -5.59375 12.882812 -3.46875 11.25 -1.96875 C 9.625 -0.46875 7.570312 0.28125 5.09375 0.28125 Z M 6.390625 -5.359375 C 6.929688 -5.359375 7.351562 -5.59375 7.65625 -6.0625 C 7.96875 -6.539062 8.222656 -7.207031 8.421875 -8.0625 L 11.875 -23.046875 C 12.019531 -23.710938 12.054688 -24.253906 11.984375 -24.671875 C 11.910156 -25.085938 11.601562 -25.296875 11.0625 -25.296875 C 10.039062 -25.296875 9.347656 -24.523438 8.984375 -22.984375 L 5.53125 -8.03125 C 5.3125 -7.144531 5.253906 -6.476562 5.359375 -6.03125 C 5.472656 -5.582031 5.816406 -5.359375 6.390625 -5.359375 Z M 6.390625 -5.359375 "/></g></g></g><g fill="#000000" fill-opacity="1"><g transform="translate(573.668394, 159.777582)"><g><path d="M -2.140625 0 L 4.921875 -30.65625 L 17.203125 -30.65625 L 15.84375 -24.703125 L 9.734375 -24.703125 L 8.59375 -19.8125 L 14.375 -19.8125 L 13.015625 -13.921875 L 7.234375 -13.921875 L 4.03125 0 Z M -2.140625 0 "/></g></g></g><g fill="#000000" fill-opacity="1"><g transform="translate(587.904771, 159.777582)"><g><path d="M -2.140625 0 L 4.921875 -30.65625 L 17.203125 -30.65625 L 15.84375 -24.703125 L 9.734375 -24.703125 L 8.59375 -19.8125 L 14.375 -19.8125 L 13.015625 -13.921875 L 7.234375 -13.921875 L 4.03125 0 Z M -2.140625 0 "/></g></g></g><path stroke-linecap="butt" transform="matrix(0.000000000000000046, 0.749692, -0.75, 0.000000000000000046, 789.455887, 31.813123)" fill="none" stroke-linejoin="miter" d="M -0.00083105 3.498475 L 418.171095 3.498475 " stroke="#ffffff" stroke-width="7" stroke-opacity="1" stroke-miterlimit="4"/></svg>