<svg xmlns="http://www.w3.org/2000/svg" width="1200" height="500" version="1.0" viewBox="0 0 900 375"><defs><clipPath id="h"><path d="m772.586 170 8.07 1.703-7.43 35.227-8.07-1.703Zm0 0"/></clipPath><clipPath id="a"><path d="M489.008 0H900v375H489.008Zm0 0"/></clipPath><clipPath id="c"><path d="M511.848 32.063H670.8V168H511.848Zm0 0"/></clipPath><clipPath id="d"><path d="M534.969 32.063h135.37l-23.12 136.101H511.848l23.12-136.101"/></clipPath><clipPath id="e"><path d="M697 153.16h89.754v62.227H697Zm0 0"/></clipPath><clipPath id="f"><path d="M786.754 168.883v46.242l-89.86-15.723V153.16l89.86 15.723"/></clipPath><clipPath id="g"><path d="M768 170h13v29h-13Zm0 0"/></clipPath><clipPath id="b"><path d="M629.316 382.89h378.547V-7.905H489.008L629.316 382.89"/></clipPath><clipPath id="i"><path d="m772.586 170 8.07 1.703-7.43 35.227-8.07-1.703Zm0 0"/></clipPath><clipPath id="j"><path d="m772.586 170 8.07 1.703-7.43 35.227-8.07-1.703Zm0 0"/></clipPath><clipPath id="k"><path d="M766 198h8v9h-8Zm0 0"/></clipPath><clipPath id="l"><path d="m772.586 170 8.07 1.703-7.43 35.227-8.07-1.703Zm0 0"/></clipPath><clipPath id="m"><path d="m772.586 170 8.07 1.703-7.43 35.227-8.07-1.703Zm0 0"/></clipPath><clipPath id="n"><path d="m772.586 170 8.07 1.703-7.43 35.227-8.07-1.703Zm0 0"/></clipPath></defs><path fill="#fff" d="M-90-37.5H990v450H-90z"/><path d="M-90-37.5H990v450H-90z"/><g clip-path="url(#a)"><g clip-path="url(#b)"><path fill="#23b98c" d="M489.008 382.89V-8.171h518.949v391.063Zm0 0"/></g></g><path fill="none" stroke="#fff" stroke-width="5.25" d="M112.5 34.688h674.258"/><path fill="none" stroke="#fff" stroke-width="7" d="M0 3.5h53.234" transform="matrix(.74692 0 0 .75 117.801 342.773)"/><path fill="none" stroke="#fff" stroke-width="7" d="M.002 3.5h489.052" transform="matrix(.74993 0 0 .75 422.737 342.773)"/><path fill="none" stroke="#fff" stroke-width="7" d="M0 3.501 418.102 3.5" transform="matrix(.0032 .74982 -.75 .0032 117.798 34.68)"/><path fill="#fff" d="M197.614 82.182c6.757 0 11.656 1.575 14.687 4.72 3.031 3.148 4.547 7.902 4.547 14.265v2.953c0 4.242-.672 7.742-2.016 10.5-1.336 2.75-3.453 4.793-6.359 6.125 3.531 1.344 6.023 3.531 7.484 6.562 1.457 3.024 2.188 6.735 2.188 11.141v6.719c0 6.367-1.652 11.219-4.953 14.562-3.305 3.344-8.219 5.016-14.75 5.016h-20.406V82.182Zm-6.61 45.407v25.36h7.438c2.195 0 3.863-.587 5-1.767 1.144-1.175 1.719-3.3 1.719-6.375v-7.187c0-3.852-.653-6.488-1.954-7.906-1.293-1.414-3.433-2.125-6.421-2.125Zm0-33.61v21.813h5.078c2.438 0 4.344-.625 5.72-1.875 1.374-1.258 2.062-3.54 2.062-6.844v-4.61c0-2.988-.532-5.148-1.594-6.484-1.063-1.332-2.734-2-5.016-2ZM225.924 82.182h12.968v70.766h21.36v11.797h-34.328ZM307.894 164.745H294.8l-2.235-14.984h-15.921l-2.25 14.984h-11.907l13.219-82.563h18.984ZM278.3 138.557h12.5l-6.25-41.75ZM351.54 133.964v10.968c0 6.68-1.633 11.81-4.89 15.391-3.262 3.574-8.079 5.36-14.454 5.36-6.367 0-11.183-1.786-14.453-5.36-3.261-3.582-4.89-8.71-4.89-15.39v-42.938c0-6.688 1.629-11.816 4.89-15.39 3.27-3.583 8.086-5.376 14.453-5.376 6.375 0 11.192 1.793 14.454 5.375 3.257 3.575 4.89 8.703 4.89 15.391v8.016h-12.265v-8.844c0-2.988-.61-5.094-1.829-6.313-1.218-1.218-2.851-1.828-4.89-1.828-2.055 0-3.688.61-4.906 1.828-1.22 1.22-1.829 3.325-1.829 6.313v44.594c0 2.98.61 5.062 1.829 6.25 1.218 1.18 2.851 1.765 4.906 1.765 2.039 0 3.672-.586 4.89-1.765 1.22-1.188 1.829-3.27 1.829-6.25v-11.797ZM376.429 131.839l-4.016 7.547v25.359h-12.969V82.182h12.97v35.97l16.984-35.97h12.984l-18.047 36.797 18.047 45.766h-13.328Zm0 0"/><path fill="none" stroke="#fff" stroke-width="14" d="M-.001 7h387.453" transform="matrix(.74912 0 0 .75 143.142 178.891)"/><g clip-path="url(#c)"><g clip-path="url(#d)"><path fill="#fff" d="M511.848 32.063h158.23v135.835h-158.23Zm0 0"/></g></g><path fill="#fff" d="M465.64 228.811v8.313h-1.157v-8.313Zm0-3.875v1.907h-1.157v-1.907ZM477.795 233.983c0 .45-.094.867-.281 1.25-.18.375-.422.703-.735.985-.304.28-.656.5-1.062.656a3.794 3.794 0 0 1-1.313.219h-5.687V225.03h5.812c.414 0 .79.09 1.125.266.344.18.633.414.875.703.239.293.422.625.547 1a3.2 3.2 0 0 1 .203 1.094c0 .617-.156 1.18-.468 1.687-.305.5-.727.875-1.266 1.125.695.211 1.242.59 1.64 1.14.407.555.61 1.2.61 1.938Zm-1.188-.203c0-.289-.054-.578-.156-.86a2.307 2.307 0 0 0-.437-.734 2.19 2.19 0 0 0-.672-.5 1.716 1.716 0 0 0-.813-.203h-4.625v4.578h4.5c.313 0 .598-.062.86-.187.27-.125.504-.29.703-.5.195-.219.351-.461.469-.734a2.28 2.28 0 0 0 .171-.86Zm-6.703-7.719v4.454h4.141c.3 0 .578-.063.828-.188a2.085 2.085 0 0 0 1.078-1.188c.102-.269.156-.554.156-.859 0-.3-.046-.586-.14-.86a2.089 2.089 0 0 0-.406-.702 2.102 2.102 0 0 0-.625-.47 1.671 1.671 0 0 0-.782-.187ZM480.034 237.093V225.03h1.187v11.016h6.969v1.047ZM493.674 225.03h1l5.016 12.063h-1.25l-1.562-3.782h-5.422l-1.547 3.782h-1.281Zm2.922 7.36-2.422-5.97-2.468 5.97ZM500.63 230.968c0-.72.125-1.438.375-2.157a6.109 6.109 0 0 1 1.11-1.921 5.677 5.677 0 0 1 1.796-1.391c.719-.363 1.531-.547 2.438-.547 1.082 0 2.004.246 2.765.734.77.493 1.332 1.125 1.688 1.907l-.922.578a3.705 3.705 0 0 0-.719-1 3.517 3.517 0 0 0-.89-.672 3.866 3.866 0 0 0-.985-.36 4.868 4.868 0 0 0-1-.109c-.73 0-1.371.149-1.922.438a4.45 4.45 0 0 0-1.406 1.156 5.277 5.277 0 0 0-.86 1.61 5.991 5.991 0 0 0-.28 1.812c0 .668.113 1.308.343 1.922.227.605.547 1.148.953 1.625a4.77 4.77 0 0 0 1.422 1.125c.55.273 1.149.406 1.797.406.344 0 .691-.04 1.047-.125a3.961 3.961 0 0 0 1.031-.406 4.09 4.09 0 0 0 .938-.703c.28-.282.52-.618.718-1.016l.985.516c-.2.46-.477.859-.828 1.203a5.097 5.097 0 0 1-1.172.875c-.43.242-.883.422-1.36.547-.48.125-.953.187-1.421.187-.836 0-1.594-.18-2.282-.547a6.005 6.005 0 0 1-1.781-1.422 6.612 6.612 0 0 1-1.172-1.984 6.6 6.6 0 0 1-.406-2.281ZM513.083 237.093v-12.047h1.188v7l6.64-7.016h1.313l-4.922 5.297 5.172 6.766h-1.297l-4.625-6.063-2.281 2.36v3.703ZM528.342 237.093V225.03h7.922v1.047h-6.734v4.438h5.672v.984h-5.672v5.594ZM538.35 237.093V225.03h5.094c.52 0 1 .11 1.438.328.437.22.812.508 1.125.86.32.355.57.761.75 1.218.176.461.266.918.266 1.375 0 .45-.07.875-.204 1.282a3.597 3.597 0 0 1-.546 1.078c-.23.324-.512.594-.844.812a2.991 2.991 0 0 1-1.094.453l2.953 4.657h-1.344l-2.843-4.453h-3.563v4.453Zm1.188-5.516h3.938c.351 0 .675-.07.968-.219.29-.156.536-.363.735-.625a3.03 3.03 0 0 0 .484-.875c.113-.332.172-.68.172-1.047 0-.363-.07-.71-.203-1.046a2.723 2.723 0 0 0-.531-.875 2.484 2.484 0 0 0-.782-.594 2.167 2.167 0 0 0-.937-.219h-3.844ZM549.447 237.093V225.03h1.187v12.063ZM553.66 237.093V225.03h4.094c.97 0 1.813.156 2.532.469a4.981 4.981 0 0 1 1.796 1.297c.477.543.836 1.18 1.079 1.906.25.73.375 1.512.375 2.344 0 .918-.137 1.746-.407 2.484a5.438 5.438 0 0 1-1.172 1.906 5.12 5.12 0 0 1-1.812 1.235c-.71.281-1.508.422-2.39.422Zm8.688-6.047c0-.727-.105-1.395-.312-2a4.342 4.342 0 0 0-.891-1.563 3.885 3.885 0 0 0-1.438-1.03c-.562-.25-1.214-.376-1.953-.376h-2.906v9.969h2.906c.75 0 1.41-.125 1.985-.375a4.098 4.098 0 0 0 1.437-1.063c.383-.445.676-.972.875-1.578a6.499 6.499 0 0 0 .297-1.984ZM569.544 225.03h1l5.016 12.063h-1.25l-1.562-3.782h-5.422l-1.547 3.782h-1.281Zm2.922 7.36-2.422-5.97-2.468 5.97ZM577.36 225.03l3.952 6.485 3.97-6.485h1.296l-4.672 7.578v4.485h-1.187v-4.516l-4.672-7.547ZM600.801 236.046v1.047h-8.11V225.03h7.954v1.047h-6.766v4.36h5.906v1h-5.906v4.609ZM604.227 227.233v9.86h-1.187V225.03h.922l7.984 10.047v-10.031h1.188v12.047h-1.032ZM621.678 227.233v9.86h-1.187V225.03h.922l7.984 10.047v-10.031h1.187v12.047h-1.03ZM638.5 236.108c.757 0 1.39-.144 1.89-.437a3.49 3.49 0 0 0 1.219-1.14c.3-.47.507-1 .625-1.595.113-.601.172-1.21.172-1.828v-6.078h1.203v6.078c0 .813-.094 1.59-.282 2.328a5.346 5.346 0 0 1-.875 1.922 4.278 4.278 0 0 1-1.578 1.328c-.648.325-1.433.485-2.36.485-.948 0-1.75-.172-2.405-.516a4.371 4.371 0 0 1-1.563-1.36 5.726 5.726 0 0 1-.86-1.937 9.957 9.957 0 0 1-.25-2.25v-6.078h1.173v6.078c0 .637.062 1.258.187 1.86.125.593.336 1.125.64 1.593.302.461.696.836 1.188 1.125.5.282 1.125.422 1.875.422ZM654.547 236.046v1.047h-8.11V225.03h7.954v1.047h-6.766v4.36h5.907v1h-5.907v4.609ZM663.833 227.28c-.336-.383-.79-.691-1.36-.922-.562-.238-1.21-.36-1.937-.36-1.063 0-1.84.204-2.328.61-.492.399-.735.938-.735 1.625 0 .367.063.668.188.907.133.23.336.43.61.593a4.64 4.64 0 0 0 1.046.438c.426.125.93.25 1.516.375.644.137 1.223.293 1.734.469.52.168.957.382 1.313.64.363.25.64.559.828.922.195.356.297.809.297 1.36 0 .554-.11 1.03-.328 1.437-.211.406-.508.75-.891 1.031a4.059 4.059 0 0 1-1.375.61 7.657 7.657 0 0 1-1.75.187c-1.875 0-3.492-.586-4.844-1.766l.594-.968c.219.23.473.449.766.656a6.16 6.16 0 0 0 2.188.89c.413.086.858.126 1.327.126.969 0 1.719-.172 2.25-.516.54-.344.813-.867.813-1.578 0-.375-.078-.688-.235-.938a1.893 1.893 0 0 0-.687-.672 4.81 4.81 0 0 0-1.14-.484 25.77 25.77 0 0 0-1.579-.406 18.727 18.727 0 0 1-1.672-.453 4.378 4.378 0 0 1-1.203-.594 2.334 2.334 0 0 1-.734-.86c-.168-.331-.25-.742-.25-1.234 0-.55.101-1.047.312-1.484.207-.438.504-.801.89-1.094.384-.289.837-.508 1.36-.656a6.01 6.01 0 0 1 1.735-.235c.812 0 1.53.125 2.156.375a5.848 5.848 0 0 1 1.703 1.016ZM675.663 226.077h-4.297v11.016h-1.188v-11.016h-4.312v-1.047h9.797ZM677.465 237.093V225.03h5.094c.52 0 1 .11 1.438.328.437.22.812.508 1.125.86.32.355.57.761.75 1.218.175.461.265.918.265 1.375 0 .45-.07.875-.203 1.282a3.597 3.597 0 0 1-.547 1.078c-.23.324-.511.594-.843.812a2.991 2.991 0 0 1-1.094.453l2.953 4.657h-1.344l-2.844-4.453h-3.562v4.453Zm1.188-5.516h3.937c.352 0 .676-.07.97-.219.288-.156.534-.363.734-.625a3.03 3.03 0 0 0 .484-.875c.113-.332.172-.68.172-1.047 0-.363-.07-.71-.203-1.046a2.723 2.723 0 0 0-.532-.875 2.484 2.484 0 0 0-.78-.594 2.167 2.167 0 0 0-.938-.219h-3.844ZM692.296 225.03h1l5.015 12.063h-1.25l-1.562-3.782h-5.422l-1.547 3.782h-1.281Zm2.922 7.36-2.422-5.97-2.47 5.97ZM473.014 249.327h-4.297v11.016h-1.187v-11.016h-4.313v-1.047h9.797ZM474.817 260.343V248.28h1.188v12.063ZM487.14 259.296v1.047h-8.109V248.28h7.953v1.047h-6.765v4.36h5.906v1h-5.906v4.609ZM490.567 250.483v9.86h-1.188V248.28h.922l7.985 10.047v-10.031h1.187v12.047h-1.031ZM502.497 260.343V248.28h4.094c.969 0 1.812.156 2.531.469a4.981 4.981 0 0 1 1.797 1.297c.477.543.836 1.18 1.078 1.906.25.73.375 1.512.375 2.344 0 .918-.136 1.746-.406 2.484a5.438 5.438 0 0 1-1.172 1.906 5.12 5.12 0 0 1-1.812 1.235c-.711.281-1.508.422-2.391.422Zm8.688-6.047c0-.727-.106-1.395-.313-2a4.342 4.342 0 0 0-.89-1.563 3.885 3.885 0 0 0-1.438-1.03c-.562-.25-1.215-.376-1.953-.376h-2.906v9.969h2.906c.75 0 1.41-.125 1.984-.375a4.098 4.098 0 0 0 1.438-1.063c.383-.445.676-.972.875-1.578a6.499 6.499 0 0 0 .297-1.984ZM518.381 248.28h1l5.016 12.063h-1.25l-1.563-3.782h-5.422l-1.547 3.782h-1.28Zm2.922 7.36-2.422-5.97-2.469 5.97ZM530.466 260.343V248.28h4.094c.969 0 1.813.156 2.531.469a4.981 4.981 0 0 1 1.797 1.297c.477.543.836 1.18 1.078 1.906.25.73.375 1.512.375 2.344 0 .918-.136 1.746-.406 2.484a5.438 5.438 0 0 1-1.172 1.906 5.12 5.12 0 0 1-1.812 1.235c-.711.281-1.508.422-2.39.422Zm8.688-6.047c0-.727-.106-1.395-.313-2a4.342 4.342 0 0 0-.89-1.563 3.885 3.885 0 0 0-1.438-1.03c-.562-.25-1.215-.376-1.953-.376h-2.906v9.969h2.906c.75 0 1.41-.125 1.984-.375a4.098 4.098 0 0 0 1.438-1.063c.383-.445.676-.972.875-1.578a6.499 6.499 0 0 0 .297-1.984ZM550.725 259.296v1.047h-8.11V248.28h7.954v1.047h-6.766v4.36h5.906v1h-5.906v4.609ZM557.297 260.343V248.28h5c.52 0 1 .11 1.437.328.438.22.813.508 1.125.86.313.355.555.761.735 1.218.187.461.281.918.281 1.375 0 .5-.086.98-.25 1.438a3.74 3.74 0 0 1-.719 1.219c-.304.355-.668.64-1.093.86-.43.21-.903.312-1.422.312h-3.907v4.453Zm1.187-5.516h3.86c.351 0 .672-.07.953-.219.289-.156.535-.36.734-.61.207-.257.367-.554.485-.89.113-.332.172-.68.172-1.047 0-.375-.07-.726-.204-1.062a2.83 2.83 0 0 0-.515-.875 2.278 2.278 0 0 0-.781-.578 2.196 2.196 0 0 0-.954-.219h-3.75ZM567.866 260.343V248.28h1.188v11.016h6.968v1.047ZM581.507 248.28h1l5.015 12.063h-1.25l-1.562-3.782h-5.422l-1.547 3.782h-1.281Zm2.922 7.36-2.422-5.97-2.469 5.97ZM590.447 250.483v9.86h-1.188V248.28h.922l7.984 10.047v-10.031h1.188v12.047h-1.031ZM610.94 249.327h-4.297v11.016h-1.188v-11.016h-4.312v-1.047h9.797ZM616.477 248.28h1l5.015 12.063h-1.25l-1.562-3.782h-5.422l-1.547 3.782h-1.281Zm2.922 7.36-2.422-5.97-2.469 5.97ZM631.276 250.53c-.336-.383-.79-.691-1.36-.922-.562-.238-1.21-.36-1.937-.36-1.062 0-1.84.204-2.328.61-.492.399-.734.938-.734 1.625 0 .367.062.668.187.907.133.23.336.43.61.593a4.64 4.64 0 0 0 1.046.438c.426.125.93.25 1.516.375.644.137 1.223.293 1.734.469.52.168.957.382 1.313.64.363.25.64.559.828.922.195.356.297.809.297 1.36 0 .554-.11 1.03-.328 1.437-.211.406-.508.75-.891 1.031a4.059 4.059 0 0 1-1.375.61 7.657 7.657 0 0 1-1.75.187c-1.875 0-3.492-.586-4.844-1.766l.594-.968c.219.23.473.449.766.656a6.16 6.16 0 0 0 2.188.89c.413.086.859.126 1.327.126.969 0 1.719-.172 2.25-.516.54-.344.813-.867.813-1.578 0-.375-.078-.688-.235-.938a1.893 1.893 0 0 0-.687-.672 4.81 4.81 0 0 0-1.14-.484 25.77 25.77 0 0 0-1.579-.406 18.727 18.727 0 0 1-1.672-.453 4.378 4.378 0 0 1-1.203-.594 2.334 2.334 0 0 1-.734-.86c-.168-.331-.25-.742-.25-1.234 0-.55.101-1.047.312-1.484.207-.438.504-.801.89-1.094.384-.289.837-.508 1.36-.656a6.01 6.01 0 0 1 1.735-.235c.812 0 1.53.125 2.156.375a5.848 5.848 0 0 1 1.703 1.016ZM638.939 248.28l3.953 6.485 3.969-6.485h1.297l-4.672 7.578v4.485h-1.188v-4.516l-4.672-7.547ZM664.959 260.343v-9.907l-4.407 7.657h-.687l-4.406-7.657v9.907h-1.188V248.28h1.219l4.719 8.25 4.734-8.25h1.203v12.063ZM672.908 248.28h1l5.015 12.063h-1.25l-1.562-3.782h-5.422l-1.547 3.782h-1.281Zm2.922 7.36-2.422-5.97-2.47 5.97Zm-2.313-9.016-.766-.297 1.016-1.578h1.219ZM687.707 250.53c-.336-.383-.79-.691-1.36-.922-.562-.238-1.21-.36-1.937-.36-1.063 0-1.84.204-2.328.61-.492.399-.735.938-.735 1.625 0 .367.063.668.188.907.133.23.336.43.61.593a4.64 4.64 0 0 0 1.046.438c.426.125.93.25 1.516.375.644.137 1.222.293 1.734.469.52.168.957.382 1.313.64.363.25.64.559.828.922.195.356.297.809.297 1.36 0 .554-.11 1.03-.328 1.437-.211.406-.508.75-.891 1.031a4.059 4.059 0 0 1-1.375.61 7.657 7.657 0 0 1-1.75.187c-1.875 0-3.492-.586-4.844-1.766l.594-.968c.219.23.473.449.766.656a6.16 6.16 0 0 0 2.188.89c.413.086.858.126 1.327.126.969 0 1.719-.172 2.25-.516.54-.344.813-.867.813-1.578 0-.375-.078-.688-.235-.938a1.893 1.893 0 0 0-.687-.672 4.81 4.81 0 0 0-1.14-.484 25.77 25.77 0 0 0-1.579-.406 18.727 18.727 0 0 1-1.672-.453 4.378 4.378 0 0 1-1.203-.594 2.334 2.334 0 0 1-.734-.86c-.168-.331-.25-.742-.25-1.234 0-.55.101-1.047.312-1.484.207-.438.504-.801.89-1.094.384-.289.837-.508 1.36-.656a6.01 6.01 0 0 1 1.735-.235c.812 0 1.53.125 2.156.375a5.848 5.848 0 0 1 1.703 1.016ZM464.452 283.593V271.53h4.094c.968 0 1.812.156 2.53.469a4.981 4.981 0 0 1 1.798 1.297c.476.543.836 1.18 1.078 1.906.25.73.375 1.512.375 2.344 0 .918-.137 1.746-.406 2.484a5.438 5.438 0 0 1-1.172 1.906 5.12 5.12 0 0 1-1.813 1.235c-.71.281-1.508.422-2.39.422Zm8.687-6.047c0-.727-.105-1.395-.312-2a4.342 4.342 0 0 0-.89-1.563 3.885 3.885 0 0 0-1.438-1.03c-.563-.25-1.215-.376-1.953-.376h-2.907v9.969h2.907c.75 0 1.41-.125 1.984-.375a4.098 4.098 0 0 0 1.437-1.063c.383-.445.676-.972.875-1.578a6.499 6.499 0 0 0 .297-1.984ZM484.71 282.546v1.047h-8.109V271.53h7.953v1.047h-6.765v4.36h5.906v1h-5.906v4.609ZM493.996 273.78c-.336-.383-.789-.691-1.36-.922-.562-.238-1.21-.36-1.937-.36-1.062 0-1.84.204-2.328.61-.492.399-.734.938-.734 1.625 0 .367.062.668.187.907.133.23.336.43.61.593a4.64 4.64 0 0 0 1.047.438c.425.125.93.25 1.515.375.645.137 1.223.293 1.735.469.52.168.957.382 1.312.64.363.25.64.559.828.922.196.356.297.809.297 1.36 0 .554-.11 1.03-.328 1.437-.21.406-.508.75-.89 1.031a4.059 4.059 0 0 1-1.376.61 7.657 7.657 0 0 1-1.75.187c-1.875 0-3.492-.586-4.843-1.766l.593-.968c.22.23.473.449.766.656a6.16 6.16 0 0 0 2.188.89c.414.086.859.126 1.328.126.968 0 1.718-.172 2.25-.516.539-.344.812-.867.812-1.578 0-.375-.078-.688-.234-.938a1.893 1.893 0 0 0-.688-.672 4.81 4.81 0 0 0-1.14-.484 25.77 25.77 0 0 0-1.578-.406 18.727 18.727 0 0 1-1.672-.453 4.378 4.378 0 0 1-1.203-.594 2.334 2.334 0 0 1-.735-.86c-.168-.331-.25-.742-.25-1.234 0-.55.102-1.047.313-1.484.207-.438.504-.801.89-1.094.383-.289.836-.508 1.36-.656a6.01 6.01 0 0 1 1.734-.235c.813 0 1.531.125 2.156.375a5.848 5.848 0 0 1 1.703 1.016ZM496.467 277.468c0-.72.125-1.438.375-2.157a6.109 6.109 0 0 1 1.11-1.921 5.677 5.677 0 0 1 1.796-1.391c.719-.363 1.531-.547 2.438-.547 1.082 0 2.003.246 2.765.734.77.493 1.332 1.125 1.688 1.907l-.922.578a3.705 3.705 0 0 0-.719-1 3.517 3.517 0 0 0-.89-.672 3.866 3.866 0 0 0-.985-.36 4.868 4.868 0 0 0-1-.109c-.73 0-1.371.149-1.922.438a4.45 4.45 0 0 0-1.406 1.156 5.277 5.277 0 0 0-.86 1.61 5.991 5.991 0 0 0-.28 1.812c0 .668.113 1.308.343 1.922.227.605.547 1.148.953 1.625a4.77 4.77 0 0 0 1.422 1.125c.55.273 1.148.406 1.797.406.344 0 .691-.04 1.047-.125a3.961 3.961 0 0 0 1.031-.406 4.09 4.09 0 0 0 .938-.703c.28-.282.52-.618.718-1.016l.985.516c-.2.46-.477.859-.828 1.203a5.097 5.097 0 0 1-1.172.875c-.43.242-.883.422-1.36.547-.48.125-.953.187-1.422.187-.836 0-1.593-.18-2.28-.547a6.005 6.005 0 0 1-1.782-1.422 6.612 6.612 0 0 1-1.172-1.984 6.6 6.6 0 0 1-.406-2.281ZM513.81 282.608c.759 0 1.392-.144 1.892-.437a3.49 3.49 0 0 0 1.218-1.14c.301-.47.508-1 .625-1.595.114-.601.172-1.21.172-1.828v-6.078h1.203v6.078c0 .813-.093 1.59-.281 2.328a5.346 5.346 0 0 1-.875 1.922 4.278 4.278 0 0 1-1.578 1.328c-.649.325-1.434.485-2.36.485-.949 0-1.75-.172-2.406-.516a4.371 4.371 0 0 1-1.562-1.36 5.726 5.726 0 0 1-.86-1.937 9.957 9.957 0 0 1-.25-2.25v-6.078h1.172v6.078c0 .637.063 1.258.188 1.86.125.593.336 1.125.64 1.593.301.461.696.836 1.188 1.125.5.282 1.125.422 1.875.422ZM529.859 282.546v1.047h-8.11V271.53h7.953v1.047h-6.765v4.36h5.906v1h-5.906v4.609ZM533.285 273.733v9.86h-1.187V271.53h.921l7.985 10.047v-10.031h1.187v12.047h-1.03ZM553.778 272.577h-4.297v11.016h-1.187v-11.016h-4.313v-1.047h9.797ZM560.44 283.67c-.844 0-1.617-.171-2.312-.515a5.738 5.738 0 0 1-1.782-1.375 6.187 6.187 0 0 1-1.156-1.953 6.465 6.465 0 0 1-.406-2.266 6.277 6.277 0 0 1 1.625-4.266 5.785 5.785 0 0 1 1.797-1.359 5.155 5.155 0 0 1 2.25-.5c.843 0 1.61.184 2.297.547a5.71 5.71 0 0 1 1.78 1.407c.5.574.884 1.226 1.157 1.953.27.73.406 1.476.406 2.234 0 .805-.148 1.574-.437 2.313a6.123 6.123 0 0 1-1.188 1.953c-.5.554-1.101.996-1.797 1.328-.687.336-1.433.5-2.234.5Zm-4.469-6.109c0 .657.102 1.29.313 1.891.219.606.523 1.148.922 1.625.394.469.863.844 1.406 1.125.55.273 1.16.406 1.828.406.676 0 1.29-.144 1.844-.437a4.686 4.686 0 0 0 1.422-1.156c.383-.477.68-1.016.89-1.61a5.642 5.642 0 0 0 .313-1.844c0-.656-.11-1.285-.328-1.89a5.065 5.065 0 0 0-.922-1.61 4.423 4.423 0 0 0-1.422-1.109 3.844 3.844 0 0 0-1.797-.422c-.68 0-1.297.149-1.86.438a4.253 4.253 0 0 0-1.406 1.14 5.345 5.345 0 0 0-.89 1.625 5.418 5.418 0 0 0-.313 1.828ZM575.389 273.78c-.336-.383-.79-.691-1.36-.922-.562-.238-1.21-.36-1.937-.36-1.063 0-1.84.204-2.328.61-.492.399-.735.938-.735 1.625 0 .367.063.668.188.907.133.23.336.43.61.593a4.64 4.64 0 0 0 1.046.438c.426.125.93.25 1.516.375.644.137 1.222.293 1.734.469.52.168.957.382 1.313.64.363.25.64.559.828.922.195.356.297.809.297 1.36 0 .554-.11 1.03-.329 1.437-.21.406-.507.75-.89 1.031a4.059 4.059 0 0 1-1.375.61 7.657 7.657 0 0 1-1.75.187c-1.875 0-3.492-.586-4.844-1.766l.594-.968c.219.23.472.449.765.656a6.16 6.16 0 0 0 2.188.89c.414.086.86.126 1.328.126.969 0 1.719-.172 2.25-.516.54-.344.813-.867.813-1.578 0-.375-.079-.688-.235-.938a1.893 1.893 0 0 0-.687-.672 4.81 4.81 0 0 0-1.14-.484 25.77 25.77 0 0 0-1.579-.406 18.727 18.727 0 0 1-1.672-.453 4.378 4.378 0 0 1-1.203-.594 2.334 2.334 0 0 1-.734-.86c-.168-.331-.25-.742-.25-1.234 0-.55.101-1.047.312-1.484.207-.438.504-.801.89-1.094.384-.289.837-.508 1.36-.656a6.01 6.01 0 0 1 1.734-.235c.813 0 1.532.125 2.157.375a5.848 5.848 0 0 1 1.703 1.016ZM582.99 283.593V271.53h1.187v12.063ZM597.89 283.593v-9.907l-4.406 7.657h-.687l-4.406-7.657v9.907h-1.188V271.53h1.219l4.719 8.25 4.734-8.25h1.203v12.063ZM602.105 283.593V271.53h5c.52 0 1 .11 1.438.328.437.22.812.508 1.125.86.312.355.554.761.734 1.218.188.461.281.918.281 1.375 0 .5-.086.98-.25 1.438a3.74 3.74 0 0 1-.718 1.219c-.305.355-.668.64-1.094.86-.43.21-.902.312-1.422.312h-3.906v4.453Zm1.188-5.516h3.86c.35 0 .671-.07.952-.219.29-.156.535-.36.735-.61.207-.257.367-.554.484-.89.113-.332.172-.68.172-1.047 0-.375-.07-.726-.203-1.062a2.83 2.83 0 0 0-.516-.875 2.278 2.278 0 0 0-.781-.578 2.196 2.196 0 0 0-.953-.219h-3.75ZM620.784 282.546v1.047h-8.11V271.53h7.953v1.047h-6.765v4.36h5.906v1h-5.906v4.609ZM623.023 283.593V271.53h5.093c.52 0 1 .11 1.438.328.437.22.812.508 1.125.86.32.355.57.761.75 1.218.176.461.265.918.265 1.375 0 .45-.07.875-.203 1.282a3.597 3.597 0 0 1-.547 1.078c-.23.324-.511.594-.843.812a2.991 2.991 0 0 1-1.094.453l2.953 4.657h-1.344l-2.843-4.453h-3.563v4.453Zm1.187-5.516h3.938c.351 0 .675-.07.968-.219.29-.156.535-.363.735-.625a3.03 3.03 0 0 0 .484-.875c.113-.332.172-.68.172-1.047 0-.363-.07-.71-.203-1.046a2.723 2.723 0 0 0-.531-.875 2.484 2.484 0 0 0-.782-.594 2.167 2.167 0 0 0-.937-.219h-3.844ZM634.118 283.593V271.53h4.094c.969 0 1.813.156 2.531.469a4.981 4.981 0 0 1 1.797 1.297c.477.543.836 1.18 1.078 1.906.25.73.375 1.512.375 2.344 0 .918-.136 1.746-.406 2.484a5.438 5.438 0 0 1-1.172 1.906 5.12 5.12 0 0 1-1.812 1.235c-.711.281-1.508.422-2.39.422Zm8.688-6.047c0-.727-.106-1.395-.313-2a4.342 4.342 0 0 0-.89-1.563 3.885 3.885 0 0 0-1.438-1.03c-.562-.25-1.215-.376-1.953-.376h-2.906v9.969h2.906c.75 0 1.41-.125 1.985-.375a4.098 4.098 0 0 0 1.437-1.063c.383-.445.676-.972.875-1.578a6.499 6.499 0 0 0 .297-1.984ZM646.268 283.593V271.53h1.187v12.063ZM659.56 280.483c0 .45-.094.867-.281 1.25-.18.375-.422.703-.735.985-.304.28-.656.5-1.062.656a3.794 3.794 0 0 1-1.313.219h-5.687V271.53h5.812c.414 0 .79.09 1.125.266.344.18.633.414.875.703.239.293.422.625.547 1a3.2 3.2 0 0 1 .203 1.094c0 .617-.156 1.18-.468 1.687-.305.5-.727.875-1.266 1.125.695.211 1.242.59 1.64 1.14.407.555.61 1.2.61 1.938Zm-1.187-.203c0-.289-.055-.578-.157-.86a2.307 2.307 0 0 0-.437-.734 2.19 2.19 0 0 0-.672-.5 1.716 1.716 0 0 0-.813-.203h-4.625v4.578h4.5c.313 0 .598-.062.86-.187.27-.125.504-.29.703-.5.195-.219.351-.461.469-.734a2.28 2.28 0 0 0 .172-.86Zm-6.704-7.719v4.454h4.141c.3 0 .578-.063.828-.188a2.085 2.085 0 0 0 1.078-1.188c.102-.269.157-.554.157-.859 0-.3-.047-.586-.141-.86a2.089 2.089 0 0 0-.406-.702 2.102 2.102 0 0 0-.625-.47 1.671 1.671 0 0 0-.782-.187ZM661.799 283.593V271.53h1.187v11.016h6.969v1.047ZM679.814 282.546v1.047h-8.109V271.53h7.953v1.047h-6.765v4.36h5.906v1h-5.906v4.609ZM689.1 273.78c-.336-.383-.789-.691-1.36-.922-.562-.238-1.21-.36-1.937-.36-1.062 0-1.84.204-2.328.61-.492.399-.734.938-.734 1.625 0 .367.062.668.187.907.133.23.336.43.61.593a4.64 4.64 0 0 0 1.047.438c.425.125.93.25 1.515.375.645.137 1.223.293 1.735.469.52.168.957.382 1.312.64.363.25.64.559.828.922.195.356.297.809.297 1.36 0 .554-.11 1.03-.328 1.437-.211.406-.508.75-.89 1.031a4.059 4.059 0 0 1-1.376.61 7.657 7.657 0 0 1-1.75.187c-1.875 0-3.492-.586-4.843-1.766l.593-.968c.219.23.473.449.766.656a6.16 6.16 0 0 0 2.188.89c.413.086.859.126 1.328.126.968 0 1.718-.172 2.25-.516.539-.344.812-.867.812-1.578 0-.375-.078-.688-.234-.938a1.893 1.893 0 0 0-.688-.672 4.81 4.81 0 0 0-1.14-.484 25.77 25.77 0 0 0-1.579-.406 18.727 18.727 0 0 1-1.671-.453 4.378 4.378 0 0 1-1.204-.594 2.334 2.334 0 0 1-.734-.86c-.168-.331-.25-.742-.25-1.234 0-.55.102-1.047.313-1.484.207-.438.503-.801.89-1.094.383-.289.836-.508 1.36-.656a6.01 6.01 0 0 1 1.734-.235c.812 0 1.531.125 2.156.375a5.848 5.848 0 0 1 1.703 1.016ZM692.414 279.718v-8.313h1.157v8.313Zm0 3.875v-1.907h1.157v1.907Zm0 0"/><g clip-path="url(#e)"><g clip-path="url(#f)"><path fill="#fff" d="M786.754 153.16v62.227h-89.738V153.16Zm0 0"/></g></g><path d="M722.83 178.731c-1.375-.23-2.235-.719-2.578-1.469-.344-.757-.207-1.867.406-3.328l.578-1.437 2.969.5-.75 1.828c-.305.719-.215 1.121.265 1.203.27.043.493 0 .672-.125.176-.133.332-.39.47-.766.206-.468.312-.863.312-1.187.007-.332-.032-.617-.125-.86-.086-.25-.278-.628-.579-1.14l-.78-1.469c-.606-1.113-.669-2.25-.188-3.406.488-1.238 1.164-2.129 2.03-2.672.876-.55 1.88-.726 3.017-.531 1.363.23 2.203.742 2.515 1.531.313.793.156 1.93-.469 3.406l-3.078-.515.407-1c.093-.196.101-.364.03-.5-.062-.133-.198-.22-.405-.25a.887.887 0 0 0-.61.093c-.168.106-.293.274-.375.5-.199.47-.12 1 .235 1.594l1.093 1.938c.239.449.426.87.563 1.265.133.387.18.828.14 1.328-.03.493-.18 1.059-.437 1.704-.606 1.43-1.336 2.464-2.188 3.109-.843.644-1.89.863-3.14.656ZM730.955 180.095c-1.23-.21-2.012-.722-2.344-1.546-.332-.82-.234-1.875.297-3.157l2.875-6.937c.52-1.25 1.227-2.133 2.125-2.656.895-.532 1.957-.696 3.188-.5 1.219.21 2.008.687 2.375 1.437.375.742.3 1.734-.219 2.984l-2.89 6.922c-.544 1.305-1.278 2.258-2.204 2.86-.918.601-1.984.8-3.203.593Zm1.078-2.671a.737.737 0 0 0 .703-.25c.188-.207.364-.508.532-.907l2.953-7.125c.133-.312.195-.57.187-.78 0-.22-.136-.349-.406-.392-.5-.082-.902.247-1.203.985l-2.938 7.078c-.18.418-.261.742-.25.969.008.23.149.37.422.422ZM735.942 180.8l6.031-14.532 3.032.516-4.985 12.047 3.11.515-1.047 2.485ZM746.488 182.709c-1.23-.211-2.011-.723-2.343-1.547-.332-.82-.235-1.875.297-3.157l2.875-6.937c.52-1.25 1.226-2.133 2.125-2.656.894-.532 1.957-.696 3.187-.5 1.219.21 2.008.687 2.375 1.437.375.742.3 1.735-.219 2.985l-2.89 6.921c-.543 1.305-1.278 2.258-2.203 2.86-.918.601-1.985.8-3.204.594Zm1.079-2.672a.737.737 0 0 0 .703-.25c.187-.207.363-.508.531-.907l2.953-7.125c.133-.312.195-.57.188-.78 0-.22-.137-.349-.407-.391-.5-.083-.902.246-1.203.984l-2.937 7.078c-.18.418-.262.742-.25.969.008.23.148.37.422.422ZM711.17 179.267l4 .672c1.207.211 1.91.73 2.11 1.563.206.824.007 1.96-.595 3.406-.593 1.437-1.277 2.492-2.047 3.156-.761.656-1.734.887-2.921.688l-1.235-.219-2.375 5.766-2.969-.5Zm.593 6.688c.364.062.657.043.875-.063.22-.113.407-.285.563-.515.156-.227.332-.563.531-1 .25-.625.36-1.082.328-1.375-.03-.29-.261-.473-.687-.547l-.328-.063-1.453 3.532ZM717.004 195.93c-1.23-.211-2.012-.723-2.344-1.547-.332-.82-.234-1.875.297-3.156l2.875-6.938c.52-1.25 1.227-2.133 2.125-2.656.895-.531 1.957-.695 3.188-.5 1.219.21 2.008.687 2.375 1.437.375.743.3 1.735-.219 2.985l-2.89 6.922c-.544 1.304-1.278 2.257-2.204 2.859-.918.602-1.984.8-3.203.594Zm1.078-2.672a.737.737 0 0 0 .703-.25c.188-.207.364-.508.532-.906l2.953-7.125c.133-.313.195-.57.187-.782 0-.218-.136-.347-.406-.39-.5-.082-.902.246-1.203.984l-2.938 7.078c-.18.418-.261.742-.25.969.008.23.149.371.422.422ZM728.022 182.102l4.657.782c.738.125 1.242.386 1.515.78.27.388.352.884.25 1.485-.105.606-.343 1.356-.718 2.25-.336.824-.711 1.45-1.125 1.875-.418.418-.938.672-1.563.766.406.18.64.46.703.844.07.375-.015.859-.265 1.453l-2.313 5.5-2.969-.5 2.36-5.703c.164-.395.187-.66.062-.797-.117-.145-.387-.254-.812-.328l-2.75 6.64-3.063-.515Zm1.594 6.016c.414.074.8-.332 1.156-1.219.176-.383.282-.676.313-.875.039-.195.031-.336-.031-.422-.063-.082-.184-.14-.36-.171l-.703-.125-1.11 2.687ZM734.499 198.738l6.031-14.532 3.016.516-2.157 5.188 1.422.234 2.156-5.188 3.016.5-6.047 14.532-3-.516 2.75-6.594-1.437-.234-2.735 6.594ZM746.84 200.949c-1.231-.211-2.012-.723-2.344-1.547-.332-.82-.235-1.875.297-3.156l2.875-6.938c.52-1.25 1.226-2.133 2.125-2.656.894-.531 1.957-.695 3.187-.5 1.219.21 2.008.687 2.375 1.437.375.743.3 1.735-.219 2.985l-2.89 6.922c-.543 1.304-1.278 2.257-2.203 2.859-.918.602-1.985.8-3.204.594Zm1.078-2.672a.737.737 0 0 0 .703-.25c.187-.207.363-.508.53-.906l2.954-7.125c.133-.313.195-.57.188-.782 0-.218-.137-.347-.407-.39-.5-.082-.902.246-1.203.984l-2.937 7.078c-.18.418-.262.742-.25.969.007.23.148.371.422.422ZM753.639 201.95l1.984-4.797 1.64-10.125 3 .5-1.202 5.047 2.89-4.766 2.985.5-6.453 9.328-1.985 4.797Zm0 0"/><g clip-path="url(#g)"><g clip-path="url(#h)"><g clip-path="url(#i)"><g clip-path="url(#j)"><path d="m770.059 197.496 1.804.383 1.63.344 7.132-26.368-3.133-.66-1.804-.382-3.133-.66-4.125 27Zm0 0"/></g></g></g></g><g clip-path="url(#k)"><g clip-path="url(#l)"><g clip-path="url(#m)"><g clip-path="url(#n)"><path d="M773.762 203.031a3.683 3.683 0 0 1-.582 1.352 3.818 3.818 0 0 1-2.457 1.566c-.5.09-1 .082-1.5-.023a3.885 3.885 0 0 1-1.38-.586 3.804 3.804 0 0 1-1.613-2.426 3.578 3.578 0 0 1 .012-1.469c.102-.492.297-.941.582-1.351.29-.414.645-.754 1.07-1.028a3.878 3.878 0 0 1 2.887-.52 3.885 3.885 0 0 1 2.43 1.642c.281.421.469.878.562 1.37.098.493.094.981-.011 1.473Zm0 0"/></g></g></g></g><path fill="#fff" d="M185.617 353.45h-2.313v-23.062h3.266l5.328 16.672v-16.672h2.281v23.063h-2.671l-5.891-18.641ZM199.245 348.013c0 1.055.211 1.871.641 2.453.438.586 1.125.875 2.063.875.925 0 1.601-.289 2.03-.875.427-.582.641-1.398.641-2.453v-17.625h2.407v17.5c0 1.75-.418 3.164-1.25 4.235-.836 1.062-2.14 1.593-3.922 1.593-1.762 0-3.059-.531-3.89-1.593-.837-1.07-1.25-2.485-1.25-4.235v-17.5h2.53ZM217.759 340.607v2.297h-5.625v8.203h6.906v2.344h-9.484v-23.063h9.484v2.344h-6.906v7.875ZM223.367 330.388l3.75 20.063 3.719-20.063h2.375l-4.313 23.063h-3.797l-4.343-23.063ZM237.792 348.81l-.89 4.64h-2.376l4.422-23.062h3.719l4.406 23.063h-2.562l-.89-4.641Zm.328-2.203h5.14l-2.609-13.313ZM259.033 330.17c1.757 0 3.054.523 3.89 1.562.832 1.043 1.25 2.445 1.25 4.203v.625h-2.437v-.766c0-1.05-.211-1.863-.625-2.437-.418-.57-1.09-.86-2.016-.86-.918 0-1.586.29-2 .86-.418.574-.625 1.375-.625 2.406 0 .856.191 1.602.578 2.235a8.55 8.55 0 0 0 1.422 1.765c.57.543 1.191 1.074 1.86 1.594a13.915 13.915 0 0 1 1.859 1.687 8.85 8.85 0 0 1 1.437 2.094c.383.781.578 1.711.578 2.781 0 1.75-.421 3.153-1.265 4.204-.844 1.042-2.156 1.562-3.938 1.562-1.78 0-3.09-.52-3.922-1.562-.835-1.051-1.25-2.454-1.25-4.204v-1.312h2.407v1.437c0 1.055.218 1.868.656 2.438.437.574 1.117.86 2.047.86.914 0 1.594-.286 2.031-.86.445-.57.672-1.383.672-2.438 0-.851-.195-1.593-.578-2.218a8.444 8.444 0 0 0-1.438-1.735 26.499 26.499 0 0 0-1.843-1.578 16.173 16.173 0 0 1-1.844-1.703 8.55 8.55 0 0 1-1.438-2.094c-.386-.781-.578-1.707-.578-2.781 0-1.781.414-3.187 1.25-4.219.844-1.031 2.13-1.547 3.86-1.547ZM268.88 348.013c0 1.055.21 1.871.64 2.453.438.586 1.126.875 2.063.875.926 0 1.602-.289 2.031-.875.426-.582.64-1.398.64-2.453v-17.625h2.407v17.5c0 1.75-.418 3.164-1.25 4.235-.836 1.062-2.14 1.593-3.922 1.593-1.761 0-3.058-.531-3.89-1.593-.836-1.07-1.25-2.485-1.25-4.235v-17.5h2.53ZM284.237 330.388c1.82 0 3.14.5 3.953 1.5.813 1 1.219 2.383 1.219 4.14v2.766c0 1.844-.438 3.235-1.313 4.172-.867.93-2.218 1.39-4.062 1.39h-2.266v9.095h-2.578v-23.063Zm-.203 11.672c.969 0 1.68-.234 2.14-.703.457-.477.688-1.281.688-2.406v-3.063c0-1.05-.203-1.836-.61-2.36-.406-.53-1.078-.796-2.015-.796h-2.469v9.328ZM299.713 340.607v2.297h-5.625v8.203h6.906v2.344h-9.485v-23.063h9.485v2.344h-6.906v7.875ZM308.508 330.388c1.82 0 3.133.453 3.938 1.36.8.898 1.203 2.203 1.203 3.921v1.875c0 1.274-.234 2.305-.703 3.094-.461.793-1.18 1.34-2.156 1.64 1.05.313 1.796.884 2.234 1.704.437.824.656 1.86.656 3.11v3.593c0 .5.02.992.063 1.469.05.469.187.902.406 1.297h-2.61a4.05 4.05 0 0 1-.328-1.063c-.062-.383-.093-.96-.093-1.734v-3.625c0-1.29-.293-2.18-.875-2.672-.586-.5-1.414-.75-2.485-.75h-1.812v9.844h-2.578v-23.063Zm-.656 10.875c1.031 0 1.832-.21 2.406-.64.57-.426.86-1.266.86-2.516v-2.219c0-1.05-.203-1.836-.61-2.36-.406-.53-1.093-.796-2.062-.796h-2.5v8.531ZM321.264 335.966c0-1.781.43-3.191 1.297-4.234.863-1.04 2.187-1.563 3.969-1.563 1.781 0 3.11.524 3.984 1.563.875 1.043 1.313 2.453 1.313 4.234v11.922c0 1.75-.438 3.156-1.313 4.219-.875 1.055-2.203 1.578-3.984 1.578-1.782 0-3.106-.523-3.969-1.578-.867-1.063-1.297-2.469-1.297-4.219Zm2.531 12.047c0 1.055.223 1.871.672 2.453.446.586 1.133.875 2.063.875.945 0 1.64-.289 2.078-.875.437-.582.656-1.398.656-2.453v-12.187c0-1.051-.219-1.868-.656-2.453-.438-.583-1.133-.875-2.078-.875-.93 0-1.617.292-2.063.875-.449.585-.672 1.402-.672 2.453ZM342.14 341.138v2.328h-5.297v9.985h-2.578v-23.063h9.156v2.344h-6.578v8.406ZM353.668 340.607v2.297h-5.625v8.203h6.906v2.344h-9.484v-23.063h9.484v2.344h-6.906v7.875ZM362.463 330.388c1.82 0 3.133.453 3.938 1.36.8.898 1.203 2.203 1.203 3.921v1.875c0 1.274-.234 2.305-.703 3.094-.46.793-1.18 1.34-2.156 1.64 1.05.313 1.797.884 2.234 1.704.438.824.656 1.86.656 3.11v3.593c0 .5.02.992.063 1.469.05.469.187.902.406 1.297h-2.61a4.05 4.05 0 0 1-.327-1.063c-.063-.383-.094-.96-.094-1.734v-3.625c0-1.29-.293-2.18-.875-2.672-.586-.5-1.414-.75-2.485-.75h-1.812v9.844h-2.578v-23.063Zm-.656 10.875c1.031 0 1.832-.21 2.406-.64.57-.426.86-1.266.86-2.516v-2.219c0-1.05-.203-1.836-.61-2.36-.406-.53-1.093-.796-2.062-.796h-2.5v8.531ZM373.66 353.45v-20.718h-4.25v-2.344h11.079v2.344h-4.25v20.719ZM384.868 348.81l-.891 4.64h-2.375l4.422-23.062h3.719l4.406 23.063h-2.563l-.89-4.641Zm.328-2.203h5.14l-2.61-13.313Zm0 0"/><path d="m556.915 64.195 5.531-24.016h4.782l-1.985 8.578h2.266l1.984-8.578h4.781l-5.53 24.016h-4.782l2.516-10.906h-2.266l-2.516 10.906ZM570.221 64.195l7.844-24.016h8.14l-3.234 24.016h-4.562l.562-3.89h-2.906l-1.187 3.89Zm7.094-7.719h2.188l1.734-12.219h-.234ZM590.059 64.414c-2.18 0-3.625-.535-4.344-1.61-.719-1.082-.797-2.828-.235-5.234l.532-2.344h4.718l-.703 2.985c-.273 1.199-.027 1.796.735 1.796.425 0 .754-.125.984-.375.238-.257.422-.687.547-1.28.187-.782.242-1.427.172-1.938-.074-.508-.215-.938-.422-1.282-.2-.351-.59-.89-1.172-1.609l-1.594-2.078c-1.23-1.563-1.633-3.297-1.203-5.203.469-2.04 1.297-3.598 2.485-4.672 1.195-1.07 2.695-1.61 4.5-1.61 2.164 0 3.593.575 4.28 1.72.688 1.148.743 2.937.173 5.374h-4.891l.36-1.64c.07-.32.038-.57-.094-.75-.125-.188-.344-.282-.657-.282-.375 0-.683.106-.921.313-.243.2-.403.477-.485.828-.187.781.07 1.594.781 2.438l2.188 2.671c.5.637.898 1.243 1.203 1.813.3.562.492 1.234.578 2.016.082.773 0 1.687-.25 2.75-.555 2.367-1.402 4.156-2.547 5.375-1.148 1.218-2.718 1.828-4.718 1.828ZM599.334 64.195l4.469-19.406h-2.844l1.063-4.61h10.515l-1.062 4.61h-2.86l-4.468 19.406ZM607.73 64.195l7.844-24.016h8.14l-3.234 24.016h-4.562l.562-3.89h-2.906l-1.187 3.89Zm7.094-7.719h2.188l1.734-12.219h-.234ZM549.17 120.187c-3.762 0-6.273-.988-7.531-2.969-1.27-1.976-1.438-5-.5-9.062l1.047-4.5h8.797l-1.063 4.5c-.293 1.293-.355 2.297-.187 3.016.164.718.742 1.078 1.734 1.078.707 0 1.273-.25 1.703-.75.438-.5.77-1.086 1-1.766.227-.687.492-1.68.797-2.984l.203-1.047c.863-3.695.082-5.547-2.344-5.547-.437 0-.726.023-.859.062l1.75-7.703c1.531 0 2.758-.336 3.687-1.015.938-.688 1.57-1.774 1.907-3.266.57-2.437.156-3.656-1.25-3.656-.867 0-1.477.219-1.828.656-.344.43-.637.977-.875 1.64-.23.669-.391 1.153-.485 1.454l-.297 1.297h-8.89l.297-1.5c.925-3.926 2.52-6.813 4.78-8.657 2.27-1.851 5.302-2.78 9.095-2.78 7.289 0 10.054 3.812 8.296 11.437-.53 2.23-1.25 4.008-2.156 5.328-.898 1.312-2.14 2.234-3.734 2.765 1.062.594 1.785 1.336 2.172 2.22.383.886.515 1.964.39 3.234-.117 1.261-.406 2.953-.875 5.078-1.03 4.43-2.742 7.777-5.125 10.047-2.375 2.261-5.593 3.39-9.656 3.39ZM574.403 120.28c-3.437 0-5.968-.835-7.593-2.515-1.633-1.675-2.067-4.164-1.297-7.468l1.437-6.344h8.938l-.844 3.656c-.336 1.461-.453 2.606-.36 3.438.102.836.626 1.25 1.563 1.25.863 0 1.52-.282 1.969-.844.445-.57.804-1.406 1.078-2.5l1.937-8.438c.301-1.363.41-2.453.329-3.265-.086-.82-.575-1.235-1.47-1.235-1.636 0-2.734 1.184-3.296 3.547h-7.844l5.297-22.828h20.422l-1.89 8.047h-12.282l-1.36 6.047c.532-.57 1.212-1.04 2.048-1.406a6.572 6.572 0 0 1 2.656-.547c3.594 0 5.742 1.265 6.453 3.797.719 2.53.547 6.109-.516 10.734-.867 3.836-1.851 6.945-2.953 9.328-1.094 2.375-2.633 4.23-4.61 5.563-1.98 1.324-4.585 1.984-7.812 1.984ZM602.87 119.687l23.173-43.094h7.89l-23.172 43.094Zm-2.546-12.89c-3 0-5.125-.91-6.375-2.735-1.25-1.832-1.508-4.332-.766-7.5l2.047-8.828c.758-3.3 2.13-5.82 4.11-7.562 1.988-1.75 4.562-2.625 7.718-2.625 3.196 0 5.395.875 6.594 2.625 1.195 1.742 1.414 4.261.656 7.562l-2.047 8.828c-.742 3.168-2.156 5.668-4.25 7.5-2.093 1.824-4.656 2.735-7.687 2.735Zm1.5-6.391c.625 0 1.21-.227 1.766-.688a3.23 3.23 0 0 0 1.078-1.703l2.687-11.843c.27-1.063.305-1.844.11-2.344-.2-.5-.75-.75-1.657-.75-.898 0-1.554.25-1.968.75-.418.5-.758 1.281-1.016 2.344l-2.703 11.843c-.168.668-.086 1.235.25 1.703.332.461.816.688 1.453.688Zm27.062 19.734c-3 0-5.125-.922-6.375-2.765-1.25-1.852-1.507-4.344-.765-7.47l2.047-8.89c.758-3.332 2.129-5.863 4.11-7.593 1.987-1.727 4.577-2.594 7.765-2.594 3.164 0 5.347.875 6.547 2.625 1.195 1.742 1.414 4.262.656 7.562l-2.047 8.89c-.742 3.126-2.168 5.618-4.281 7.47-2.117 1.843-4.668 2.765-7.657 2.765Zm1.5-6.39c.625 0 1.204-.235 1.735-.703a3.274 3.274 0 0 0 1.062-1.704l2.735-11.875c.238-1.07.265-1.859.078-2.359-.18-.5-.719-.75-1.625-.75-.899 0-1.563.262-2 .781-.43.524-.758 1.297-.985 2.328l-2.75 11.875c-.168.668-.078 1.235.266 1.704.352.468.848.703 1.484.703Zm0 0"/><path fill="none" stroke="#fff" stroke-width="3.68598285" d="M196.559 245.383v8.383H177.55V289.5h-9.184v-82.558h32.797v8.378h-23.613v30.063Zm30.312-38.441c6.528 0 11.22 1.613 14.082 4.835 2.88 3.227 4.32 7.903 4.32 14.024v6.738c0 4.551-.827 8.246-2.476 11.09-1.652 2.82-4.254 4.777-7.805 5.871 3.782 1.117 6.461 3.149 8.036 6.106 1.574 2.937 2.359 6.644 2.359 11.117v12.871c0 1.805.078 3.55.23 5.242a11.72 11.72 0 0 0 1.41 4.664h-9.3a15.235 15.235 0 0 1-1.211-3.828c-.23-1.383-.344-3.449-.344-6.191v-12.989c0-4.625-1.047-7.824-3.14-9.59-2.07-1.785-5.028-2.68-8.868-2.68h-6.508V289.5h-9.187v-82.558Zm-2.363 38.902c3.688 0 6.547-.758 8.582-2.273 2.055-1.536 3.082-4.551 3.082-9.043v-7.891c0-3.781-.73-6.613-2.187-8.496-1.442-1.88-3.887-2.82-7.344-2.82h-8.985v30.523Zm39.621-38.902V289.5h-9.187v-82.558Zm28.801 0c6.43 0 11.164 1.832 14.195 5.5 3.036 3.648 4.551 8.656 4.551 15.03v41.61c0 6.375-1.515 11.375-4.55 15.004-3.032 3.61-7.766 5.414-14.196 5.414H273.58v-82.558Zm-.144 74.18c3.32 0 5.777-1 7.37-2.997 1.614-2.015 2.423-4.902 2.423-8.668v-42.472c0-3.766-.809-6.645-2.422-8.641-1.594-2.016-4.086-3.024-7.485-3.024h-9.906v65.801Zm36.804-8.266-3.168 16.644h-8.496l15.809-82.558h13.332l15.781 82.558h-9.183l-3.2-16.644Zm1.18-7.89h18.403l-9.305-47.657Zm53.922-5.067-17.45-52.957h9.532l12.871 40.574 12.957-40.574h8.727l-17.567 52.957V289.5h-9.07Zm0 0"/><path d="M561.422 160.059c-2.47 0-4.172-.754-5.11-2.266-.945-1.508-1.097-3.629-.453-6.36l3.36-14.609c.613-2.632 1.718-4.625 3.312-5.968 1.594-1.344 3.629-2.016 6.11-2.016 2.468 0 4.19.672 5.171 2.016.977 1.343 1.156 3.336.531 5.968l-3.359 14.61c-.637 2.75-1.773 4.875-3.406 6.375-1.625 1.5-3.68 2.25-6.156 2.25Zm1.296-5.64c.54 0 .961-.235 1.266-.704.313-.476.566-1.144.766-2l3.453-14.984c.144-.664.18-1.207.11-1.625-.075-.414-.384-.625-.923-.625-1.023 0-1.715.773-2.078 2.312l-3.453 14.953c-.219.887-.277 1.555-.172 2 .113.45.457.672 1.031.672ZM571.528 159.778l7.062-30.657h12.282l-1.36 5.953h-6.11l-1.14 4.891h5.781l-1.359 5.89h-5.781l-3.203 13.923ZM585.764 159.778l7.063-30.657h12.28l-1.358 5.953h-6.11l-1.14 4.891h5.78l-1.359 5.89h-5.78l-3.204 13.923Zm0 0"/><path fill="none" stroke="#fff" stroke-width="7" d="M0 3.498H418.17" transform="matrix(0 .7497 -.75 0 789.456 31.813)"/></svg>